{
.appVersion = "1179";
copyright = "Copyright (c) 2010, Sebastian Kosch (sebastian@aldusleaf.org),\012with Reserved Font Name \"Crimson Text\".\012This Font Software is licensed under the SIL Open Font License, Version 1.1.\012This license is available with a FAQ at: http://scripts.sil.org/OFL";
customParameters = (
{
name = licenseURL;
value = "http://scripts.sil.org/OFL";
},
{
name = vendorID;
value = PfEd;
},
{
name = panose;
value = (
2,
0,
5,
3,
0,
0,
0,
0,
0,
0
);
},
{
name = unicodeRanges;
value = (
0,
1,
6,
31,
33,
37,
38,
62
);
},
{
name = codePageRanges;
value = (
1252
);
},
{
name = glyphOrder;
value = (
.notdef,
.null,
CR,
space,
exclam,
quotedbl,
numbersign,
dollar,
percent,
ampersand,
quotesingle,
parenleft,
parenright,
asterisk,
plus,
comma,
hyphen,
period,
slash,
zero,
one,
two,
three,
four,
five,
six,
seven,
eight,
nine,
colon,
semicolon,
less,
equal,
greater,
question,
at,
A,
B,
C,
D,
E,
F,
G,
H,
I,
J,
K,
L,
M,
N,
O,
P,
Q,
R,
S,
T,
U,
V,
W,
X,
Y,
Z,
bracketleft,
backslash,
bracketright,
asciicircum,
underscore,
grave,
a,
b,
c,
d,
e,
f,
g,
h,
i,
j,
k,
l,
m,
n,
o,
p,
q,
r,
s,
t,
u,
v,
w,
x,
y,
z,
braceleft,
bar,
braceright,
asciitilde,
uni00A0,
exclamdown,
cent,
sterling,
currency,
yen,
brokenbar,
section,
dieresis,
copyright,
ordfeminine,
guillemotleft,
logicalnot,
registered,
macron,
degree,
plusminus,
uni00B2,
uni00B3,
acute,
uni00B5,
paragraph,
periodcentered,
cedilla,
uni00B9,
ordmasculine,
guillemotright,
onequarter,
onehalf,
threequarters,
questiondown,
Agrave,
Aacute,
Acircumflex,
Atilde,
Adieresis,
Aring,
AE,
Ccedilla,
Egrave,
Eacute,
Ecircumflex,
Edieresis,
Igrave,
Iacute,
Icircumflex,
Idieresis,
Eth,
Ntilde,
Ograve,
Oacute,
Ocircumflex,
Otilde,
Odieresis,
multiply,
Oslash,
Ugrave,
Uacute,
Ucircumflex,
Udieresis,
Yacute,
Thorn,
germandbls,
agrave,
aacute,
acircumflex,
atilde,
adieresis,
aring,
ae,
ccedilla,
egrave,
eacute,
ecircumflex,
edieresis,
igrave,
iacute,
icircumflex,
idieresis,
eth,
ntilde,
ograve,
oacute,
ocircumflex,
otilde,

glyphs = (
{
glyphname = .notdef;
layers = (
{
layerId = "0276F023-BC64-4582-8657-390FE5DB601E";
paths = (
{
closed = 1;
nodes = (
"306 0 LINE",
"306 682 LINE",
"34 682 LINE",
"34 0 LINE"
);
},
{
closed = 1;
nodes = (
"68 648 LINE",
"272 648 LINE",
"272 34 LINE",
"68 34 LINE"
);
}
);
userData = {
assembly = "PUSHB[ ]\011/* 2 values pushed */
1 0 
MDAP[1]\011/* MoveDirectAbsPt */
ALIGNRP[ ]\011/* AlignRelativePt */
PUSHB[ ]\011/* 3 values pushed */
7 4 15 
MIRP[01101]\011/* MoveIndirectRelPt */
SHP[0]\011/* ShiftPointByLastPoint */
PUSHB[ ]\011/* 2 values pushed */
6 5 
MDRP[11100]\011/* MoveDirectRelPt */
ALIGNRP[ ]\011/* AlignRelativePt */
PUSHB[ ]\011/* 3 values pushed */
3 2 15 
MIRP[01101]\011/* MoveIndirectRelPt */
SHP[0]\011/* ShiftPointByLastPoint */
SVTCA[0]\011/* SetFreedomAndProjectionVectorToAxis */
PUSHB[ ]\011/* 2 values pushed */
3 0 
MDAP[1]\011/* MoveDirectAbsPt */
ALIGNRP[ ]\011/* AlignRelativePt */
PUSHB[ ]\011/* 3 values pushed */
5 4 15 
MIRP[01101]\011/* MoveIndirectRelPt */
SHP[0]\011/* ShiftPointByLastPoint */
PUSHB[ ]\011/* 3 values pushed */
7 6 16 
MIRP[11100]\011/* MoveIndirectRelPt */
ALIGNRP[ ]\011/* AlignRelativePt */
PUSHB[ ]\011/* 3 values pushed */
1 2 15 
MIRP[01101]\011/* MoveIndirectRelPt */
SHP[0]\011/* ShiftPointByLastPoint */";
};
width = 374;
}
);
note = .notdef;
},
{
glyphname = exclam;
layers = (
{
layerId = "0276F023-BC64-4582-8657-390FE5DB601E";
paths = (
{
closed = 1;
nodes = (
"119 642 OFFCURVE",
"90 604 OFFCURVE",
"90 579 QCURVE SMOOTH",
"90 558 OFFCURVE",
"96 491 OFFCURVE",
"111 300 OFFCURVE",
"119 170 QCURVE",
"120 160 OFFCURVE",
"127 146 OFFCURVE",
"132 148 QCURVE",
"147 155 OFFCURVE",
"155 166 OFFCURVE",
"156 181 QCURVE SMOOTH",
"163 294 OFFCURVE",
"178 483 OFFCURVE",
"187 569 OFFCURVE",
"187 579 QCURVE SMOOTH",
"187 605 OFFCURVE",
"164 642 OFFCURVE",
"142 642 QCURVE SMOOTH"
);
},
{
closed = 1;
nodes = (
"164 -14 OFFCURVE",
"197 21 OFFCURVE",
"197 69 OFFCURVE",
"164 102 OFFCURVE",
"116 102 OFFCURVE",
"82 69 OFFCURVE",
"82 21 OFFCURVE",
"116 -14 OFFCURVE"
);
}
);
width = 280;
}
);
note = exclam;
unicode = 0021;
},
{
glyphname = quotedbl;
layers = (
{
layerId = "0276F023-BC64-4582-8657-390FE5DB601E";
paths = (
{
closed = 1;
nodes = (
"79 698 OFFCURVE",
"42 650 OFFCURVE",
"42 635 QCURVE SMOOTH",
"42 616 OFFCURVE",
"71 494 OFFCURVE",
"76 447 QCURVE",
"78 434 OFFCURVE",
"94 434 QCURVE SMOOTH",
"108 434 OFFCURVE",
"110 449 QCURVE SMOOTH",
"113 479 OFFCURVE",
"141 603 OFFCURVE",
"141 633 QCURVE SMOOTH",
"141 673 OFFCURVE",
"126 698 OFFCURVE",
"111 698 QCURVE SMOOTH",
"97 698 LINE SMOOTH"
);
},
{
closed = 1;
nodes = (
"242 698 OFFCURVE",
"206 651 OFFCURVE",
"206 635 QCURVE SMOOTH",
"206 616 OFFCURVE",
"235 494 OFFCURVE",
"240 447 QCURVE",
"242 434 OFFCURVE",
"255 434 QCURVE SMOOTH",
"270 434 OFFCURVE",
"271 449 QCURVE SMOOTH",
"274 480 OFFCURVE",
"304 603 OFFCURVE",
"304 633 QCURVE SMOOTH",
"304 673 OFFCURVE",
"289 698 OFFCURVE",
"275 698 QCURVE SMOOTH",
"260 698 LINE SMOOTH"
);
}
);
width = 348;
}
);
note = quotedbl;
unicode = 0022;
},
{
glyphname = numbersign;
layers = (
{
layerId = "0276F023-BC64-4582-8657-390FE5DB601E";
paths = (
{
closed = 1;
nodes = (
"325 175 LINE",
"429 175 LINE",
"430 175 LINE SMOOTH",
"431 175 OFFCURVE",
"434 178 OFFCURVE",
"435 181 QCURVE SMOOTH",
"444 210 OFFCURVE",
"444 224 QCURVE SMOOTH",
"444 228 OFFCURVE",
"440 232 OFFCURVE",
"438 231 OFFCURVE",
"437 231 QCURVE SMOOTH",
"333 231 LINE",
"346 317 LINE",
"429 317 LINE",
"435 324 LINE",
"444 353 OFFCURVE",
"444 367 QCURVE SMOOTH",
"444 371 OFFCURVE",
"440 375 OFFCURVE",
"438 374 OFFCURVE",
"437 374 QCURVE SMOOTH",
"355 374 LINE",
"379 530 LINE",
"380 532 LINE",
"380 534 OFFCURVE",
"375 539 OFFCURVE",
"369 539 QCURVE SMOOTH",
"331 539 OFFCURVE",
"322 530 QCURVE",
"298 374 LINE",
"204 374 LINE",
"227 530 LINE",
"228 532 LINE",
"228 534 OFFCURVE",
"223 539 OFFCURVE",
"217 539 QCURVE SMOOTH",
"179 539 OFFCURVE",
"170 530 QCURVE",
"146 374 LINE",
"39 374 LINE",
"38 374 LINE SMOOTH",
"36 374 OFFCURVE",
"33 372 OFFCURVE",
"32 369 QCURVE SMOOTH",
"24 342 OFFCURVE",
"24 328 QCURVE SMOOTH",
"24 318 OFFCURVE",
"30 317 QCURVE",
"137 317 LINE",
"125 231 LINE",
"39 231 LINE",
"38 231 LINE SMOOTH",
"36 231 OFFCURVE",
"33 229 OFFCURVE",
"32 226 QCURVE SMOOTH",
"24 199 OFFCURVE",
"24 185 QCURVE SMOOTH",
"24 175 OFFCURVE",
"30 175 QCURVE SMOOTH",
"116 175 LINE",
"93 24 LINE",
"94 22 LINE",
"94 20 OFFCURVE",
"101 15 OFFCURVE",
"107 15 QCURVE SMOOTH",
"120 15 LINE SMOOTH",
"125 15 OFFCURVE",
"134 16 OFFCURVE",
"140 17 OFFCURVE",
"145 18 OFFCURVE",
"148 19 OFFCURVE",
"149 21 OFFCURVE",
"150 22 QCURVE SMOOTH",
"151 23 OFFCURVE",
"151 24 QCURVE",
"173 175 LINE",
"267 175 LINE",
"245 24 LINE",
"245 22 LINE SMOOTH",
"245 20 OFFCURVE",
"252 15 OFFCURVE",
"258 15 QCURVE SMOOTH",
"271 15 LINE SMOOTH",
"292 15 OFFCURVE",
"298 20 QCURVE",
"301 24 OFFCURVE",
"301 24 QCURVE"
);
},
{
closed = 1;
nodes = (
"182 231 LINE",
"195 317 LINE",
"289 317 LINE",
"277 231 LINE"
);
}
);
width = 476;
}
);
note = numbersign;
unicode = 0023;
},
{
glyphname = dollar;
layers = (
{
layerId = "0276F023-BC64-4582-8657-390FE5DB601E";
paths = (
{
closed = 1;
nodes = (
"164 -43 LINE",
"164 -52 OFFCURVE",
"199 -52 QCURVE",
"319 676 LINE",
"319 683 OFFCURVE",
"284 683 QCURVE"
);
},
{
closed = 1;
nodes = (
"169 644 OFFCURVE",
"55 546 OFFCURVE",
"55 473 QCURVE SMOOTH",
"55 408 OFFCURVE",
"151 322 OFFCURVE",
"253 269 QCURVE",
"256 267 OFFCURVE",
"262 264 QCURVE SMOOTH",
"286 252 OFFCURVE",
"296 246 OFFCURVE",
"335 218 OFFCURVE",
"347 198 OFFCURVE",
"362 162 OFFCURVE",
"362 141 QCURVE SMOOTH",
"362 89 OFFCURVE",
"292 31 OFFCURVE",
"243 31 QCURVE SMOOTH",
"121 31 OFFCURVE",
"85 166 QCURVE",
"77 174 OFFCURVE",
"63 174 QCURVE SMOOTH",
"45 174 OFFCURVE",
"45 166 QCURVE",
"49 79 OFFCURVE",
"73 15 QCURVE",
"201 -8 OFFCURVE",
"241 -8 QCURVE SMOOTH",
"323 -8 OFFCURVE",
"445 93 OFFCURVE",
"445 170 QCURVE SMOOTH",
"445 188 OFFCURVE",
"434 221 OFFCURVE",
"422 246 OFFCURVE",
"390 277 OFFCURVE",
"374 293 OFFCURVE",
"327 323 OFFCURVE",
"312 332 OFFCURVE",
"257 363 OFFCURVE",
"252 366 QCURVE SMOOTH",
"190 401 OFFCURVE",
"131 459 OFFCURVE",
"131 505 QCURVE SMOOTH",
"131 602 OFFCURVE",
"240 602 QCURVE SMOOTH",
"294 602 OFFCURVE",
"363 522 OFFCURVE",
"368 487 QCURVE SMOOTH",
"369 478 OFFCURVE",
"394 476 QCURVE",
"401 476 OFFCURVE",
"401 484 QCURVE SMOOTH",
"401 531 OFFCURVE",
"390 621 QCURVE",
"384 622 OFFCURVE",
"326 635 OFFCURVE",
"268 644 OFFCURVE",
"245 644 QCURVE SMOOTH"
);
}
);
width = 491;
}
);
note = dollar;
unicode = 0024;
},
{
glyphname = percent;
layers = (
{
layerId = "0276F023-BC64-4582-8657-390FE5DB601E";
paths = (
{
closed = 1;
nodes = (
"233 621 OFFCURVE",
"280 531 OFFCURVE",
"280 476 QCURVE SMOOTH",
"280 424 OFFCURVE",
"245 350 OFFCURVE",
"205 350 QCURVE SMOOTH",
"169 350 OFFCURVE",
"113 442 OFFCURVE",
"113 496 QCURVE SMOOTH",
"113 546 OFFCURVE",
"154 621 OFFCURVE",
"195 621 QCURVE SMOOTH"
);
},
{
closed = 1;
nodes = (
"133 645 OFFCURVE",
"49 552 OFFCURVE",
"49 484 QCURVE SMOOTH",
"49 418 OFFCURVE",
"137 325 OFFCURVE",
"199 325 QCURVE SMOOTH",
"264 325 OFFCURVE",
"346 421 OFFCURVE",
"346 484 QCURVE SMOOTH",
"346 551 OFFCURVE",
"263 645 OFFCURVE",
"199 645 QCURVE SMOOTH"
);
},
{
closed = 1;
nodes = (
"521 289 OFFCURVE",
"568 199 OFFCURVE",
"568 144 QCURVE SMOOTH",
"568 92 OFFCURVE",
"534 18 OFFCURVE",
"494 18 QCURVE SMOOTH",
"457 18 OFFCURVE",
"401 111 OFFCURVE",
"401 164 QCURVE SMOOTH",
"401 214 OFFCURVE",
"443 289 OFFCURVE",
"484 289 QCURVE SMOOTH"
);
},
{
closed = 1;
nodes = (
"422 313 OFFCURVE",
"337 220 OFFCURVE",
"337 152 QCURVE SMOOTH",
"337 86 OFFCURVE",
"425 -7 OFFCURVE",
"487 -7 QCURVE SMOOTH",
"553 -7 OFFCURVE",
"634 88 OFFCURVE",
"634 152 QCURVE SMOOTH",
"634 219 OFFCURVE",
"552 313 OFFCURVE",
"488 313 QCURVE SMOOTH"
);
},
{
closed = 1;
nodes = (
"605 626 OFFCURVE",
"600 633 OFFCURVE",
"597 634 OFFCURVE",
"586 636 OFFCURVE",
"575 636 QCURVE SMOOTH",
"565 636 OFFCURVE",
"555 624 QCURVE",
"73 -1 LINE",
"78 -12 OFFCURVE",
"91 -12 QCURVE SMOOTH",
"114 -12 OFFCURVE",
"124 0 QCURVE",
"607 624 LINE"
);
}
);
width = 680;
}
);
note = percent;
unicode = 0025;
},
{
glyphname = ampersand;
layers = (
{
layerId = "0276F023-BC64-4582-8657-390FE5DB601E";
paths = (
{
closed = 1;
nodes = (
"384 70 OFFCURVE",
"313 40 OFFCURVE",
"282 40 QCURVE SMOOTH",
"222 40 OFFCURVE",
"140 106 OFFCURVE",
"140 172 QCURVE SMOOTH",
"140 206 OFFCURVE",
"173 262 OFFCURVE",
"207 289 OFFCURVE",
"243 314 QCURVE",
"270 274 LINE SMOOTH",
"296 234 OFFCURVE",
"378 124 OFFCURVE",
"407 95 QCURVE"
);
},
{
closed = 1;
nodes = (
"346 620 OFFCURVE",
"386 566 OFFCURVE",
"386 530 QCURVE SMOOTH",
"386 476 OFFCURVE",
"339 415 OFFCURVE",
"287 385 QCURVE",
"235 479 OFFCURVE",
"235 543 QCURVE SMOOTH",
"235 577 OFFCURVE",
"281 620 OFFCURVE",
"314 620 QCURVE SMOOTH"
);
},
{
closed = 1;
nodes = (
"246 656 OFFCURVE",
"162 576 OFFCURVE",
"162 519 QCURVE SMOOTH",
"162 487 OFFCURVE",
"182 421 OFFCURVE",
"201 382 OFFCURVE",
"220 350 QCURVE",
"142 310 OFFCURVE",
"54 223 OFFCURVE",
"54 158 QCURVE SMOOTH",
"54 83 OFFCURVE",
"159 -3 OFFCURVE",
"248 -3 QCURVE SMOOTH",
"344 -3 OFFCURVE",
"430 72 QCURVE",
"446 54 LINE SMOOTH",
"461 36 OFFCURVE",
"519 0 OFFCURVE",
"545 0 QCURVE SMOOTH",
"572 0 OFFCURVE",
"615 19 OFFCURVE",
"640 49 OFFCURVE",
"650 65 OFFCURVE",
"654 73 QCURVE",
"654 79 OFFCURVE",
"639 91 OFFCURVE",
"631 91 QCURVE",
"626 79 OFFCURVE",
"593 45 OFFCURVE",
"579 45 QCURVE SMOOTH",
"570 45 OFFCURVE",
"552 54 OFFCURVE",
"522 81 OFFCURVE",
"504 99 OFFCURVE",
"481 123 QCURVE",
"508 154 OFFCURVE",
"558 228 OFFCURVE",
"584 271 OFFCURVE",
"585 272 QCURVE",
"593 277 OFFCURVE",
"641 289 OFFCURVE",
"654 289 QCURVE SMOOTH",
"660 289 OFFCURVE",
"660 304 QCURVE SMOOTH",
"660 314 OFFCURVE",
"655 317 QCURVE",
"638 316 OFFCURVE",
"593 314 OFFCURVE",
"560 312 OFFCURVE",
"545 312 QCURVE SMOOTH",
"466 312 LINE",
"463 309 OFFCURVE",
"463 293 OFFCURVE",
"465 289 QCURVE",
"467 288 OFFCURVE",
"491 287 OFFCURVE",
"510 280 OFFCURVE",
"510 262 OFFCURVE",
"478 192 OFFCURVE",
"453 154 QCURVE",
"363 255 OFFCURVE",
"305 353 QCURVE",
"376 397 OFFCURVE",
"454 483 OFFCURVE",
"454 544 QCURVE SMOOTH",
"454 597 OFFCURVE",
"376 656 OFFCURVE",
"309 656 QCURVE SMOOTH"
);
}
);
width = 671;
}
);
note = ampersand;
unicode = 0026;
},
{
glyphname = quotesingle;
layers = (
{
layerId = "0276F023-BC64-4582-8657-390FE5DB601E";
paths = (
{
closed = 1;
nodes = (
"78 698 OFFCURVE",
"42 651 OFFCURVE",
"42 635 QCURVE SMOOTH",
"42 616 OFFCURVE",
"71 494 OFFCURVE",
"76 447 QCURVE",
"78 434 OFFCURVE",
"91 434 QCURVE SMOOTH",
"106 434 OFFCURVE",
"107 449 QCURVE SMOOTH",
"110 480 OFFCURVE",
"141 603 OFFCURVE",
"141 633 QCURVE SMOOTH",
"141 673 OFFCURVE",
"126 698 OFFCURVE",
"111 698 QCURVE SMOOTH",
"96 698 LINE SMOOTH"
);
}
);
width = 186;
}
);
note = quotesingle;
unicode = 0027;
},
{
glyphname = parenleft;
layers = (
{
layerId = "0276F023-BC64-4582-8657-390FE5DB601E";
paths = (
{
closed = 1;
nodes = (
"136 450 OFFCURVE",
"225 697 OFFCURVE",
"275 721 QCURVE",
"276 721 OFFCURVE",
"276 724 QCURVE SMOOTH",
"276 730 OFFCURVE",
"268 748 OFFCURVE",
"263 748 QCURVE SMOOTH",
"237 748 OFFCURVE",
"171 678 OFFCURVE",
"112 564 OFFCURVE",
"71 394 OFFCURVE",
"71 305 QCURVE SMOOTH",
"71 221 OFFCURVE",
"115 56 OFFCURVE",
"178 -53 OFFCURVE",
"242 -121 OFFCURVE",
"263 -121 QCURVE SMOOTH",
"268 -121 OFFCURVE",
"277 -106 OFFCURVE",
"277 -100 QCURVE SMOOTH",
"277 -96 OFFCURVE",
"275 -95 QCURVE SMOOTH",
"237 -76 OFFCURVE",
"136 164 OFFCURVE",
"136 305 QCURVE SMOOTH"
);
}
);
width = 323;
}
);
note = parenleft;
unicode = 0028;
},
{
glyphname = parenright;
layers = (
{
layerId = "0276F023-BC64-4582-8657-390FE5DB601E";
paths = (
{
closed = 1;
nodes = (
"186 164 OFFCURVE",
"85 -76 OFFCURVE",
"47 -95 QCURVE SMOOTH",
"45 -96 OFFCURVE",
"45 -100 QCURVE SMOOTH",
"45 -106 OFFCURVE",
"54 -121 OFFCURVE",
"59 -121 QCURVE SMOOTH",
"80 -121 OFFCURVE",
"144 -53 OFFCURVE",
"207 56 OFFCURVE",
"251 221 OFFCURVE",
"251 305 QCURVE SMOOTH",
"251 394 OFFCURVE",
"210 564 OFFCURVE",
"151 678 OFFCURVE",
"85 748 OFFCURVE",
"59 748 QCURVE SMOOTH",
"54 748 OFFCURVE",
"46 730 OFFCURVE",
"46 724 QCURVE SMOOTH",
"46 721 OFFCURVE",
"47 721 QCURVE",
"97 697 OFFCURVE",
"186 450 OFFCURVE",
"186 305 QCURVE SMOOTH"
);
}
);
width = 322;
}
);
note = parenright;
unicode = 0029;
},
{
glyphname = asterisk;
layers = (
{
layerId = "0276F023-BC64-4582-8657-390FE5DB601E";
paths = (
{
closed = 1;
nodes = (
"290 594 OFFCURVE",
"258 533 OFFCURVE",
"246 520 QCURVE",
"239 513 OFFCURVE",
"233 514 QCURVE SMOOTH",
"228 515 OFFCURVE",
"223 525 QCURVE SMOOTH",
"215 542 OFFCURVE",
"202 614 OFFCURVE",
"192 637 QCURVE",
"173 676 OFFCURVE",
"141 660 QCURVE",
"113 644 OFFCURVE",
"135 604 QCURVE SMOOTH",
"148 582 OFFCURVE",
"195 531 OFFCURVE",
"204 516 QCURVE SMOOTH",
"209 508 OFFCURVE",
"206 502 QCURVE",
"204 497 OFFCURVE",
"195 494 QCURVE",
"177 492 OFFCURVE",
"104 502 OFFCURVE",
"79 499 QCURVE SMOOTH",
"60 497 OFFCURVE",
"38 473 OFFCURVE",
"41 457 QCURVE",
"43 442 OFFCURVE",
"74 430 OFFCURVE",
"93 434 QCURVE SMOOTH",
"119 439 OFFCURVE",
"181 469 OFFCURVE",
"198 473 QCURVE SMOOTH",
"207 475 OFFCURVE",
"211 470 QCURVE",
"215 466 OFFCURVE",
"214 457 QCURVE",
"211 439 OFFCURVE",
"178 372 OFFCURVE",
"173 347 QCURVE SMOOTH",
"169 328 OFFCURVE",
"185 301 OFFCURVE",
"201 299 QCURVE SMOOTH",
"216 297 OFFCURVE",
"237 321 OFFCURVE",
"239 341 QCURVE SMOOTH",
"242 366 OFFCURVE",
"233 434 OFFCURVE",
"235 452 QCURVE",
"237 463 OFFCURVE",
"241 465 QCURVE",
"255 462 LINE",
"271 453 OFFCURVE",
"324 402 OFFCURVE",
"346 390 QCURVE SMOOTH",
"362 381 OFFCURVE",
"394 387 OFFCURVE",
"401 402 QCURVE SMOOTH",
"408 416 OFFCURVE",
"390 443 OFFCURVE",
"372 451 QCURVE SMOOTH",
"349 461 OFFCURVE",
"281 473 OFFCURVE",
"265 481 QCURVE",
"256 484 OFFCURVE",
"255 491 QCURVE",
"260 505 LINE",
"274 518 OFFCURVE",
"339 553 OFFCURVE",
"357 569 QCURVE SMOOTH",
"371 582 OFFCURVE",
"375 613 OFFCURVE",
"363 625 QCURVE",
"351 636 OFFCURVE",
"320 628 OFFCURVE",
"307 613 QCURVE SMOOTH"
);
}
);
width = 444;
}
);
note = asterisk;
unicode = 002A;
},
{
glyphname = plus;
layers = (
{
layerId = "0276F023-BC64-4582-8657-390FE5DB601E";
paths = (
{
closed = 1;
nodes = (
"319 218 OFFCURVE",
"323 218 QCURVE SMOOTH",
"514 218 LINE",
"516 218 LINE SMOOTH",
"517 218 OFFCURVE",
"520 221 OFFCURVE",
"521 224 QCURVE",
"531 261 OFFCURVE",
"531 269 QCURVE SMOOTH",
"531 274 OFFCURVE",
"523 274 QCURVE SMOOTH",
"323 274 LINE SMOOTH",
"319 274 OFFCURVE",
"319 279 QCURVE SMOOTH",
"319 479 LINE",
"309 485 LINE",
"295 485 OFFCURVE",
"268 477 QCURVE SMOOTH",
"262 475 OFFCURVE",
"263 470 QCURVE",
"263 280 LINE SMOOTH",
"263 274 OFFCURVE",
"258 274 QCURVE SMOOTH",
"67 274 LINE",
"66 274 LINE SMOOTH",
"64 274 OFFCURVE",
"61 272 OFFCURVE",
"60 269 QCURVE SMOOTH",
"52 242 OFFCURVE",
"52 228 QCURVE SMOOTH",
"52 218 OFFCURVE",
"58 218 QCURVE SMOOTH",
"257 218 LINE SMOOTH",
"263 218 OFFCURVE",
"263 213 QCURVE SMOOTH",
"263 14 LINE SMOOTH",
"263 6 OFFCURVE",
"268 6 QCURVE SMOOTH",
"269 6 OFFCURVE",
"272 7 OFFCURVE",
"274 7 QCURVE",
"319 13 OFFCURVE",
"319 23 QCURVE SMOOTH",
"319 215 LINE SMOOTH"
);
}
);
width = 582;
}
);
note = plus;
unicode = 002B;
},
{
glyphname = comma;
layers = (
{
layerId = "0276F023-BC64-4582-8657-390FE5DB601E";
paths = (
{
closed = 1;
nodes = (
"118 -40 OFFCURVE",
"95 -90 OFFCURVE",
"67 -118 OFFCURVE",
"44 -139 OFFCURVE",
"44 -141 QCURVE SMOOTH",
"44 -147 OFFCURVE",
"63 -163 OFFCURVE",
"67 -163 QCURVE SMOOTH",
"68 -163 LINE",
"131 -111 OFFCURVE",
"181 -30 OFFCURVE",
"195 35 QCURVE",
"197 42 OFFCURVE",
"197 61 QCURVE SMOOTH",
"197 106 OFFCURVE",
"184 125 QCURVE",
"173 129 OFFCURVE",
"160 129 QCURVE SMOOTH",
"132 129 OFFCURVE",
"88 98 OFFCURVE",
"88 76 QCURVE SMOOTH",
"88 66 OFFCURVE",
"118 4 OFFCURVE",
"118 -14 QCURVE SMOOTH"
);
}
);
width = 239;
}
);
note = comma;
unicode = 002C;
},
{
glyphname = hyphen;
layers = (
{
layerId = "0276F023-BC64-4582-8657-390FE5DB601E";
paths = (
{
closed = 1;
nodes = (
"58 205 OFFCURVE",
"62 199 OFFCURVE",
"64 199 OFFCURVE",
"65 199 QCURVE",
"306 210 LINE",
"309 212 LINE",
"312 215 OFFCURVE",
"319 242 OFFCURVE",
"319 264 QCURVE SMOOTH",
"319 273 OFFCURVE",
"313 273 QCURVE SMOOTH",
"312 273 LINE",
"71 261 LINE",
"70 261 LINE SMOOTH",
"58 261 OFFCURVE",
"58 210 QCURVE SMOOTH"
);
}
);
width = 375;
}
);
note = hyphen;
unicode = 002D;
},
{
glyphname = period;
layers = (
{
layerId = "0276F023-BC64-4582-8657-390FE5DB601E";
paths = (
{
closed = 1;
nodes = (
"142 -14 OFFCURVE",
"175 21 OFFCURVE",
"175 69 OFFCURVE",
"142 102 OFFCURVE",
"94 102 OFFCURVE",
"59 69 OFFCURVE",
"59 21 OFFCURVE",
"94 -14 OFFCURVE"
);
}
);
width = 233;
}
);
note = period;
unicode = 002E;
},
{
glyphname = slash;
layers = (
{
layerId = "0276F023-BC64-4582-8657-390FE5DB601E";
paths = (
{
closed = 1;
nodes = (
"379 761 OFFCURVE",
"370 761 QCURVE SMOOTH",
"331 761 OFFCURVE",
"321 739 QCURVE",
"25 -28 LINE",
"26 -30 LINE SMOOTH",
"27 -32 OFFCURVE",
"36 -35 OFFCURVE",
"43 -35 QCURVE SMOOTH",
"66 -35 OFFCURVE",
"93 -19 OFFCURVE",
"95 -12 QCURVE",
"391 755 LINE"
);
}
);
width = 424;
}
);
note = slash;
unicode = 002F;
},
{
glyphname = zero;
layers = (
{
layerId = "0276F023-BC64-4582-8657-390FE5DB601E";
paths = (
{
closed = 1;
nodes = (
"112 441 OFFCURVE",
"186 603 OFFCURVE",
"247 603 QCURVE SMOOTH",
"302 603 OFFCURVE",
"372 444 OFFCURVE",
"372 325 QCURVE SMOOTH",
"372 201 OFFCURVE",
"301 35 OFFCURVE",
"237 35 QCURVE SMOOTH",
"182 35 OFFCURVE",
"112 200 OFFCURVE",
"112 320 QCURVE SMOOTH"
);
},
{
closed = 1;
nodes = (
"24 184 OFFCURVE",
"143 -3 OFFCURVE",
"242 -3 QCURVE SMOOTH",
"342 -3 OFFCURVE",
"460 183 OFFCURVE",
"460 319 QCURVE SMOOTH",
"460 456 OFFCURVE",
"343 641 OFFCURVE",
"242 641 QCURVE SMOOTH",
"142 641 OFFCURVE",
"24 455 OFFCURVE",
"24 319 QCURVE SMOOTH"
);
}
);
width = 484;
}
);
note = zero;
unicode = 0030;
},
{
glyphname = one;
layers = (
{
layerId = "0276F023-BC64-4582-8657-390FE5DB601E";
paths = (
{
closed = 1;
nodes = (
"136 499 OFFCURVE",
"166 517 OFFCURVE",
"189 529 OFFCURVE",
"195 529 QCURVE SMOOTH",
"200 529 OFFCURVE",
"205 522 OFFCURVE",
"209 492 OFFCURVE",
"209 463 QCURVE SMOOTH",
"209 103 LINE SMOOTH",
"209 70 OFFCURVE",
"203 46 QCURVE SMOOTH",
"201 39 OFFCURVE",
"146 26 OFFCURVE",
"133 26 QCURVE SMOOTH",
"129 26 OFFCURVE",
"129 1 OFFCURVE",
"133 -3 QCURVE",
"233 2 OFFCURVE",
"249 2 QCURVE SMOOTH",
"270 2 OFFCURVE",
"370 -3 QCURVE",
"371 -1 OFFCURVE",
"371 8 QCURVE SMOOTH",
"371 26 OFFCURVE",
"367 26 QCURVE SMOOTH",
"357 26 OFFCURVE",
"302 39 OFFCURVE",
"300 46 QCURVE SMOOTH",
"292 77 OFFCURVE",
"292 135 QCURVE SMOOTH",
"292 529 LINE SMOOTH",
"292 590 OFFCURVE",
"302 623 QCURVE",
"298 642 OFFCURVE",
"290 642 QCURVE SMOOTH",
"288 642 LINE SMOOTH",
"284 642 OFFCURVE",
"115 527 QCURVE",
"113 525 OFFCURVE",
"113 521 QCURVE SMOOTH",
"113 516 OFFCURVE",
"125 499 OFFCURVE",
"131 496 QCURVE"
);
}
);
width = 484;
}
);
note = one;
unicode = 0031;
},
{
glyphname = two;
layers = (
{
layerId = "0276F023-BC64-4582-8657-390FE5DB601E";
paths = (
{
closed = 1;
nodes = (
"214 642 OFFCURVE",
"139 607 OFFCURVE",
"94 558 OFFCURVE",
"67 517 OFFCURVE",
"64 505 QCURVE",
"64 502 OFFCURVE",
"77 489 OFFCURVE",
"83 489 QCURVE",
"133 572 OFFCURVE",
"216 572 QCURVE SMOOTH",
"260 572 OFFCURVE",
"314 513 OFFCURVE",
"314 459 QCURVE SMOOTH",
"314 377 OFFCURVE",
"158 140 OFFCURVE",
"49 30 QCURVE",
"49 23 OFFCURVE",
"56 0 OFFCURVE",
"60 0 QCURVE SMOOTH",
"388 0 LINE SMOOTH",
"406 0 OFFCURVE",
"408 16 QCURVE SMOOTH",
"411 36 OFFCURVE",
"435 156 QCURVE",
"430 160 OFFCURVE",
"417 160 QCURVE SMOOTH",
"407 160 OFFCURVE",
"403 149 QCURVE",
"390 104 OFFCURVE",
"365 72 OFFCURVE",
"337 72 QCURVE SMOOTH",
"144 72 LINE",
"139 74 OFFCURVE",
"142 79 QCURVE",
"174 110 OFFCURVE",
"203 140 OFFCURVE",
"279 220 OFFCURVE",
"322 281 OFFCURVE",
"375 363 OFFCURVE",
"400 442 OFFCURVE",
"400 479 QCURVE SMOOTH",
"400 542 OFFCURVE",
"323 642 OFFCURVE",
"256 642 QCURVE SMOOTH"
);
}
);
width = 484;
}
);
note = two;
unicode = 0032;
},
{
glyphname = three;
layers = (
{
layerId = "0276F023-BC64-4582-8657-390FE5DB601E";
paths = (
{
closed = 1;
nodes = (
"196 642 OFFCURVE",
"128 598 OFFCURVE",
"101 558 QCURVE",
"101 551 OFFCURVE",
"109 532 OFFCURVE",
"113 532 QCURVE",
"114 533 OFFCURVE",
"132 552 OFFCURVE",
"151 568 OFFCURVE",
"188 583 OFFCURVE",
"210 583 QCURVE SMOOTH",
"244 583 OFFCURVE",
"297 530 OFFCURVE",
"297 496 QCURVE SMOOTH",
"297 434 OFFCURVE",
"215 362 OFFCURVE",
"146 350 QCURVE",
"144 347 OFFCURVE",
"144 340 QCURVE SMOOTH",
"144 323 OFFCURVE",
"151 314 QCURVE",
"179 321 OFFCURVE",
"216 321 QCURVE SMOOTH",
"267 321 OFFCURVE",
"343 239 OFFCURVE",
"343 180 QCURVE SMOOTH",
"343 104 OFFCURVE",
"272 35 OFFCURVE",
"228 35 QCURVE SMOOTH",
"181 35 OFFCURVE",
"152 56 QCURVE SMOOTH",
"144 62 OFFCURVE",
"121 86 OFFCURVE",
"102 101 OFFCURVE",
"93 101 QCURVE SMOOTH",
"56 101 OFFCURVE",
"56 54 QCURVE SMOOTH",
"56 32 OFFCURVE",
"66 25 QCURVE SMOOTH",
"111 -5 OFFCURVE",
"196 -5 QCURVE SMOOTH",
"295 -5 OFFCURVE",
"429 111 OFFCURVE",
"429 206 QCURVE SMOOTH",
"429 272 OFFCURVE",
"342 360 OFFCURVE",
"289 379 QCURVE",
"329 409 OFFCURVE",
"372 470 OFFCURVE",
"372 514 QCURVE SMOOTH",
"372 571 OFFCURVE",
"293 642 OFFCURVE",
"250 642 QCURVE SMOOTH"
);
}
);
width = 485;
}
);
note = three;
unicode = 0033;
},
{
glyphname = four;
layers = (
{
layerId = "0276F023-BC64-4582-8657-390FE5DB601E";
paths = (
{
closed = 1;
nodes = (
"345 645 OFFCURVE",
"336 633 QCURVE SMOOTH",
"33 205 LINE",
"33 183 OFFCURVE",
"40 174 QCURVE",
"293 174 LINE",
"293 2 LINE SMOOTH",
"293 -6 OFFCURVE",
"330 -6 QCURVE SMOOTH",
"369 -6 OFFCURVE",
"372 -1 QCURVE",
"372 174 LINE",
"444 174 OFFCURVE",
"444 174 QCURVE",
"450 178 OFFCURVE",
"450 184 QCURVE SMOOTH",
"450 232 OFFCURVE",
"434 232 QCURVE SMOOTH",
"372 232 LINE",
"372 635 LINE SMOOTH",
"372 645 OFFCURVE",
"359 645 QCURVE SMOOTH"
);
},
{
closed = 1;
nodes = (
"111 232 LINE SMOOTH",
"104 232 OFFCURVE",
"104 241 QCURVE SMOOTH",
"104 243 OFFCURVE",
"105 244 QCURVE",
"287 505 LINE",
"288 506 OFFCURVE",
"288 507 QCURVE",
"293 507 OFFCURVE",
"293 498 QCURVE SMOOTH",
"293 232 LINE"
);
}
);
width = 482;
}
);
note = four;
unicode = 0034;
},
{
glyphname = five;
layers = (
{
layerId = "0276F023-BC64-4582-8657-390FE5DB601E";
paths = (
{
closed = 1;
nodes = (
"91 326 LINE",
"101 316 OFFCURVE",
"109 312 QCURVE",
"144 323 OFFCURVE",
"196 323 QCURVE SMOOTH",
"237 323 OFFCURVE",
"297 297 OFFCURVE",
"328 252 OFFCURVE",
"342 206 OFFCURVE",
"342 180 QCURVE SMOOTH",
"342 106 OFFCURVE",
"275 35 OFFCURVE",
"233 35 QCURVE SMOOTH",
"182 35 OFFCURVE",
"153 56 QCURVE SMOOTH",
"145 62 OFFCURVE",
"122 86 OFFCURVE",
"103 101 OFFCURVE",
"94 101 QCURVE SMOOTH",
"57 101 OFFCURVE",
"57 54 QCURVE SMOOTH",
"57 32 OFFCURVE",
"67 25 QCURVE SMOOTH",
"112 -5 OFFCURVE",
"201 -5 QCURVE SMOOTH",
"299 -5 OFFCURVE",
"428 114 OFFCURVE",
"428 206 QCURVE SMOOTH",
"428 281 OFFCURVE",
"311 391 OFFCURVE",
"231 391 QCURVE SMOOTH",
"170 391 OFFCURVE",
"137 378 QCURVE",
"155 483 OFFCURVE",
"166 538 QCURVE",
"168 545 OFFCURVE",
"173 546 QCURVE",
"260 550 LINE SMOOTH",
"347 553 OFFCURVE",
"373 561 QCURVE",
"379 591 OFFCURVE",
"379 616 QCURVE SMOOTH",
"379 630 OFFCURVE",
"374 637 QCURVE",
"336 629 OFFCURVE",
"139 623 QCURVE"
);
}
);
width = 485;
}
);
note = five;
unicode = 0035;
},
{
glyphname = six;
layers = (
{
layerId = "0276F023-BC64-4582-8657-390FE5DB601E";
paths = (
{
closed = 1;
nodes = (
"131 253 OFFCURVE",
"145 285 QCURVE SMOOTH",
"152 301 OFFCURVE",
"202 330 OFFCURVE",
"229 330 QCURVE SMOOTH",
"292 330 OFFCURVE",
"357 242 OFFCURVE",
"357 174 QCURVE SMOOTH",
"357 110 OFFCURVE",
"291 33 OFFCURVE",
"247 33 QCURVE SMOOTH",
"197 33 OFFCURVE",
"130 140 OFFCURVE",
"130 210 QCURVE SMOOTH"
);
},
{
closed = 1;
nodes = (
"316 -6 OFFCURVE",
"440 112 OFFCURVE",
"440 195 QCURVE SMOOTH",
"440 264 OFFCURVE",
"345 381 OFFCURVE",
"275 381 QCURVE SMOOTH",
"245 381 OFFCURVE",
"172 355 OFFCURVE",
"158 344 QCURVE",
"157 343 OFFCURVE",
"155 342 QCURVE",
"152 342 OFFCURVE",
"154 352 QCURVE",
"181 451 OFFCURVE",
"322 576 OFFCURVE",
"423 620 QCURVE",
"423 625 OFFCURVE",
"406 647 OFFCURVE",
"400 647 QCURVE",
"332 620 OFFCURVE",
"211 539 OFFCURVE",
"106 430 OFFCURVE",
"44 286 OFFCURVE",
"44 208 QCURVE SMOOTH",
"44 123 OFFCURVE",
"152 -6 OFFCURVE",
"235 -6 QCURVE SMOOTH"
);
}
);
width = 484;
}
);
note = six;
unicode = 0036;
},
{
glyphname = seven;
layers = (
{
layerId = "0276F023-BC64-4582-8657-390FE5DB601E";
paths = (
{
closed = 1;
nodes = (
"374 553 LINE",
"108 22 LINE",
"108 15 OFFCURVE",
"132 -6 OFFCURVE",
"143 -6 QCURVE SMOOTH",
"151 -6 OFFCURVE",
"154 -3 QCURVE",
"417 560 LINE SMOOTH",
"421 568 OFFCURVE",
"438 602 OFFCURVE",
"446 621 OFFCURVE",
"446 627 QCURVE SMOOTH",
"446 636 OFFCURVE",
"439 636 QCURVE SMOOTH",
"438 636 OFFCURVE",
"388 633 OFFCURVE",
"372 633 QCURVE SMOOTH",
"83 633 LINE SMOOTH",
"68 633 OFFCURVE",
"67 621 QCURVE",
"63 595 OFFCURVE",
"38 480 OFFCURVE",
"36 471 QCURVE",
"43 468 OFFCURVE",
"69 470 OFFCURVE",
"70 474 QCURVE",
"77 497 OFFCURVE",
"89 525 OFFCURVE",
"116 553 OFFCURVE",
"133 553 QCURVE SMOOTH"
);
}
);
width = 483;
}
);
note = seven;
unicode = 0037;
},
{
glyphname = eight;
layers = (
{
layerId = "0276F023-BC64-4582-8657-390FE5DB601E";
paths = (
{
closed = 1;
nodes = (
"198 27 OFFCURVE",
"132 99 OFFCURVE",
"132 157 QCURVE SMOOTH",
"132 205 OFFCURVE",
"169 270 OFFCURVE",
"211 296 QCURVE",
"212 297 OFFCURVE",
"215 297 QCURVE SMOOTH",
"217 297 OFFCURVE",
"221 295 QCURVE SMOOTH",
"234 288 OFFCURVE",
"263 268 OFFCURVE",
"315 224 OFFCURVE",
"349 167 OFFCURVE",
"349 138 QCURVE SMOOTH",
"349 87 OFFCURVE",
"291 27 OFFCURVE",
"241 27 QCURVE SMOOTH"
);
},
{
closed = 1;
nodes = (
"284 608 OFFCURVE",
"339 533 OFFCURVE",
"339 486 QCURVE SMOOTH",
"339 409 OFFCURVE",
"271 364 QCURVE SMOOTH",
"268 362 OFFCURVE",
"265 362 QCURVE SMOOTH",
"263 362 OFFCURVE",
"259 364 QCURVE",
"155 424 OFFCURVE",
"155 492 QCURVE SMOOTH",
"155 544 OFFCURVE",
"204 608 OFFCURVE",
"241 608 QCURVE SMOOTH"
);
},
{
closed = 1;
nodes = (
"181 643 OFFCURVE",
"81 544 OFFCURVE",
"81 480 QCURVE SMOOTH",
"81 430 OFFCURVE",
"144 347 OFFCURVE",
"183 324 QCURVE SMOOTH",
"188 321 OFFCURVE",
"183 318 QCURVE SMOOTH",
"170 310 LINE",
"158 302 OFFCURVE",
"151 297 OFFCURVE",
"125 279 OFFCURVE",
"115 270 OFFCURVE",
"93 250 OFFCURVE",
"82 235 OFFCURVE",
"66 212 OFFCURVE",
"59 192 OFFCURVE",
"53 167 OFFCURVE",
"53 154 QCURVE SMOOTH",
"53 81 OFFCURVE",
"156 -9 OFFCURVE",
"239 -9 QCURVE SMOOTH",
"315 -9 OFFCURVE",
"430 93 OFFCURVE",
"430 167 QCURVE SMOOTH",
"430 217 OFFCURVE",
"351 308 OFFCURVE",
"299 338 QCURVE SMOOTH",
"292 342 OFFCURVE",
"299 344 QCURVE",
"411 415 OFFCURVE",
"411 491 QCURVE SMOOTH",
"411 560 OFFCURVE",
"316 643 OFFCURVE",
"247 643 QCURVE SMOOTH"
);
}
);
width = 484;
}
);
note = eight;
unicode = 0038;
},
{
glyphname = nine;
layers = (
{
layerId = "0276F023-BC64-4582-8657-390FE5DB601E";
paths = (
{
closed = 1;
nodes = (
"352 386 OFFCURVE",
"339 356 QCURVE SMOOTH",
"332 340 OFFCURVE",
"282 311 OFFCURVE",
"255 311 QCURVE SMOOTH",
"194 311 OFFCURVE",
"128 398 OFFCURVE",
"128 528 OFFCURVE",
"190 608 OFFCURVE",
"233 608 QCURVE SMOOTH",
"286 608 OFFCURVE",
"353 502 OFFCURVE",
"353 431 QCURVE SMOOTH"
);
},
{
closed = 1;
nodes = (
"168 647 OFFCURVE",
"45 528 OFFCURVE",
"45 445 QCURVE SMOOTH",
"45 370 OFFCURVE",
"145 262 OFFCURVE",
"217 262 QCURVE SMOOTH",
"244 262 OFFCURVE",
"314 284 OFFCURVE",
"325 297 QCURVE",
"326 298 OFFCURVE",
"328 299 QCURVE",
"331 299 OFFCURVE",
"329 289 QCURVE",
"302 190 OFFCURVE",
"160 53 OFFCURVE",
"83 23 QCURVE",
"83 18 OFFCURVE",
"99 -6 OFFCURVE",
"105 -6 QCURVE",
"161 14 OFFCURVE",
"274 95 OFFCURVE",
"375 206 OFFCURVE",
"439 355 OFFCURVE",
"439 433 QCURVE SMOOTH",
"439 518 OFFCURVE",
"331 647 OFFCURVE",
"249 647 QCURVE SMOOTH"
);
}
);
width = 484;
}
);
note = nine;
unicode = 0039;
},
{
glyphname = colon;
layers = (
{
layerId = "0276F023-BC64-4582-8657-390FE5DB601E";
paths = (
{
closed = 1;
nodes = (
"95 430 OFFCURVE",
"60 396 OFFCURVE",
"60 346 OFFCURVE",
"95 310 OFFCURVE",
"145 310 OFFCURVE",
"179 346 OFFCURVE",
"179 396 OFFCURVE",
"145 430 OFFCURVE"
);
},
{
closed = 1;
nodes = (
"95 106 OFFCURVE",
"60 71 OFFCURVE",
"60 21 OFFCURVE",
"95 -14 OFFCURVE",
"145 -14 OFFCURVE",
"179 21 OFFCURVE",
"179 71 OFFCURVE",
"145 106 OFFCURVE"
);
}
);
width = 236;
}
);
note = colon;
unicode = 003A;
},
{
glyphname = semicolon;
layers = (
{
layerId = "0276F023-BC64-4582-8657-390FE5DB601E";
paths = (
{
closed = 1;
nodes = (
"196 101 OFFCURVE",
"179 117 QCURVE",
"170 124 OFFCURVE",
"161 124 QCURVE SMOOTH",
"134 124 OFFCURVE",
"91 88 OFFCURVE",
"91 68 QCURVE SMOOTH",
"91 64 OFFCURVE",
"118 15 OFFCURVE",
"118 -14 QCURVE SMOOTH",
"118 -50 OFFCURVE",
"82 -108 OFFCURVE",
"45 -138 OFFCURVE",
"45 -140 QCURVE SMOOTH",
"45 -145 OFFCURVE",
"59 -167 OFFCURVE",
"66 -167 QCURVE SMOOTH",
"69 -167 OFFCURVE",
"73 -165 QCURVE",
"124 -122 OFFCURVE",
"175 -66 OFFCURVE",
"186 -33 QCURVE SMOOTH",
"196 -3 OFFCURVE",
"196 39 QCURVE SMOOTH"
);
},
{
closed = 1;
nodes = (
"168 310 OFFCURVE",
"202 346 OFFCURVE",
"202 396 OFFCURVE",
"168 430 OFFCURVE",
"118 430 OFFCURVE",
"82 396 OFFCURVE",
"82 346 OFFCURVE",
"118 310 OFFCURVE"
);
}
);
width = 244;
}
);
note = semicolon;
unicode = 003B;
},
{
glyphname = less;
layers = (
{
layerId = "0276F023-BC64-4582-8657-390FE5DB601E";
paths = (
{
closed = 1;
nodes = (
"475 40 OFFCURVE",
"472 41 QCURVE",
"141 209 LINE",
"467 374 LINE",
"470 383 LINE",
"461 430 OFFCURVE",
"453 430 QCURVE SMOOTH",
"452 430 OFFCURVE",
"448 428 QCURVE SMOOTH",
"79 241 LINE SMOOTH",
"61 232 OFFCURVE",
"61 217 QCURVE SMOOTH",
"61 187 OFFCURVE",
"79 177 QCURVE",
"454 -13 LINE SMOOTH",
"458 -15 OFFCURVE",
"459 -15 QCURVE SMOOTH",
"463 -15 OFFCURVE",
"475 28 OFFCURVE",
"475 35 QCURVE SMOOTH"
);
}
);
width = 535;
}
);
note = less;
unicode = 003C;
},
{
glyphname = equal;
layers = (
{
layerId = "0276F023-BC64-4582-8657-390FE5DB601E";
paths = (
{
closed = 1;
nodes = (
"520 173 OFFCURVE",
"512 173 QCURVE SMOOTH",
"68 173 LINE",
"66 173 LINE SMOOTH",
"65 173 OFFCURVE",
"62 171 OFFCURVE",
"61 168 QCURVE",
"52 137 OFFCURVE",
"52 117 OFFCURVE",
"59 117 QCURVE SMOOTH",
"504 117 LINE",
"505 117 LINE SMOOTH",
"506 117 OFFCURVE",
"509 120 OFFCURVE",
"510 123 QCURVE",
"520 160 OFFCURVE",
"520 168 QCURVE SMOOTH"
);
},
{
closed = 1;
nodes = (
"52 259 OFFCURVE",
"59 259 QCURVE SMOOTH",
"504 259 LINE",
"505 259 LINE SMOOTH",
"506 259 OFFCURVE",
"509 262 OFFCURVE",
"510 265 QCURVE",
"520 302 OFFCURVE",
"520 310 QCURVE SMOOTH",
"520 315 OFFCURVE",
"516 315 QCURVE SMOOTH",
"67 315 LINE SMOOTH",
"57 315 OFFCURVE",
"52 269 QCURVE"
);
}
);
width = 571;
}
);
note = equal;
unicode = 003D;
},
{
glyphname = greater;
layers = (
{
layerId = "0276F023-BC64-4582-8657-390FE5DB601E";
paths = (
{
closed = 1;
nodes = (
"67 375 OFFCURVE",
"70 374 QCURVE",
"395 209 LINE",
"64 41 LINE",
"61 35 LINE",
"61 28 OFFCURVE",
"74 -15 OFFCURVE",
"78 -15 QCURVE SMOOTH",
"79 -15 OFFCURVE",
"83 -13 QCURVE SMOOTH",
"458 177 LINE SMOOTH",
"475 186 OFFCURVE",
"475 217 QCURVE SMOOTH",
"475 232 OFFCURVE",
"458 241 QCURVE SMOOTH",
"88 428 LINE SMOOTH",
"84 430 OFFCURVE",
"83 430 QCURVE SMOOTH",
"80 430 OFFCURVE",
"67 395 OFFCURVE",
"67 382 QCURVE SMOOTH"
);
}
);
width = 535;
}
);
note = greater;
unicode = 003E;
},
{
glyphname = question;
layers = (
{
layerId = "0276F023-BC64-4582-8657-390FE5DB601E";
paths = (
{
closed = 1;
nodes = (
"122 558 OFFCURVE",
"158 565 OFFCURVE",
"188 565 QCURVE SMOOTH",
"220 565 OFFCURVE",
"269 519 OFFCURVE",
"269 476 QCURVE SMOOTH",
"269 463 OFFCURVE",
"258 440 OFFCURVE",
"228 415 OFFCURVE",
"207 401 OFFCURVE",
"182 385 QCURVE",
"181 385 OFFCURVE",
"158 370 OFFCURVE",
"154 366 OFFCURVE",
"133 352 OFFCURVE",
"128 344 OFFCURVE",
"112 328 OFFCURVE",
"107 314 OFFCURVE",
"99 295 OFFCURVE",
"96 274 OFFCURVE",
"96 262 QCURVE SMOOTH",
"96 248 OFFCURVE",
"97 181 OFFCURVE",
"97 168 QCURVE SMOOTH",
"97 160 OFFCURVE",
"110 160 QCURVE SMOOTH",
"130 160 OFFCURVE",
"130 173 QCURVE SMOOTH",
"130 224 OFFCURVE",
"140 242 QCURVE",
"144 250 OFFCURVE",
"197 292 OFFCURVE",
"218 304 QCURVE SMOOTH",
"274 336 OFFCURVE",
"319 405 OFFCURVE",
"319 457 QCURVE SMOOTH",
"319 536 OFFCURVE",
"182 642 OFFCURVE",
"122 642 QCURVE SMOOTH",
"92 642 OFFCURVE",
"72 632 QCURVE",
"65 621 OFFCURVE",
"65 598 QCURVE SMOOTH",
"65 576 OFFCURVE",
"96 558 OFFCURVE",
"112 558 QCURVE SMOOTH"
);
},
{
closed = 1;
nodes = (
"141 -14 OFFCURVE",
"175 21 OFFCURVE",
"175 69 OFFCURVE",
"141 102 OFFCURVE",
"93 102 OFFCURVE",
"59 69 OFFCURVE",
"59 21 OFFCURVE",
"93 -14 OFFCURVE"
);
}
);
width = 366;
}
);
note = question;
unicode = 003F;
},
{
glyphname = at;
layers = (
{
layerId = "0276F023-BC64-4582-8657-390FE5DB601E";
paths = (
{
closed = 1;
nodes = (
"730 190 OFFCURVE",
"719 133 OFFCURVE",
"693 69 OFFCURVE",
"641 27 OFFCURVE",
"606 27 QCURVE SMOOTH",
"556 27 OFFCURVE",
"556 97 QCURVE SMOOTH",
"556 105 OFFCURVE",
"558 125 QCURVE SMOOTH",
"583 348 LINE",
"590 401 LINE",
"501 410 LINE",
"374 410 OFFCURVE",
"226 248 OFFCURVE",
"226 141 QCURVE SMOOTH",
"226 84 OFFCURVE",
"283 -7 OFFCURVE",
"335 -7 QCURVE SMOOTH",
"370 -7 OFFCURVE",
"464 63 OFFCURVE",
"480 90 QCURVE",
"481 91 OFFCURVE",
"485 93 OFFCURVE",
"485 92 QCURVE SMOOTH",
"485 57 OFFCURVE",
"549 -13 OFFCURVE",
"597 -13 QCURVE SMOOTH",
"629 -13 OFFCURVE",
"689 11 OFFCURVE",
"745 63 OFFCURVE",
"779 164 OFFCURVE",
"779 233 QCURVE SMOOTH",
"779 293 OFFCURVE",
"734 414 OFFCURVE",
"653 514 OFFCURVE",
"529 577 OFFCURVE",
"457 577 QCURVE SMOOTH",
"284 577 OFFCURVE",
"52 365 OFFCURVE",
"52 185 QCURVE SMOOTH",
"52 124 OFFCURVE",
"105 -2 OFFCURVE",
"198 -105 OFFCURVE",
"336 -171 OFFCURVE",
"414 -171 QCURVE SMOOTH",
"473 -171 OFFCURVE",
"542 -134 OFFCURVE",
"542 -114 QCURVE SMOOTH",
"542 -113 OFFCURVE",
"540 -104 QCURVE",
"534 -106 LINE",
"529 -109 OFFCURVE",
"514 -115 OFFCURVE",
"496 -122 OFFCURVE",
"477 -126 OFFCURVE",
"469 -126 QCURVE SMOOTH",
"289 -126 OFFCURVE",
"111 66 OFFCURVE",
"111 223 QCURVE SMOOTH",
"111 353 OFFCURVE",
"308 528 OFFCURVE",
"446 528 QCURVE SMOOTH",
"571 528 OFFCURVE",
"730 343 OFFCURVE",
"730 214 QCURVE SMOOTH"
);
},
{
closed = 1;
nodes = (
"506 328 OFFCURVE",
"505 322 QCURVE",
"490 170 LINE SMOOTH",
"488 146 OFFCURVE",
"402 53 OFFCURVE",
"363 53 QCURVE SMOOTH",
"340 53 OFFCURVE",
"304 96 OFFCURVE",
"304 143 QCURVE SMOOTH",
"304 244 OFFCURVE",
"391 359 OFFCURVE",
"455 359 QCURVE SMOOTH",
"478 359 OFFCURVE",
"502 351 OFFCURVE",
"506 342 OFFCURVE",
"506 334 QCURVE SMOOTH"
);
}
);
width = 819;
}
);
note = at;
unicode = 0040;
},
{
glyphname = A;
layers = (
{
layerId = "0276F023-BC64-4582-8657-390FE5DB601E";
paths = (
{
closed = 1;
nodes = (
"356 663 LINE",
"349 663 OFFCURVE",
"338 659 OFFCURVE",
"329 649 OFFCURVE",
"323 641 OFFCURVE",
"315 624 OFFCURVE",
"311 613 OFFCURVE",
"304 591 OFFCURVE",
"302 586 QCURVE SMOOTH",
"128 139 LINE SMOOTH",
"102 72 OFFCURVE",
"81 45 QCURVE SMOOTH",
"74 36 OFFCURVE",
"36 26 OFFCURVE",
"24 26 QCURVE SMOOTH",
"20 26 OFFCURVE",
"20 12 QCURVE SMOOTH",
"20 1 OFFCURVE",
"24 -3 QCURVE",
"41 -2 OFFCURVE",
"78 0 OFFCURVE",
"108 2 OFFCURVE",
"128 2 QCURVE SMOOTH",
"131 2 OFFCURVE",
"231 -3 QCURVE",
"233 2 OFFCURVE",
"232 26 OFFCURVE",
"229 26 QCURVE SMOOTH",
"220 26 OFFCURVE",
"180 35 OFFCURVE",
"171 42 QCURVE SMOOTH",
"163 48 OFFCURVE",
"163 62 QCURVE SMOOTH",
"163 81 OFFCURVE",
"180 131 QCURVE",
"223 241 LINE",
"228 244 LINE",
"303 249 OFFCURVE",
"355 249 QCURVE SMOOTH",
"392 249 OFFCURVE",
"431 246 QCURVE",
"434 246 OFFCURVE",
"437 242 QCURVE",
"478 129 LINE",
"482 118 LINE",
"485 108 OFFCURVE",
"492 73 OFFCURVE",
"492 60 QCURVE SMOOTH",
"492 52 OFFCURVE",
"490 44 QCURVE",
"487 36 OFFCURVE",
"451 26 OFFCURVE",
"439 26 QCURVE SMOOTH",
"435 26 OFFCURVE",
"434 1 OFFCURVE",
"438 -3 QCURVE",
"553 2 OFFCURVE",
"554 2 QCURVE SMOOTH",
"564 2 OFFCURVE",
"664 -3 QCURVE",
"666 3 OFFCURVE",
"666 7 QCURVE SMOOTH",
"666 26 OFFCURVE",
"662 26 QCURVE SMOOTH",
"650 26 OFFCURVE",
"600 45 OFFCURVE",
"594 60 QCURVE SMOOTH",
"583 85 OFFCURVE",
"565 132 QCURVE SMOOTH",
"365 660 LINE"
);
},
{
closed = 1;
nodes = (
"247 299 OFFCURVE",
"247 303 QCURVE",
"333 526 LINE",
"414 305 LINE",
"411 300 LINE",
"364 297 OFFCURVE",
"320 297 QCURVE SMOOTH",
"301 297 OFFCURVE",
"249 299 QCURVE"
);
}
);
width = 684;
}
);
note = A;
unicode = 0041;
},
{
glyphname = B;
layers = (
{
layerId = "0276F023-BC64-4582-8657-390FE5DB601E";
paths = (
{
closed = 1;
nodes = (
"457 133 OFFCURVE",
"415 76 OFFCURVE",
"347 53 OFFCURVE",
"298 45 OFFCURVE",
"273 45 QCURVE SMOOTH",
"234 45 OFFCURVE",
"219 59 QCURVE",
"203 72 OFFCURVE",
"203 148 QCURVE SMOOTH",
"203 294 LINE SMOOTH",
"203 315 OFFCURVE",
"207 327 QCURVE",
"257 331 OFFCURVE",
"279 331 QCURVE SMOOTH",
"371 331 OFFCURVE",
"457 240 OFFCURVE",
"457 176 QCURVE SMOOTH"
);
},
{
closed = 1;
nodes = (
"116 61 OFFCURVE",
"109 49 QCURVE SMOOTH",
"104 40 OFFCURVE",
"53 26 OFFCURVE",
"40 26 QCURVE SMOOTH",
"37 26 OFFCURVE",
"37 0 OFFCURVE",
"40 -3 QCURVE",
"161 0 LINE",
"298 0 LINE SMOOTH",
"413 0 OFFCURVE",
"552 101 OFFCURVE",
"552 187 QCURVE SMOOTH",
"552 254 OFFCURVE",
"444 353 OFFCURVE",
"405 360 QCURVE",
"402 363 OFFCURVE",
"410 366 QCURVE SMOOTH",
"424 371 OFFCURVE",
"463 395 OFFCURVE",
"509 457 OFFCURVE",
"509 529 OFFCURVE",
"481 588 OFFCURVE",
"437 624 OFFCURVE",
"380 648 OFFCURVE",
"326 657 OFFCURVE",
"300 657 QCURVE SMOOTH",
"275 657 OFFCURVE",
"210 656 OFFCURVE",
"159 656 QCURVE SMOOTH",
"92 656 OFFCURVE",
"40 658 QCURVE",
"36 654 OFFCURVE",
"36 641 QCURVE SMOOTH",
"36 629 OFFCURVE",
"40 629 QCURVE SMOOTH",
"53 629 OFFCURVE",
"106 615 OFFCURVE",
"109 607 QCURVE",
"116 580 OFFCURVE",
"116 521 QCURVE SMOOTH",
"116 143 LINE SMOOTH"
);
},
{
closed = 1;
nodes = (
"301 373 OFFCURVE",
"269 373 QCURVE SMOOTH",
"203 373 OFFCURVE",
"203 380 QCURVE SMOOTH",
"203 499 LINE",
"207 600 LINE",
"207 608 OFFCURVE",
"213 609 QCURVE",
"238 616 OFFCURVE",
"284 616 QCURVE SMOOTH",
"352 616 OFFCURVE",
"421 539 OFFCURVE",
"421 470 QCURVE SMOOTH",
"421 429 OFFCURVE",
"366 380 OFFCURVE",
"325 376 QCURVE SMOOTH"
);
}
);
width = 592;
}
);
note = B;
unicode = 0042;
},
{
glyphname = C;
layers = (
{
layerId = "0276F023-BC64-4582-8657-390FE5DB601E";
paths = (
{
closed = 1;
nodes = (
"629 186 LINE",
"624 188 OFFCURVE",
"607 192 OFFCURVE",
"601 192 QCURVE SMOOTH",
"598 192 OFFCURVE",
"587 159 OFFCURVE",
"566 110 OFFCURVE",
"552 95 QCURVE SMOOTH",
"498 37 OFFCURVE",
"399 37 QCURVE SMOOTH",
"316 37 OFFCURVE",
"195 126 OFFCURVE",
"139 262 OFFCURVE",
"139 343 QCURVE SMOOTH",
"139 452 OFFCURVE",
"277 625 OFFCURVE",
"375 625 QCURVE SMOOTH",
"422 625 OFFCURVE",
"497 602 OFFCURVE",
"538 571 OFFCURVE",
"567 528 OFFCURVE",
"576 501 OFFCURVE",
"579 488 QCURVE",
"582 483 OFFCURVE",
"592 483 QCURVE SMOOTH",
"613 483 OFFCURVE",
"613 498 QCURVE SMOOTH",
"613 508 OFFCURVE",
"615 642 QCURVE",
"490 667 OFFCURVE",
"372 667 QCURVE SMOOTH",
"234 667 OFFCURVE",
"44 464 OFFCURVE",
"44 322 QCURVE SMOOTH",
"44 188 OFFCURVE",
"229 -6 OFFCURVE",
"361 -6 QCURVE SMOOTH",
"527 -6 OFFCURVE",
"600 38 QCURVE",
"606 41 OFFCURVE",
"634 172 OFFCURVE",
"634 183 QCURVE"
);
}
);
width = 656;
}
);
note = C;
unicode = 0043;
},
{
glyphname = D;
layers = (
{
layerId = "0276F023-BC64-4582-8657-390FE5DB601E";
paths = (
{
closed = 1;
nodes = (
"90 656 OFFCURVE",
"38 658 QCURVE",
"34 654 OFFCURVE",
"34 641 QCURVE SMOOTH",
"34 629 OFFCURVE",
"38 629 QCURVE SMOOTH",
"51 629 OFFCURVE",
"104 615 OFFCURVE",
"107 607 QCURVE",
"114 580 OFFCURVE",
"114 521 QCURVE SMOOTH",
"114 143 LINE SMOOTH",
"114 61 OFFCURVE",
"107 49 QCURVE SMOOTH",
"102 40 OFFCURVE",
"51 26 OFFCURVE",
"38 26 QCURVE SMOOTH",
"35 26 OFFCURVE",
"35 12 QCURVE SMOOTH",
"35 0 OFFCURVE",
"38 -3 QCURVE",
"159 0 LINE SMOOTH",
"199 1 OFFCURVE",
"318 -3 OFFCURVE",
"330 -3 QCURVE SMOOTH",
"492 -3 OFFCURVE",
"676 191 OFFCURVE",
"676 336 QCURVE SMOOTH",
"676 466 OFFCURVE",
"494 658 OFFCURVE",
"331 658 QCURVE SMOOTH",
"312 658 OFFCURVE",
"195 656 OFFCURVE",
"157 656 QCURVE SMOOTH"
);
},
{
closed = 1;
nodes = (
"201 580 OFFCURVE",
"214 598 QCURVE SMOOTH",
"226 614 OFFCURVE",
"334 614 QCURVE SMOOTH",
"339 614 LINE SMOOTH",
"455 614 OFFCURVE",
"576 454 OFFCURVE",
"576 340 QCURVE SMOOTH",
"576 43 OFFCURVE",
"346 43 QCURVE SMOOTH",
"319 43 OFFCURVE",
"220 53 OFFCURVE",
"216 63 QCURVE",
"201 97 OFFCURVE",
"201 139 QCURVE SMOOTH",
"201 535 LINE SMOOTH"
);
}
);
width = 722;
}
);
note = D;
unicode = 0044;
},
{
glyphname = E;
layers = (
{
layerId = "0276F023-BC64-4582-8657-390FE5DB601E";
paths = (
{
closed = 1;
nodes = (
"85 656 OFFCURVE",
"33 658 QCURVE",
"29 654 OFFCURVE",
"29 641 QCURVE SMOOTH",
"29 629 OFFCURVE",
"33 629 QCURVE SMOOTH",
"46 629 OFFCURVE",
"99 615 OFFCURVE",
"102 607 QCURVE",
"109 580 OFFCURVE",
"109 521 QCURVE SMOOTH",
"109 143 LINE SMOOTH",
"109 61 OFFCURVE",
"102 49 QCURVE SMOOTH",
"97 40 OFFCURVE",
"46 26 OFFCURVE",
"33 26 QCURVE SMOOTH",
"30 26 OFFCURVE",
"30 0 OFFCURVE",
"33 -3 QCURVE",
"154 0 LINE SMOOTH",
"224 0 OFFCURVE",
"444 -4 OFFCURVE",
"495 -4 QCURVE",
"497 11 OFFCURVE",
"511 57 OFFCURVE",
"523 92 OFFCURVE",
"544 149 OFFCURVE",
"549 162 QCURVE",
"543 168 OFFCURVE",
"524 168 QCURVE SMOOTH",
"512 168 OFFCURVE",
"510 162 QCURVE",
"499 124 OFFCURVE",
"462 69 OFFCURVE",
"447 61 QCURVE SMOOTH",
"414 44 OFFCURVE",
"321 44 QCURVE SMOOTH",
"273 44 LINE SMOOTH",
"208 44 OFFCURVE",
"205 54 QCURVE",
"196 80 OFFCURVE",
"196 145 QCURVE SMOOTH",
"196 300 LINE SMOOTH",
"196 309 OFFCURVE",
"268 309 QCURVE SMOOTH",
"361 309 OFFCURVE",
"374 301 QCURVE",
"380 297 OFFCURVE",
"385 292 OFFCURVE",
"395 265 OFFCURVE",
"402 238 QCURVE",
"405 230 OFFCURVE",
"418 230 QCURVE SMOOTH",
"430 230 OFFCURVE",
"434 234 QCURVE",
"434 423 LINE",
"429 428 OFFCURVE",
"417 428 QCURVE SMOOTH",
"403 428 OFFCURVE",
"402 421 QCURVE",
"396 398 OFFCURVE",
"394 387 OFFCURVE",
"381 363 OFFCURVE",
"373 361 OFFCURVE",
"345 353 OFFCURVE",
"320 353 OFFCURVE",
"292 353 QCURVE SMOOTH",
"239 353 LINE SMOOTH",
"196 353 OFFCURVE",
"196 359 QCURVE SMOOTH",
"196 519 LINE SMOOTH",
"196 579 OFFCURVE",
"201 603 QCURVE",
"203 616 OFFCURVE",
"289 616 QCURVE SMOOTH",
"356 616 LINE SMOOTH",
"403 616 OFFCURVE",
"457 585 OFFCURVE",
"472 530 QCURVE",
"473 523 OFFCURVE",
"499 523 OFFCURVE",
"504 528 QCURVE",
"502 540 OFFCURVE",
"479 635 OFFCURVE",
"475 664 QCURVE",
"419 664 OFFCURVE",
"197 656 OFFCURVE",
"152 656 QCURVE SMOOTH"
);
}
);
width = 571;
}
);
note = E;
unicode = 0045;
},
{
glyphname = F;
layers = (
{
layerId = "0276F023-BC64-4582-8657-390FE5DB601E";
paths = (
{
closed = 1;
nodes = (
"96 656 OFFCURVE",
"44 658 QCURVE",
"40 654 OFFCURVE",
"40 641 QCURVE SMOOTH",
"40 629 OFFCURVE",
"44 629 QCURVE SMOOTH",
"57 629 OFFCURVE",
"110 615 OFFCURVE",
"113 607 QCURVE",
"120 580 OFFCURVE",
"120 521 QCURVE SMOOTH",
"120 136 LINE SMOOTH",
"120 73 OFFCURVE",
"113 46 QCURVE",
"110 38 OFFCURVE",
"59 26 OFFCURVE",
"46 26 QCURVE SMOOTH",
"42 26 OFFCURVE",
"42 12 QCURVE SMOOTH",
"42 1 OFFCURVE",
"46 -3 QCURVE",
"161 2 OFFCURVE",
"166 2 QCURVE SMOOTH",
"182 2 OFFCURVE",
"282 -3 QCURVE",
"284 3 OFFCURVE",
"284 11 QCURVE SMOOTH",
"284 26 OFFCURVE",
"280 26 QCURVE SMOOTH",
"270 26 OFFCURVE",
"218 39 OFFCURVE",
"216 46 QCURVE SMOOTH",
"207 81 OFFCURVE",
"207 139 QCURVE SMOOTH",
"207 297 LINE SMOOTH",
"207 306 OFFCURVE",
"278 306 QCURVE SMOOTH",
"371 306 OFFCURVE",
"384 298 QCURVE",
"390 294 OFFCURVE",
"395 289 OFFCURVE",
"405 262 OFFCURVE",
"412 235 QCURVE",
"415 227 OFFCURVE",
"428 227 QCURVE SMOOTH",
"440 227 OFFCURVE",
"444 231 QCURVE",
"444 425 LINE",
"439 430 OFFCURVE",
"427 430 QCURVE SMOOTH",
"413 430 OFFCURVE",
"412 423 QCURVE",
"411 420 OFFCURVE",
"410 414 QCURVE",
"399 369 OFFCURVE",
"369 350 OFFCURVE",
"302 350 QCURVE SMOOTH",
"249 350 LINE SMOOTH",
"207 350 OFFCURVE",
"207 356 QCURVE SMOOTH",
"207 519 LINE SMOOTH",
"207 579 OFFCURVE",
"212 603 QCURVE",
"214 616 OFFCURVE",
"300 616 QCURVE SMOOTH",
"367 616 LINE SMOOTH",
"414 616 OFFCURVE",
"468 585 OFFCURVE",
"483 530 QCURVE",
"484 523 OFFCURVE",
"510 523 OFFCURVE",
"515 528 QCURVE",
"513 540 OFFCURVE",
"490 635 OFFCURVE",
"486 664 QCURVE",
"430 664 OFFCURVE",
"208 656 OFFCURVE",
"163 656 QCURVE SMOOTH"
);
}
);
width = 551;
}
);
note = F;
unicode = 0046;
},
{
glyphname = G;
layers = (
{
layerId = "0276F023-BC64-4582-8657-390FE5DB601E";
paths = (
{
closed = 1;
nodes = (
"44 188 OFFCURVE",
"229 -6 OFFCURVE",
"361 -6 QCURVE SMOOTH",
"387 -6 OFFCURVE",
"434 -3 OFFCURVE",
"469 0 OFFCURVE",
"508 8 OFFCURVE",
"529 12 OFFCURVE",
"564 23 OFFCURVE",
"574 27 OFFCURVE",
"609 40 OFFCURVE",
"611 41 QCURVE",
"636 51 OFFCURVE",
"636 59 QCURVE SMOOTH",
"636 62 OFFCURVE",
"622 96 OFFCURVE",
"622 114 QCURVE SMOOTH",
"622 116 OFFCURVE",
"619 165 OFFCURVE",
"619 186 QCURVE SMOOTH",
"619 246 OFFCURVE",
"629 253 QCURVE",
"638 258 OFFCURVE",
"681 271 OFFCURVE",
"687 271 QCURVE SMOOTH",
"691 271 OFFCURVE",
"691 286 QCURVE SMOOTH",
"691 294 OFFCURVE",
"689 300 QCURVE",
"589 295 OFFCURVE",
"581 295 QCURVE SMOOTH",
"578 295 OFFCURVE",
"450 300 QCURVE",
"446 296 OFFCURVE",
"446 271 OFFCURVE",
"450 271 QCURVE SMOOTH",
"466 271 OFFCURVE",
"523 259 OFFCURVE",
"527 249 QCURVE SMOOTH",
"535 228 OFFCURVE",
"535 163 QCURVE SMOOTH",
"535 156 LINE",
"536 74 LINE SMOOTH",
"536 62 OFFCURVE",
"529 59 QCURVE",
"487 37 OFFCURVE",
"399 37 QCURVE SMOOTH",
"288 37 OFFCURVE",
"141 224 OFFCURVE",
"141 335 QCURVE SMOOTH",
"141 455 OFFCURVE",
"275 625 OFFCURVE",
"375 625 QCURVE SMOOTH",
"552 625 OFFCURVE",
"579 488 QCURVE",
"582 483 OFFCURVE",
"592 483 QCURVE SMOOTH",
"613 483 OFFCURVE",
"613 498 QCURVE SMOOTH",
"613 508 OFFCURVE",
"609 622 QCURVE",
"443 667 OFFCURVE",
"372 667 QCURVE SMOOTH",
"234 667 OFFCURVE",
"44 464 OFFCURVE",
"44 322 QCURVE SMOOTH"
);
}
);
width = 715;
}
);
note = G;
unicode = 0047;
},
{
glyphname = H;
layers = (
{
layerId = "0276F023-BC64-4582-8657-390FE5DB601E";
paths = (
{
closed = 1;
nodes = (
"507 73 OFFCURVE",
"500 46 QCURVE",
"497 38 OFFCURVE",
"446 26 OFFCURVE",
"433 26 QCURVE SMOOTH",
"429 26 OFFCURVE",
"429 1 OFFCURVE",
"433 -3 QCURVE",
"548 2 OFFCURVE",
"554 2 QCURVE SMOOTH",
"568 2 OFFCURVE",
"668 -3 QCURVE",
"670 3 OFFCURVE",
"670 11 QCURVE SMOOTH",
"670 26 OFFCURVE",
"666 26 QCURVE SMOOTH",
"656 26 OFFCURVE",
"604 39 OFFCURVE",
"602 46 QCURVE SMOOTH",
"594 77 OFFCURVE",
"594 139 QCURVE SMOOTH",
"594 519 LINE SMOOTH",
"594 581 OFFCURVE",
"602 612 QCURVE SMOOTH",
"604 619 OFFCURVE",
"656 633 OFFCURVE",
"666 633 QCURVE SMOOTH",
"670 633 OFFCURVE",
"670 647 QCURVE SMOOTH",
"670 656 OFFCURVE",
"668 662 QCURVE",
"654 661 OFFCURVE",
"611 658 OFFCURVE",
"573 656 OFFCURVE",
"554 656 QCURVE SMOOTH",
"527 656 OFFCURVE",
"445 661 OFFCURVE",
"433 662 QCURVE",
"429 658 OFFCURVE",
"429 633 OFFCURVE",
"433 633 QCURVE SMOOTH",
"446 633 OFFCURVE",
"497 620 OFFCURVE",
"500 612 QCURVE",
"507 585 OFFCURVE",
"507 523 QCURVE SMOOTH",
"507 371 LINE SMOOTH",
"507 369 OFFCURVE",
"505 367 QCURVE",
"415 365 OFFCURVE",
"357 365 QCURVE SMOOTH",
"303 365 OFFCURVE",
"205 367 QCURVE",
"203 370 LINE",
"203 519 LINE SMOOTH",
"203 577 OFFCURVE",
"212 612 QCURVE SMOOTH",
"214 619 OFFCURVE",
"266 633 OFFCURVE",
"276 633 QCURVE SMOOTH",
"279 633 OFFCURVE",
"280 658 OFFCURVE",
"278 662 QCURVE",
"264 661 OFFCURVE",
"220 658 OFFCURVE",
"182 656 OFFCURVE",
"162 656 QCURVE SMOOTH",
"135 656 OFFCURVE",
"55 661 OFFCURVE",
"42 662 QCURVE",
"38 658 OFFCURVE",
"38 646 QCURVE SMOOTH",
"38 633 OFFCURVE",
"42 633 QCURVE SMOOTH",
"55 633 OFFCURVE",
"106 620 OFFCURVE",
"109 612 QCURVE",
"116 585 OFFCURVE",
"116 523 QCURVE SMOOTH",
"116 135 LINE SMOOTH",
"116 73 OFFCURVE",
"109 46 QCURVE",
"106 38 OFFCURVE",
"55 26 OFFCURVE",
"42 26 QCURVE SMOOTH",
"38 26 OFFCURVE",
"38 12 QCURVE SMOOTH",
"38 1 OFFCURVE",
"42 -3 QCURVE",
"157 2 OFFCURVE",
"162 2 QCURVE SMOOTH",
"178 2 OFFCURVE",
"278 -3 QCURVE",
"280 2 OFFCURVE",
"279 26 OFFCURVE",
"276 26 QCURVE SMOOTH",
"266 26 OFFCURVE",
"214 39 OFFCURVE",
"212 46 QCURVE SMOOTH",
"203 81 OFFCURVE",
"203 139 QCURVE SMOOTH",
"203 312 LINE SMOOTH",
"203 317 OFFCURVE",
"357 317 QCURVE SMOOTH",
"411 317 OFFCURVE",
"505 315 QCURVE",
"507 311 OFFCURVE",
"507 311 QCURVE",
"507 135 LINE SMOOTH"
);
}
);
width = 707;
}
);
note = H;
unicode = 0048;
},
{
glyphname = I;
layers = (
{
layerId = "0276F023-BC64-4582-8657-390FE5DB601E";
paths = (
{
closed = 1;
nodes = (
"116 135 LINE SMOOTH",
"116 73 OFFCURVE",
"109 46 QCURVE",
"106 38 OFFCURVE",
"55 26 OFFCURVE",
"42 26 QCURVE SMOOTH",
"38 26 OFFCURVE",
"38 12 QCURVE SMOOTH",
"38 1 OFFCURVE",
"42 -3 QCURVE",
"157 2 OFFCURVE",
"162 2 QCURVE SMOOTH",
"178 2 OFFCURVE",
"278 -3 QCURVE",
"280 3 OFFCURVE",
"280 11 QCURVE SMOOTH",
"280 26 OFFCURVE",
"276 26 QCURVE SMOOTH",
"266 26 OFFCURVE",
"214 39 OFFCURVE",
"212 46 QCURVE SMOOTH",
"203 81 OFFCURVE",
"203 139 QCURVE SMOOTH",
"203 519 LINE SMOOTH",
"203 577 OFFCURVE",
"212 612 QCURVE SMOOTH",
"214 619 OFFCURVE",
"266 633 OFFCURVE",
"276 633 QCURVE SMOOTH",
"280 633 OFFCURVE",
"280 647 QCURVE SMOOTH",
"280 656 OFFCURVE",
"278 662 QCURVE",
"178 657 OFFCURVE",
"162 657 QCURVE SMOOTH",
"157 657 OFFCURVE",
"42 662 QCURVE",
"38 658 OFFCURVE",
"38 646 QCURVE SMOOTH",
"38 633 OFFCURVE",
"42 633 QCURVE SMOOTH",
"55 633 OFFCURVE",
"106 620 OFFCURVE",
"109 612 QCURVE",
"116 585 OFFCURVE",
"116 523 QCURVE SMOOTH"
);
}
);
width = 318;
}
);
note = I;
unicode = 0049;
},
{
glyphname = J;
layers = (
{
layerId = "0276F023-BC64-4582-8657-390FE5DB601E";
paths = (
{
closed = 1;
nodes = (
"151 656 OFFCURVE",
"71 661 OFFCURVE",
"58 662 QCURVE",
"54 658 OFFCURVE",
"54 646 QCURVE SMOOTH",
"54 633 OFFCURVE",
"58 633 QCURVE SMOOTH",
"71 633 OFFCURVE",
"122 620 OFFCURVE",
"125 612 QCURVE",
"132 585 OFFCURVE",
"132 523 QCURVE SMOOTH",
"132 77 LINE SMOOTH",
"132 14 OFFCURVE",
"114 -85 OFFCURVE",
"86 -139 OFFCURVE",
"57 -167 OFFCURVE",
"43 -167 QCURVE SMOOTH",
"30 -167 OFFCURVE",
"-15 -124 OFFCURVE",
"-33 -124 QCURVE SMOOTH",
"-58 -124 OFFCURVE",
"-95 -152 OFFCURVE",
"-95 -174 QCURVE SMOOTH",
"-95 -197 OFFCURVE",
"-83 -211 QCURVE",
"-76 -215 LINE",
"-68 -219 OFFCURVE",
"-42 -227 OFFCURVE",
"-31 -227 QCURVE SMOOTH",
"78 -227 OFFCURVE",
"219 -41 OFFCURVE",
"219 85 QCURVE SMOOTH",
"219 519 LINE SMOOTH",
"219 577 OFFCURVE",
"228 612 QCURVE SMOOTH",
"230 619 OFFCURVE",
"282 633 OFFCURVE",
"292 633 QCURVE SMOOTH",
"296 633 OFFCURVE",
"296 647 QCURVE SMOOTH",
"296 656 OFFCURVE",
"294 662 QCURVE",
"280 661 OFFCURVE",
"236 658 OFFCURVE",
"198 656 OFFCURVE",
"178 656 QCURVE SMOOTH"
);
}
);
width = 322;
}
);
note = J;
unicode = 004A;
},
{
glyphname = K;
layers = (
{
layerId = "0276F023-BC64-4582-8657-390FE5DB601E";
paths = (
{
closed = 1;
nodes = (
"138 656 OFFCURVE",
"58 661 OFFCURVE",
"45 662 QCURVE",
"41 658 OFFCURVE",
"41 646 QCURVE SMOOTH",
"41 633 OFFCURVE",
"45 633 QCURVE SMOOTH",
"58 633 OFFCURVE",
"109 620 OFFCURVE",
"112 612 QCURVE",
"119 585 OFFCURVE",
"119 523 QCURVE SMOOTH",
"119 135 LINE SMOOTH",
"119 73 OFFCURVE",
"112 46 QCURVE",
"109 38 OFFCURVE",
"58 26 OFFCURVE",
"45 26 QCURVE SMOOTH",
"41 26 OFFCURVE",
"41 12 QCURVE SMOOTH",
"41 1 OFFCURVE",
"45 -3 QCURVE",
"160 2 OFFCURVE",
"165 2 QCURVE SMOOTH",
"181 2 OFFCURVE",
"281 -3 QCURVE",
"283 2 OFFCURVE",
"282 26 OFFCURVE",
"279 26 QCURVE SMOOTH",
"269 26 OFFCURVE",
"217 39 OFFCURVE",
"215 46 QCURVE SMOOTH",
"206 81 OFFCURVE",
"206 139 QCURVE SMOOTH",
"206 303 LINE SMOOTH",
"206 311 OFFCURVE",
"213 311 QCURVE SMOOTH",
"238 311 OFFCURVE",
"242 307 QCURVE SMOOTH",
"469 74 OFFCURVE",
"469 42 QCURVE SMOOTH",
"469 34 OFFCURVE",
"438 26 OFFCURVE",
"426 26 QCURVE SMOOTH",
"422 26 OFFCURVE",
"422 1 OFFCURVE",
"426 -3 QCURVE",
"446 -2 OFFCURVE",
"496 0 OFFCURVE",
"536 2 OFFCURVE",
"561 2 QCURVE SMOOTH",
"585 2 OFFCURVE",
"685 -3 QCURVE",
"687 1 OFFCURVE",
"687 8 QCURVE SMOOTH",
"687 26 OFFCURVE",
"682 26 QCURVE SMOOTH",
"673 26 OFFCURVE",
"644 30 OFFCURVE",
"592 52 OFFCURVE",
"576 69 QCURVE SMOOTH",
"335 334 LINE",
"320 352 OFFCURVE",
"328 361 QCURVE SMOOTH",
"529 595 LINE SMOOTH",
"560 630 OFFCURVE",
"621 637 QCURVE",
"624 637 OFFCURVE",
"625 658 OFFCURVE",
"623 662 QCURVE",
"611 661 OFFCURVE",
"547 656 OFFCURVE",
"522 656 QCURVE SMOOTH",
"506 656 OFFCURVE",
"470 658 OFFCURVE",
"428 661 OFFCURVE",
"415 662 QCURVE",
"413 655 OFFCURVE",
"413 637 OFFCURVE",
"417 637 QCURVE SMOOTH",
"474 637 OFFCURVE",
"474 620 QCURVE SMOOTH",
"474 611 OFFCURVE",
"450 582 QCURVE",
"395 510 OFFCURVE",
"278 379 QCURVE SMOOTH",
"252 350 OFFCURVE",
"220 350 QCURVE SMOOTH",
"213 350 LINE",
"206 356 LINE",
"206 519 LINE SMOOTH",
"206 577 OFFCURVE",
"215 612 QCURVE SMOOTH",
"217 619 OFFCURVE",
"269 633 OFFCURVE",
"279 633 QCURVE SMOOTH",
"282 633 OFFCURVE",
"283 658 OFFCURVE",
"281 662 QCURVE",
"267 661 OFFCURVE",
"223 658 OFFCURVE",
"185 656 OFFCURVE",
"165 656 QCURVE SMOOTH"
);
}
);
width = 693;
}
);
note = K;
unicode = 004B;
},
{
glyphname = L;
layers = (
{
layerId = "0276F023-BC64-4582-8657-390FE5DB601E";
paths = (
{
closed = 1;
nodes = (
"134 656 OFFCURVE",
"54 661 OFFCURVE",
"41 662 QCURVE",
"37 658 OFFCURVE",
"37 646 QCURVE SMOOTH",
"37 633 OFFCURVE",
"41 633 QCURVE SMOOTH",
"54 633 OFFCURVE",
"105 620 OFFCURVE",
"108 612 QCURVE",
"115 585 OFFCURVE",
"115 521 QCURVE SMOOTH",
"115 143 LINE SMOOTH",
"115 61 OFFCURVE",
"108 49 QCURVE SMOOTH",
"103 40 OFFCURVE",
"53 28 OFFCURVE",
"39 28 QCURVE SMOOTH",
"36 28 OFFCURVE",
"36 2 OFFCURVE",
"39 -1 QCURVE",
"160 2 LINE SMOOTH",
"228 2 OFFCURVE",
"449 -4 OFFCURVE",
"501 -4 QCURVE",
"503 11 OFFCURVE",
"517 57 OFFCURVE",
"529 92 OFFCURVE",
"550 149 OFFCURVE",
"555 162 QCURVE",
"549 168 OFFCURVE",
"530 168 QCURVE SMOOTH",
"518 168 OFFCURVE",
"516 162 QCURVE",
"505 124 OFFCURVE",
"468 69 OFFCURVE",
"453 61 QCURVE SMOOTH",
"420 44 OFFCURVE",
"327 44 QCURVE SMOOTH",
"279 44 LINE SMOOTH",
"214 44 OFFCURVE",
"211 54 QCURVE",
"202 89 OFFCURVE",
"202 142 QCURVE SMOOTH",
"202 519 LINE SMOOTH",
"202 577 OFFCURVE",
"211 612 QCURVE SMOOTH",
"213 619 OFFCURVE",
"265 633 OFFCURVE",
"275 633 QCURVE SMOOTH",
"279 633 OFFCURVE",
"279 647 QCURVE SMOOTH",
"279 656 OFFCURVE",
"277 662 QCURVE",
"263 661 OFFCURVE",
"219 658 OFFCURVE",
"181 656 OFFCURVE",
"161 656 QCURVE SMOOTH"
);
}
);
width = 568;
}
);
note = L;
unicode = 004C;
},
{
glyphname = M;
layers = (
{
layerId = "0276F023-BC64-4582-8657-390FE5DB601E";
paths = (
{
closed = 1;
nodes = (
"147 657 OFFCURVE",
"113 659 OFFCURVE",
"72 661 OFFCURVE",
"55 662 QCURVE",
"51 658 OFFCURVE",
"51 647 QCURVE SMOOTH",
"51 633 OFFCURVE",
"55 633 QCURVE SMOOTH",
"69 633 OFFCURVE",
"131 620 OFFCURVE",
"134 612 QCURVE",
"138 597 OFFCURVE",
"138 572 QCURVE SMOOTH",
"138 556 OFFCURVE",
"134 441 OFFCURVE",
"129 239 OFFCURVE",
"127 135 QCURVE SMOOTH",
"125 66 OFFCURVE",
"109 48 QCURVE",
"100 39 OFFCURVE",
"45 26 OFFCURVE",
"31 26 QCURVE SMOOTH",
"26 26 OFFCURVE",
"26 12 QCURVE SMOOTH",
"26 2 OFFCURVE",
"31 -3 QCURVE",
"146 2 OFFCURVE",
"148 2 QCURVE SMOOTH",
"164 2 OFFCURVE",
"264 -3 QCURVE",
"266 3 OFFCURVE",
"266 11 QCURVE SMOOTH",
"266 26 OFFCURVE",
"262 26 QCURVE SMOOTH",
"252 26 OFFCURVE",
"191 41 OFFCURVE",
"179 57 OFFCURVE",
"179 75 QCURVE SMOOTH",
"179 77 OFFCURVE",
"185 238 OFFCURVE",
"193 486 OFFCURVE",
"195 582 QCURVE",
"424 0 LINE",
"430 -2 OFFCURVE",
"433 -2 QCURVE SMOOTH",
"451 -2 OFFCURVE",
"470 41 QCURVE SMOOTH",
"679 541 LINE SMOOTH",
"682 548 OFFCURVE",
"684 548 QCURVE SMOOTH",
"689 548 OFFCURVE",
"698 505 OFFCURVE",
"699 489 QCURVE SMOOTH",
"711 137 LINE",
"711 84 LINE SMOOTH",
"711 48 OFFCURVE",
"699 41 QCURVE SMOOTH",
"690 36 OFFCURVE",
"649 26 OFFCURVE",
"639 26 QCURVE SMOOTH",
"635 26 OFFCURVE",
"635 13 QCURVE SMOOTH",
"635 1 OFFCURVE",
"639 -3 QCURVE",
"754 2 OFFCURVE",
"759 2 QCURVE SMOOTH",
"778 2 OFFCURVE",
"878 -3 QCURVE",
"880 3 OFFCURVE",
"880 12 QCURVE SMOOTH",
"880 26 OFFCURVE",
"876 26 QCURVE SMOOTH",
"865 26 OFFCURVE",
"813 39 OFFCURVE",
"809 48 QCURVE",
"795 83 OFFCURVE",
"794 140 QCURVE SMOOTH",
"785 530 OFFCURVE",
"785 546 QCURVE SMOOTH",
"785 604 OFFCURVE",
"797 613 QCURVE SMOOTH",
"806 620 OFFCURVE",
"842 633 OFFCURVE",
"853 633 QCURVE SMOOTH",
"855 633 LINE SMOOTH",
"860 633 OFFCURVE",
"860 647 QCURVE SMOOTH",
"860 653 OFFCURVE",
"857 662 QCURVE",
"807 658 OFFCURVE",
"745 658 QCURVE SMOOTH",
"726 658 OFFCURVE",
"662 662 QCURVE",
"622 542 OFFCURVE",
"622 542 QCURVE",
"564 393 OFFCURVE",
"466 163 QCURVE",
"465 159 OFFCURVE",
"461 159 QCURVE SMOOTH",
"458 159 OFFCURVE",
"457 161 QCURVE",
"266 639 OFFCURVE",
"259 662 QCURVE",
"204 657 OFFCURVE",
"167 657 QCURVE SMOOTH"
);
}
);
width = 910;
}
);
note = M;
unicode = 004D;
},
{
glyphname = N;
layers = (
{
layerId = "0276F023-BC64-4582-8657-390FE5DB601E";
paths = (
{
closed = 1;
nodes = (
"551 213 LINE SMOOTH",
"551 189 OFFCURVE",
"548 172 QCURVE",
"246 594 OFFCURVE",
"209 662 QCURVE",
"181 660 OFFCURVE",
"129 660 QCURVE SMOOTH",
"105 660 OFFCURVE",
"27 662 QCURVE",
"23 658 OFFCURVE",
"23 633 OFFCURVE",
"27 633 QCURVE SMOOTH",
"41 633 OFFCURVE",
"103 620 OFFCURVE",
"106 612 QCURVE",
"113 586 OFFCURVE",
"113 537 QCURVE SMOOTH",
"113 144 LINE SMOOTH",
"113 76 OFFCURVE",
"103 50 QCURVE",
"100 41 OFFCURVE",
"37 26 OFFCURVE",
"23 26 QCURVE SMOOTH",
"20 26 OFFCURVE",
"20 12 QCURVE SMOOTH",
"20 0 OFFCURVE",
"23 -3 QCURVE",
"138 2 LINE",
"153 2 OFFCURVE",
"253 -3 QCURVE",
"255 2 OFFCURVE",
"254 26 OFFCURVE",
"251 26 QCURVE SMOOTH",
"241 26 OFFCURVE",
"178 41 OFFCURVE",
"176 48 QCURVE SMOOTH",
"169 75 OFFCURVE",
"169 141 QCURVE SMOOTH",
"169 568 LINE",
"557 18 LINE SMOOTH",
"573 -5 OFFCURVE",
"590 -5 QCURVE SMOOTH",
"605 -5 OFFCURVE",
"609 -1 QCURVE",
"606 77 OFFCURVE",
"606 139 QCURVE SMOOTH",
"606 519 LINE SMOOTH",
"606 581 OFFCURVE",
"614 612 QCURVE SMOOTH",
"616 619 OFFCURVE",
"683 635 OFFCURVE",
"693 635 QCURVE SMOOTH",
"697 635 OFFCURVE",
"697 647 QCURVE SMOOTH",
"697 656 OFFCURVE",
"695 662 QCURVE",
"688 662 OFFCURVE",
"609 656 OFFCURVE",
"583 656 QCURVE SMOOTH",
"556 656 OFFCURVE",
"478 661 OFFCURVE",
"465 662 QCURVE",
"461 658 OFFCURVE",
"461 635 OFFCURVE",
"465 635 QCURVE SMOOTH",
"478 635 OFFCURVE",
"541 620 OFFCURVE",
"544 612 QCURVE",
"551 585 OFFCURVE",
"551 524 QCURVE SMOOTH"
);
}
);
width = 721;
}
);
note = N;
unicode = 004E;
},
{
glyphname = O;
layers = (
{
layerId = "0276F023-BC64-4582-8657-390FE5DB601E";
paths = (
{
closed = 1;
nodes = (
"422 625 OFFCURVE",
"532 530 OFFCURVE",
"584 389 OFFCURVE",
"584 309 QCURVE SMOOTH",
"584 239 OFFCURVE",
"539 116 OFFCURVE",
"443 33 OFFCURVE",
"379 33 QCURVE SMOOTH",
"305 33 OFFCURVE",
"195 128 OFFCURVE",
"143 270 OFFCURVE",
"143 350 QCURVE SMOOTH",
"143 459 OFFCURVE",
"253 625 OFFCURVE",
"348 625 QCURVE SMOOTH"
);
},
{
closed = 1;
nodes = (
"495 -10 OFFCURVE",
"683 188 OFFCURVE",
"683 468 OFFCURVE",
"495 667 OFFCURVE",
"231 667 OFFCURVE",
"44 468 OFFCURVE",
"44 188 OFFCURVE",
"231 -10 OFFCURVE"
);
}
);
width = 728;
}
);
note = O;
unicode = 004F;
},
{
glyphname = P;
layers = (
{
layerId = "0276F023-BC64-4582-8657-390FE5DB601E";
paths = (
{
closed = 1;
nodes = (
"44 658 LINE",
"40 654 OFFCURVE",
"40 641 QCURVE SMOOTH",
"40 629 OFFCURVE",
"44 629 QCURVE SMOOTH",
"57 629 OFFCURVE",
"110 615 OFFCURVE",
"113 607 QCURVE",
"120 580 OFFCURVE",
"120 521 QCURVE SMOOTH",
"120 143 LINE SMOOTH",
"120 61 OFFCURVE",
"113 49 QCURVE SMOOTH",
"108 40 OFFCURVE",
"58 28 OFFCURVE",
"44 28 QCURVE SMOOTH",
"41 28 OFFCURVE",
"41 15 QCURVE SMOOTH",
"41 0 OFFCURVE",
"44 -3 QCURVE",
"166 2 LINE",
"196 2 OFFCURVE",
"296 -3 QCURVE",
"298 3 OFFCURVE",
"298 12 QCURVE SMOOTH",
"298 26 OFFCURVE",
"294 26 QCURVE SMOOTH",
"281 26 OFFCURVE",
"220 42 OFFCURVE",
"215 55 QCURVE SMOOTH",
"207 75 OFFCURVE",
"207 142 QCURVE SMOOTH",
"207 499 LINE SMOOTH",
"207 547 OFFCURVE",
"210 595 OFFCURVE",
"214 608 OFFCURVE",
"219 609 QCURVE",
"244 616 OFFCURVE",
"289 616 QCURVE SMOOTH",
"354 616 OFFCURVE",
"416 533 OFFCURVE",
"416 462 QCURVE SMOOTH",
"416 404 OFFCURVE",
"344 320 OFFCURVE",
"294 320 QCURVE SMOOTH",
"257 320 OFFCURVE",
"227 331 QCURVE",
"225 332 OFFCURVE",
"224 328 QCURVE",
"221 312 OFFCURVE",
"227 305 QCURVE",
"248 277 OFFCURVE",
"304 277 QCURVE SMOOTH",
"354 277 OFFCURVE",
"435 318 OFFCURVE",
"483 381 OFFCURVE",
"508 448 OFFCURVE",
"508 477 QCURVE SMOOTH",
"508 526 OFFCURVE",
"468 600 OFFCURVE",
"405 640 OFFCURVE",
"338 660 OFFCURVE",
"305 660 QCURVE SMOOTH",
"276 660 OFFCURVE",
"194 656 OFFCURVE",
"164 656 QCURVE SMOOTH"
);
}
);
width = 545;
}
);
note = P;
unicode = 0050;
},
{
glyphname = Q;
layers = (
{
layerId = "0276F023-BC64-4582-8657-390FE5DB601E";
paths = (
{
closed = 1;
nodes = (
"458 625 OFFCURVE",
"588 434 OFFCURVE",
"588 309 QCURVE SMOOTH",
"588 200 OFFCURVE",
"475 33 OFFCURVE",
"379 33 QCURVE SMOOTH",
"269 33 OFFCURVE",
"139 225 OFFCURVE",
"139 350 QCURVE SMOOTH",
"139 458 OFFCURVE",
"253 625 OFFCURVE",
"348 625 QCURVE SMOOTH"
);
},
{
closed = 1;
nodes = (
"645 -84 OFFCURVE",
"581 -64 OFFCURVE",
"486 -8 OFFCURVE",
"459 5 QCURVE",
"536 20 OFFCURVE",
"683 200 OFFCURVE",
"683 328 QCURVE SMOOTH",
"683 468 OFFCURVE",
"495 667 OFFCURVE",
"231 667 OFFCURVE",
"44 468 OFFCURVE",
"44 328 QCURVE SMOOTH",
"44 262 OFFCURVE",
"91 143 OFFCURVE",
"165 63 OFFCURVE",
"241 11 OFFCURVE",
"277 0 QCURVE SMOOTH",
"318 -13 OFFCURVE",
"443 -84 OFFCURVE",
"556 -136 OFFCURVE",
"604 -136 QCURVE SMOOTH",
"706 -136 OFFCURVE",
"772 -101 QCURVE",
"772 -96 LINE SMOOTH",
"772 -76 OFFCURVE",
"760 -76 QCURVE SMOOTH",
"758 -76 OFFCURVE",
"740 -80 OFFCURVE",
"710 -84 OFFCURVE",
"692 -84 QCURVE SMOOTH"
);
}
);
width = 724;
}
);
note = Q;
unicode = 0051;
},
{
glyphname = R;
layers = (
{
layerId = "0276F023-BC64-4582-8657-390FE5DB601E";
paths = (
{
closed = 1;
nodes = (
"427 616 OFFCURVE",
"427 477 QCURVE SMOOTH",
"427 419 OFFCURVE",
"352 349 OFFCURVE",
"317 349 QCURVE SMOOTH",
"292 349 LINE SMOOTH",
"205 349 OFFCURVE",
"205 378 QCURVE SMOOTH",
"205 499 LINE SMOOTH",
"205 548 OFFCURVE",
"208 595 OFFCURVE",
"213 608 OFFCURVE",
"217 609 QCURVE SMOOTH",
"242 616 OFFCURVE",
"287 616 QCURVE SMOOTH"
);
},
{
closed = 1;
nodes = (
"274 660 OFFCURVE",
"192 656 OFFCURVE",
"162 656 QCURVE SMOOTH",
"42 658 LINE",
"38 654 OFFCURVE",
"38 641 QCURVE SMOOTH",
"38 629 OFFCURVE",
"42 629 QCURVE SMOOTH",
"55 629 OFFCURVE",
"108 615 OFFCURVE",
"111 607 QCURVE",
"118 580 OFFCURVE",
"118 521 QCURVE SMOOTH",
"118 143 LINE SMOOTH",
"118 61 OFFCURVE",
"111 49 QCURVE SMOOTH",
"106 40 OFFCURVE",
"56 28 OFFCURVE",
"42 28 QCURVE SMOOTH",
"39 28 OFFCURVE",
"39 15 QCURVE SMOOTH",
"39 0 OFFCURVE",
"42 -3 QCURVE",
"164 2 LINE",
"194 2 OFFCURVE",
"294 -3 QCURVE",
"296 3 OFFCURVE",
"296 12 QCURVE SMOOTH",
"296 26 OFFCURVE",
"292 26 QCURVE SMOOTH",
"279 26 OFFCURVE",
"218 42 OFFCURVE",
"213 55 QCURVE SMOOTH",
"205 75 OFFCURVE",
"205 142 QCURVE SMOOTH",
"205 289 LINE SMOOTH",
"205 297 OFFCURVE",
"213 305 OFFCURVE",
"221 306 OFFCURVE",
"229 306 QCURVE SMOOTH",
"255 306 OFFCURVE",
"266 302 QCURVE",
"277 297 OFFCURVE",
"296 281 OFFCURVE",
"321 249 OFFCURVE",
"340 222 OFFCURVE",
"381 161 OFFCURVE",
"397 139 QCURVE SMOOTH",
"500 -5 OFFCURVE",
"640 -5 QCURVE SMOOTH",
"656 -5 OFFCURVE",
"667 -2 QCURVE",
"670 4 OFFCURVE",
"670 13 QCURVE SMOOTH",
"670 21 OFFCURVE",
"667 27 QCURVE",
"607 27 OFFCURVE",
"511 132 QCURVE SMOOTH",
"446 203 OFFCURVE",
"396 308 QCURVE",
"392 314 OFFCURVE",
"402 318 QCURVE",
"456 343 OFFCURVE",
"519 435 OFFCURVE",
"519 477 QCURVE SMOOTH",
"519 526 OFFCURVE",
"475 600 OFFCURVE",
"407 640 OFFCURVE",
"337 660 OFFCURVE",
"303 660 QCURVE SMOOTH"
);
}
);
width = 660;
}
);
note = R;
unicode = 0052;
},
{
glyphname = S;
layers = (
{
layerId = "0276F023-BC64-4582-8657-390FE5DB601E";
paths = (
{
closed = 1;
nodes = (
"61 466 OFFCURVE",
"74 422 OFFCURVE",
"106 383 OFFCURVE",
"130 356 OFFCURVE",
"183 321 OFFCURVE",
"206 307 OFFCURVE",
"235 290 QCURVE SMOOTH",
"244 285 OFFCURVE",
"292 259 OFFCURVE",
"310 247 OFFCURVE",
"343 222 OFFCURVE",
"356 200 OFFCURVE",
"368 166 OFFCURVE",
"368 146 QCURVE SMOOTH",
"368 91 OFFCURVE",
"298 31 OFFCURVE",
"248 31 QCURVE SMOOTH",
"116 31 OFFCURVE",
"82 175 QCURVE",
"75 184 OFFCURVE",
"57 184 QCURVE SMOOTH",
"41 184 OFFCURVE",
"41 178 QCURVE SMOOTH",
"41 142 OFFCURVE",
"66 19 QCURVE",
"77 17 OFFCURVE",
"132 4 OFFCURVE",
"168 -3 OFFCURVE",
"222 -10 OFFCURVE",
"246 -10 QCURVE SMOOTH",
"330 -10 OFFCURVE",
"455 93 OFFCURVE",
"455 173 QCURVE SMOOTH",
"455 197 OFFCURVE",
"436 242 OFFCURVE",
"415 272 OFFCURVE",
"368 311 OFFCURVE",
"346 326 OFFCURVE",
"286 363 OFFCURVE",
"281 366 QCURVE SMOOTH",
"274 370 OFFCURVE",
"223 402 OFFCURVE",
"206 414 OFFCURVE",
"169 444 OFFCURVE",
"155 467 OFFCURVE",
"141 502 OFFCURVE",
"141 521 QCURVE SMOOTH",
"141 565 OFFCURVE",
"190 625 OFFCURVE",
"250 625 QCURVE SMOOTH",
"304 625 OFFCURVE",
"379 542 OFFCURVE",
"384 498 QCURVE",
"386 488 OFFCURVE",
"410 488 QCURVE SMOOTH",
"420 488 OFFCURVE",
"420 495 QCURVE SMOOTH",
"420 585 OFFCURVE",
"408 638 QCURVE",
"390 642 OFFCURVE",
"343 655 OFFCURVE",
"318 661 OFFCURVE",
"279 666 OFFCURVE",
"257 666 QCURVE SMOOTH",
"179 666 OFFCURVE",
"61 567 OFFCURVE",
"61 490 QCURVE SMOOTH"
);
}
);
width = 491;
}
);
note = S;
unicode = 0053;
},
{
glyphname = T;
layers = (
{
layerId = "0276F023-BC64-4582-8657-390FE5DB601E";
paths = (
{
closed = 1;
nodes = (
"91 660 OFFCURVE",
"47 671 QCURVE",
"28 528 LINE",
"35 521 OFFCURVE",
"52 521 QCURVE SMOOTH",
"61 521 OFFCURVE",
"62 526 QCURVE",
"76 582 OFFCURVE",
"117 615 OFFCURVE",
"174 615 QCURVE SMOOTH",
"274 615 OFFCURVE",
"282 600 QCURVE SMOOTH",
"291 584 OFFCURVE",
"291 497 QCURVE SMOOTH",
"291 135 LINE SMOOTH",
"291 73 OFFCURVE",
"284 46 QCURVE",
"281 38 OFFCURVE",
"230 26 OFFCURVE",
"217 26 QCURVE SMOOTH",
"213 26 OFFCURVE",
"213 12 QCURVE SMOOTH",
"213 1 OFFCURVE",
"217 -3 QCURVE",
"332 2 OFFCURVE",
"337 2 QCURVE SMOOTH",
"353 2 OFFCURVE",
"453 -3 QCURVE",
"455 3 OFFCURVE",
"455 11 QCURVE SMOOTH",
"455 26 OFFCURVE",
"451 26 QCURVE SMOOTH",
"441 26 OFFCURVE",
"389 39 OFFCURVE",
"387 46 QCURVE SMOOTH",
"378 81 OFFCURVE",
"378 139 QCURVE SMOOTH",
"378 500 LINE SMOOTH",
"378 568 OFFCURVE",
"387 600 QCURVE SMOOTH",
"391 615 OFFCURVE",
"497 615 QCURVE SMOOTH",
"554 615 OFFCURVE",
"595 582 OFFCURVE",
"609 526 QCURVE",
"610 521 OFFCURVE",
"619 521 QCURVE SMOOTH",
"636 521 OFFCURVE",
"643 528 QCURVE",
"624 671 LINE",
"580 660 OFFCURVE",
"555 660 QCURVE SMOOTH",
"517 660 OFFCURVE",
"379 656 OFFCURVE",
"291 656 OFFCURVE",
"154 660 OFFCURVE",
"116 660 QCURVE SMOOTH"
);
}
);
width = 669;
}
);
note = T;
unicode = 0054;
},
{
glyphname = U;
layers = (
{
layerId = "0276F023-BC64-4582-8657-390FE5DB601E";
paths = (
{
closed = 1;
nodes = (
"152 657 OFFCURVE",
"37 662 QCURVE",
"33 658 OFFCURVE",
"33 646 QCURVE SMOOTH",
"33 633 OFFCURVE",
"37 633 QCURVE SMOOTH",
"50 633 OFFCURVE",
"101 620 OFFCURVE",
"104 612 QCURVE",
"111 585 OFFCURVE",
"111 523 QCURVE SMOOTH",
"111 296 LINE SMOOTH",
"111 140 OFFCURVE",
"239 0 OFFCURVE",
"358 0 QCURVE SMOOTH",
"478 0 OFFCURVE",
"608 121 OFFCURVE",
"608 276 QCURVE SMOOTH",
"608 519 LINE SMOOTH",
"608 581 OFFCURVE",
"616 612 QCURVE SMOOTH",
"618 619 OFFCURVE",
"685 635 OFFCURVE",
"695 635 QCURVE SMOOTH",
"699 635 OFFCURVE",
"699 647 QCURVE SMOOTH",
"699 656 OFFCURVE",
"697 662 QCURVE",
"690 662 OFFCURVE",
"611 656 OFFCURVE",
"585 656 QCURVE SMOOTH",
"558 656 OFFCURVE",
"480 661 OFFCURVE",
"467 662 QCURVE",
"463 658 OFFCURVE",
"463 635 OFFCURVE",
"467 635 QCURVE SMOOTH",
"480 635 OFFCURVE",
"543 620 OFFCURVE",
"546 612 QCURVE",
"553 585 OFFCURVE",
"553 524 QCURVE SMOOTH",
"553 274 LINE SMOOTH",
"553 49 OFFCURVE",
"382 49 QCURVE SMOOTH",
"294 49 OFFCURVE",
"198 183 OFFCURVE",
"198 296 QCURVE SMOOTH",
"198 519 LINE SMOOTH",
"198 577 OFFCURVE",
"207 612 QCURVE SMOOTH",
"209 619 OFFCURVE",
"261 633 OFFCURVE",
"271 633 QCURVE SMOOTH",
"275 633 OFFCURVE",
"275 648 QCURVE SMOOTH",
"275 656 OFFCURVE",
"273 662 QCURVE",
"173 657 OFFCURVE",
"157 657 QCURVE SMOOTH"
);
}
);
width = 719;
}
);
note = U;
unicode = 0055;
},
{
glyphname = V;
layers = (
{
layerId = "0276F023-BC64-4582-8657-390FE5DB601E";
paths = (
{
closed = 1;
nodes = (
"116 657 OFFCURVE",
"81 659 OFFCURVE",
"37 661 OFFCURVE",
"21 662 QCURVE",
"17 658 OFFCURVE",
"17 646 QCURVE SMOOTH",
"17 633 OFFCURVE",
"21 633 QCURVE SMOOTH",
"34 633 OFFCURVE",
"78 621 OFFCURVE",
"85 610 QCURVE SMOOTH",
"105 580 OFFCURVE",
"130 514 QCURVE SMOOTH",
"335 -3 LINE",
"338 -9 OFFCURVE",
"345 -9 QCURVE SMOOTH",
"367 -9 OFFCURVE",
"380 24 QCURVE SMOOTH",
"580 502 LINE SMOOTH",
"606 563 OFFCURVE",
"629 605 QCURVE SMOOTH",
"644 633 OFFCURVE",
"689 633 QCURVE SMOOTH",
"693 633 OFFCURVE",
"693 647 QCURVE SMOOTH",
"693 656 OFFCURVE",
"691 662 QCURVE",
"591 657 OFFCURVE",
"590 657 QCURVE SMOOTH",
"576 657 OFFCURVE",
"483 662 QCURVE",
"479 658 OFFCURVE",
"479 633 OFFCURVE",
"483 633 QCURVE SMOOTH",
"492 633 OFFCURVE",
"521 628 OFFCURVE",
"553 608 OFFCURVE",
"553 594 QCURVE SMOOTH",
"553 573 OFFCURVE",
"534 524 QCURVE SMOOTH",
"384 162 LINE SMOOTH",
"382 157 OFFCURVE",
"371 152 OFFCURVE",
"368 157 QCURVE",
"352 195 OFFCURVE",
"325 263 QCURVE SMOOTH",
"199 571 OFFCURVE",
"199 600 QCURVE SMOOTH",
"199 613 OFFCURVE",
"227 629 OFFCURVE",
"251 633 OFFCURVE",
"258 633 QCURVE SMOOTH",
"261 633 OFFCURVE",
"262 658 OFFCURVE",
"260 662 QCURVE",
"160 657 OFFCURVE",
"136 657 QCURVE SMOOTH"
);
}
);
width = 709;
}
);
note = V;
unicode = 0056;
},
{
glyphname = W;
layers = (
{
layerId = "0276F023-BC64-4582-8657-390FE5DB601E";
paths = (
{
closed = 1;
nodes = (
"135 657 OFFCURVE",
"20 662 QCURVE",
"16 658 OFFCURVE",
"16 646 QCURVE SMOOTH",
"16 633 OFFCURVE",
"20 633 QCURVE SMOOTH",
"32 633 OFFCURVE",
"70 620 OFFCURVE",
"78 610 QCURVE SMOOTH",
"107 573 OFFCURVE",
"136 514 QCURVE SMOOTH",
"396 -3 LINE",
"399 -8 OFFCURVE",
"405 -8 QCURVE SMOOTH",
"429 -8 OFFCURVE",
"444 24 QCURVE SMOOTH",
"552 247 LINE",
"674 -3 LINE",
"677 -8 OFFCURVE",
"683 -8 QCURVE SMOOTH",
"707 -8 OFFCURVE",
"722 24 QCURVE SMOOTH",
"934 504 LINE SMOOTH",
"963 571 OFFCURVE",
"992 605 QCURVE SMOOTH",
"1003 618 OFFCURVE",
"1047 633 OFFCURVE",
"1057 633 QCURVE SMOOTH",
"1061 633 OFFCURVE",
"1061 647 QCURVE SMOOTH",
"1061 656 OFFCURVE",
"1059 662 QCURVE",
"1045 661 OFFCURVE",
"1013 659 OFFCURVE",
"983 657 OFFCURVE",
"960 657 QCURVE SMOOTH",
"938 657 OFFCURVE",
"858 662 QCURVE",
"854 658 OFFCURVE",
"854 633 OFFCURVE",
"858 633 QCURVE SMOOTH",
"874 633 OFFCURVE",
"915 616 OFFCURVE",
"915 599 QCURVE SMOOTH",
"915 577 OFFCURVE",
"898 536 QCURVE SMOOTH",
"719 125 LINE",
"713 109 OFFCURVE",
"707 120 QCURVE",
"598 344 LINE",
"675 502 LINE SMOOTH",
"715 583 OFFCURVE",
"733 605 QCURVE SMOOTH",
"743 617 OFFCURVE",
"792 633 OFFCURVE",
"802 633 QCURVE SMOOTH",
"805 633 OFFCURVE",
"806 658 OFFCURVE",
"804 662 QCURVE",
"704 657 OFFCURVE",
"700 657 QCURVE SMOOTH",
"679 657 OFFCURVE",
"599 662 QCURVE",
"595 658 OFFCURVE",
"595 633 OFFCURVE",
"599 633 QCURVE SMOOTH",
"615 633 OFFCURVE",
"658 617 OFFCURVE",
"658 600 QCURVE SMOOTH",
"658 573 OFFCURVE",
"644 542 QCURVE SMOOTH",
"574 395 LINE",
"508 530 LINE SMOOTH",
"485 578 OFFCURVE",
"485 604 QCURVE SMOOTH",
"485 616 OFFCURVE",
"508 630 OFFCURVE",
"527 633 OFFCURVE",
"534 633 QCURVE SMOOTH",
"537 633 OFFCURVE",
"538 658 OFFCURVE",
"536 662 QCURVE",
"436 657 OFFCURVE",
"432 657 QCURVE SMOOTH",
"421 657 OFFCURVE",
"306 662 QCURVE",
"302 658 OFFCURVE",
"302 648 QCURVE SMOOTH",
"302 633 OFFCURVE",
"306 633 QCURVE SMOOTH",
"318 633 OFFCURVE",
"356 620 OFFCURVE",
"364 610 QCURVE SMOOTH",
"393 573 OFFCURVE",
"422 514 QCURVE SMOOTH",
"527 298 LINE",
"444 125 LINE",
"442 120 OFFCURVE",
"432 115 OFFCURVE",
"429 120 QCURVE",
"222 530 LINE SMOOTH",
"199 574 OFFCURVE",
"199 604 QCURVE SMOOTH",
"199 615 OFFCURVE",
"222 630 OFFCURVE",
"242 633 OFFCURVE",
"249 633 QCURVE SMOOTH",
"252 633 OFFCURVE",
"253 658 OFFCURVE",
"251 662 QCURVE",
"151 657 OFFCURVE",
"146 657 QCURVE SMOOTH"
);
}
);
width = 1076;
}
);
note = W;
unicode = 0057;
},
{
glyphname = X;
layers = (
{
layerId = "0276F023-BC64-4582-8657-390FE5DB601E";
paths = (
{
closed = 1;
nodes = (
"174 657 OFFCURVE",
"51 662 QCURVE",
"47 658 OFFCURVE",
"47 633 OFFCURVE",
"51 633 QCURVE SMOOTH",
"80 633 OFFCURVE",
"107 617 QCURVE SMOOTH",
"142 597 OFFCURVE",
"173 548 QCURVE SMOOTH",
"313 334 LINE",
"99 54 LINE",
"88 43 OFFCURVE",
"46 29 OFFCURVE",
"19 26 OFFCURVE",
"11 26 QCURVE SMOOTH",
"7 26 OFFCURVE",
"7 10 QCURVE SMOOTH",
"7 3 OFFCURVE",
"9 -3 QCURVE",
"109 2 OFFCURVE",
"132 2 QCURVE SMOOTH",
"152 2 OFFCURVE",
"245 -3 QCURVE",
"247 0 OFFCURVE",
"247 10 QCURVE SMOOTH",
"247 26 OFFCURVE",
"243 26 QCURVE SMOOTH",
"218 26 OFFCURVE",
"184 39 OFFCURVE",
"175 51 OFFCURVE",
"175 55 QCURVE SMOOTH",
"175 75 OFFCURVE",
"339 295 QCURVE",
"489 66 LINE SMOOTH",
"494 58 OFFCURVE",
"494 54 QCURVE SMOOTH",
"494 42 OFFCURVE",
"450 26 OFFCURVE",
"436 26 QCURVE SMOOTH",
"432 26 OFFCURVE",
"432 1 OFFCURVE",
"436 -3 QCURVE",
"576 2 OFFCURVE",
"582 2 QCURVE SMOOTH",
"587 2 OFFCURVE",
"687 -3 QCURVE",
"689 1 OFFCURVE",
"689 10 QCURVE SMOOTH",
"689 26 OFFCURVE",
"684 26 QCURVE SMOOTH",
"656 26 OFFCURVE",
"599 46 OFFCURVE",
"586 66 QCURVE SMOOTH",
"394 358 LINE",
"582 604 LINE SMOOTH",
"592 617 OFFCURVE",
"664 633 OFFCURVE",
"678 633 QCURVE SMOOTH",
"681 633 OFFCURVE",
"682 658 OFFCURVE",
"680 662 QCURVE",
"580 657 OFFCURVE",
"568 657 QCURVE SMOOTH",
"534 657 OFFCURVE",
"441 662 QCURVE",
"437 658 OFFCURVE",
"437 633 OFFCURVE",
"441 633 QCURVE SMOOTH",
"470 633 OFFCURVE",
"511 613 OFFCURVE",
"511 602 QCURVE SMOOTH",
"511 596 OFFCURVE",
"502 576 OFFCURVE",
"481 544 OFFCURVE",
"464 519 OFFCURVE",
"429 473 OFFCURVE",
"412 451 OFFCURVE",
"373 402 OFFCURVE",
"369 396 QCURVE",
"254 571 LINE SMOOTH",
"242 589 OFFCURVE",
"242 601 QCURVE SMOOTH",
"242 618 OFFCURVE",
"284 633 OFFCURVE",
"302 633 QCURVE SMOOTH",
"305 633 OFFCURVE",
"306 658 OFFCURVE",
"304 662 QCURVE",
"204 657 OFFCURVE",
"176 657 QCURVE SMOOTH"
);
}
);
width = 688;
}
);
note = X;
unicode = 0058;
},
{
glyphname = Y;
layers = (
{
layerId = "0276F023-BC64-4582-8657-390FE5DB601E";
paths = (
{
closed = 1;
nodes = (
"111 656 OFFCURVE",
"35 661 OFFCURVE",
"19 662 QCURVE",
"15 658 OFFCURVE",
"15 646 QCURVE SMOOTH",
"15 635 OFFCURVE",
"19 635 QCURVE SMOOTH",
"29 635 OFFCURVE",
"73 621 OFFCURVE",
"84 613 QCURVE SMOOTH",
"100 602 OFFCURVE",
"117 579 OFFCURVE",
"133 549 QCURVE SMOOTH",
"236 364 OFFCURVE",
"279 281 OFFCURVE",
"279 267 QCURVE SMOOTH",
"279 142 LINE SMOOTH",
"279 77 OFFCURVE",
"271 46 QCURVE",
"268 38 OFFCURVE",
"219 24 OFFCURVE",
"207 24 QCURVE SMOOTH",
"203 24 OFFCURVE",
"203 11 QCURVE SMOOTH",
"203 1 OFFCURVE",
"207 -3 QCURVE",
"322 2 OFFCURVE",
"325 2 QCURVE SMOOTH",
"337 2 OFFCURVE",
"437 -3 QCURVE",
"439 3 OFFCURVE",
"439 11 QCURVE SMOOTH",
"439 24 OFFCURVE",
"435 24 QCURVE SMOOTH",
"426 24 OFFCURVE",
"376 39 OFFCURVE",
"374 46 QCURVE SMOOTH",
"366 77 OFFCURVE",
"366 139 QCURVE SMOOTH",
"366 291 LINE SMOOTH",
"366 305 OFFCURVE",
"511 545 OFFCURVE",
"549 604 QCURVE",
"559 617 OFFCURVE",
"619 635 OFFCURVE",
"631 635 QCURVE SMOOTH",
"635 635 OFFCURVE",
"635 647 QCURVE SMOOTH",
"635 656 OFFCURVE",
"633 662 QCURVE",
"624 662 OFFCURVE",
"558 656 OFFCURVE",
"527 656 QCURVE SMOOTH",
"520 656 OFFCURVE",
"409 662 QCURVE",
"405 658 OFFCURVE",
"405 635 OFFCURVE",
"409 635 QCURVE SMOOTH",
"438 635 OFFCURVE",
"478 613 OFFCURVE",
"478 602 QCURVE SMOOTH",
"478 567 OFFCURVE",
"342 361 QCURVE",
"337 354 OFFCURVE",
"332 359 QCURVE",
"220 571 LINE",
"209 590 OFFCURVE",
"209 601 QCURVE SMOOTH",
"209 618 OFFCURVE",
"252 635 OFFCURVE",
"269 635 QCURVE SMOOTH",
"272 635 OFFCURVE",
"273 658 OFFCURVE",
"271 662 QCURVE",
"151 656 OFFCURVE",
"139 656 QCURVE SMOOTH"
);
}
);
width = 649;
}
);
note = Y;
unicode = 0059;
},
{
glyphname = Z;
layers = (
{
layerId = "0276F023-BC64-4582-8657-390FE5DB601E";
paths = (
{
closed = 1;
nodes = (
"197 656 OFFCURVE",
"72 662 OFFCURVE",
"62 665 QCURVE",
"56 613 OFFCURVE",
"29 489 QCURVE",
"38 480 OFFCURVE",
"61 480 QCURVE SMOOTH",
"70 480 OFFCURVE",
"71 484 QCURVE SMOOTH",
"90 553 OFFCURVE",
"147 608 OFFCURVE",
"213 608 QCURVE SMOOTH",
"425 608 LINE",
"42 43 LINE",
"38 38 OFFCURVE",
"38 26 QCURVE SMOOTH",
"38 9 OFFCURVE",
"46 0 QCURVE",
"542 0 LINE",
"554 62 OFFCURVE",
"586 166 QCURVE",
"577 175 OFFCURVE",
"562 175 QCURVE SMOOTH",
"550 175 OFFCURVE",
"548 172 QCURVE",
"538 145 OFFCURVE",
"523 116 OFFCURVE",
"490 72 OFFCURVE",
"438 51 OFFCURVE",
"402 51 QCURVE SMOOTH",
"176 51 LINE SMOOTH",
"162 51 OFFCURVE",
"162 61 QCURVE SMOOTH",
"162 66 OFFCURVE",
"169 76 QCURVE SMOOTH",
"543 633 LINE",
"543 641 OFFCURVE",
"536 665 OFFCURVE",
"533 666 QCURVE",
"393 656 OFFCURVE",
"323 656 QCURVE SMOOTH",
"214 656 LINE SMOOTH"
);
}
);
width = 600;
}
);
note = Z;
unicode = 005A;
},
{
glyphname = bracketleft;
layers = (
{
layerId = "0276F023-BC64-4582-8657-390FE5DB601E";
paths = (
{
closed = 1;
nodes = (
"121 740 OFFCURVE",
"121 717 QCURVE SMOOTH",
"121 -79 LINE SMOOTH",
"121 -102 OFFCURVE",
"140 -102 QCURVE SMOOTH",
"222 -102 OFFCURVE",
"295 -114 QCURVE",
"296 -112 LINE",
"298 -110 OFFCURVE",
"301 -101 OFFCURVE",
"301 -96 QCURVE SMOOTH",
"301 -78 OFFCURVE",
"289 -74 QCURVE SMOOTH",
"239 -57 OFFCURVE",
"187 -57 QCURVE SMOOTH",
"181 -57 OFFCURVE",
"180 -49 QCURVE",
"180 687 LINE",
"180 689 LINE",
"181 691 OFFCURVE",
"184 695 OFFCURVE",
"187 695 QCURVE SMOOTH",
"241 695 OFFCURVE",
"288 706 QCURVE",
"306 715 OFFCURVE",
"306 737 QCURVE SMOOTH",
"306 749 OFFCURVE",
"300 749 QCURVE SMOOTH",
"295 749 OFFCURVE",
"248 744 OFFCURVE",
"176 740 OFFCURVE",
"140 740 QCURVE SMOOTH"
);
}
);
width = 361;
}
);
note = bracketleft;
unicode = 005B;
},
{
glyphname = backslash;
layers = (
{
layerId = "0276F023-BC64-4582-8657-390FE5DB601E";
paths = (
{
closed = 1;
nodes = (
"396 7 OFFCURVE",
"393 13 QCURVE",
"106 739 LINE",
"96 761 OFFCURVE",
"57 761 QCURVE SMOOTH",
"43 761 OFFCURVE",
"36 755 QCURVE",
"349 -37 LINE",
"373 -39 OFFCURVE",
"373 -39 QCURVE",
"396 -34 OFFCURVE",
"396 -7 QCURVE SMOOTH"
);
}
);
width = 430;
}
);
note = backslash;
unicode = 005C;
},
{
glyphname = bracketright;
layers = (
{
layerId = "0276F023-BC64-4582-8657-390FE5DB601E";
paths = (
{
closed = 1;
nodes = (
"182 -51 LINE",
"182 -53 OFFCURVE",
"179 -57 OFFCURVE",
"176 -57 QCURVE SMOOTH",
"122 -57 OFFCURVE",
"76 -74 QCURVE",
"67 -82 LINE",
"61 -92 OFFCURVE",
"61 -102 QCURVE SMOOTH",
"61 -113 OFFCURVE",
"67 -114 QCURVE",
"88 -111 LINE SMOOTH",
"109 -108 OFFCURVE",
"187 -102 OFFCURVE",
"223 -102 QCURVE SMOOTH",
"241 -102 OFFCURVE",
"241 -79 QCURVE SMOOTH",
"241 717 LINE SMOOTH",
"241 740 OFFCURVE",
"223 740 QCURVE SMOOTH",
"141 740 OFFCURVE",
"63 749 QCURVE",
"62 749 LINE SMOOTH",
"57 749 OFFCURVE",
"57 737 QCURVE SMOOTH",
"57 732 OFFCURVE",
"60 722 OFFCURVE",
"63 716 OFFCURVE",
"68 711 OFFCURVE",
"72 708 OFFCURVE",
"74 707 QCURVE",
"75 706 LINE",
"88 703 LINE SMOOTH",
"101 700 OFFCURVE",
"152 695 OFFCURVE",
"176 695 QCURVE SMOOTH",
"182 695 OFFCURVE",
"183 687 QCURVE",
"183 -49 LINE"
);
}
);
width = 361;
}
);
note = bracketright;
unicode = 005D;
},
{
glyphname = asciicircum;
layers = (
{
layerId = "0276F023-BC64-4582-8657-390FE5DB601E";
paths = (
{
closed = 1;
nodes = (
"367 475 OFFCURVE",
"375 495 OFFCURVE",
"375 500 QCURVE",
"374 502 OFFCURVE",
"343 533 OFFCURVE",
"303 575 OFFCURVE",
"293 588 QCURVE SMOOTH",
"274 614 OFFCURVE",
"246 660 OFFCURVE",
"238 679 OFFCURVE",
"227 690 OFFCURVE",
"218 690 QCURVE SMOOTH",
"214 690 OFFCURVE",
"208 677 QCURVE SMOOTH",
"186 629 OFFCURVE",
"120 547 OFFCURVE",
"72 502 OFFCURVE",
"71 499 QCURVE",
"72 493 LINE SMOOTH",
"73 487 OFFCURVE",
"80 475 OFFCURVE",
"84 475 QCURVE SMOOTH",
"97 475 OFFCURVE",
"190 556 OFFCURVE",
"222 597 QCURVE",
"257 555 OFFCURVE",
"350 475 OFFCURVE",
"362 475 QCURVE SMOOTH"
);
}
);
width = 445;
}
);
note = asciicircum;
unicode = 005E;
},
{
glyphname = underscore;
layers = (
{
layerId = "0276F023-BC64-4582-8657-390FE5DB601E";
paths = (
{
closed = 1;
nodes = (
"0 -43 OFFCURVE",
"7 -43 QCURVE SMOOTH",
"452 -43 LINE",
"453 -43 LINE SMOOTH",
"454 -43 OFFCURVE",
"457 -40 OFFCURVE",
"458 -37 QCURVE",
"468 0 OFFCURVE",
"468 8 QCURVE SMOOTH",
"468 13 OFFCURVE",
"464 13 QCURVE SMOOTH",
"15 13 LINE SMOOTH",
"5 13 OFFCURVE",
"0 -33 QCURVE"
);
}
);
width = 468;
}
);
note = underscore;
unicode = 005F;
},
{
glyphname = grave;
layers = (
{
layerId = "0276F023-BC64-4582-8657-390FE5DB601E";
paths = (
{
closed = 1;
nodes = (
"104 638 OFFCURVE",
"247 527 OFFCURVE",
"260 527 QCURVE SMOOTH",
"272 527 OFFCURVE",
"272 540 QCURVE SMOOTH",
"272 543 OFFCURVE",
"242 592 OFFCURVE",
"196 658 OFFCURVE",
"179 678 QCURVE",
"170 687 OFFCURVE",
"145 687 QCURVE SMOOTH",
"129 687 OFFCURVE",
"109 676 OFFCURVE",
"104 667 OFFCURVE",
"104 663 QCURVE SMOOTH"
);
}
);
width = 327;
}
);
note = grave;
unicode = 0060;
},
{
glyphname = a;
layers = (
{
layerId = "0276F023-BC64-4582-8657-390FE5DB601E";
paths = (
{
closed = 1;
nodes = (
"123 129 OFFCURVE",
"156 164 OFFCURVE",
"191 179 OFFCURVE",
"253 199 OFFCURVE",
"261 203 QCURVE",
"261 100 LINE SMOOTH",
"261 83 OFFCURVE",
"211 50 OFFCURVE",
"157 50 OFFCURVE",
"123 79 OFFCURVE",
"123 106 QCURVE SMOOTH"
);
},
{
closed = 1;
nodes = (
"169 436 OFFCURVE",
"43 351 OFFCURVE",
"43 308 QCURVE",
"54 289 OFFCURVE",
"82 289 QCURVE SMOOTH",
"123 289 OFFCURVE",
"123 324 QCURVE SMOOTH",
"123 357 OFFCURVE",
"163 398 OFFCURVE",
"193 398 QCURVE SMOOTH",
"221 398 OFFCURVE",
"261 363 OFFCURVE",
"261 331 QCURVE SMOOTH",
"261 256 LINE SMOOTH",
"261 244 OFFCURVE",
"252 241 QCURVE",
"240 236 OFFCURVE",
"180 216 OFFCURVE",
"143 203 OFFCURVE",
"91 177 OFFCURVE",
"61 152 OFFCURVE",
"39 113 OFFCURVE",
"39 91 QCURVE SMOOTH",
"39 42 OFFCURVE",
"99 -7 OFFCURVE",
"145 -7 QCURVE SMOOTH",
"165 -7 OFFCURVE",
"204 5 OFFCURVE",
"233 23 OFFCURVE",
"255 40 OFFCURVE",
"268 53 OFFCURVE",
"269 53 QCURVE",
"277 32 OFFCURVE",
"319 -6 OFFCURVE",
"342 -6 QCURVE SMOOTH",
"371 -6 OFFCURVE",
"412 29 QCURVE",
"417 37 OFFCURVE",
"417 50 QCURVE SMOOTH",
"417 58 OFFCURVE",
"413 58 QCURVE",
"392 44 OFFCURVE",
"378 44 QCURVE SMOOTH",
"359 44 OFFCURVE",
"337 72 OFFCURVE",
"337 93 QCURVE SMOOTH",
"337 324 LINE SMOOTH",
"337 383 OFFCURVE",
"289 436 OFFCURVE",
"234 436 QCURVE SMOOTH"
);
}
);
width = 423;
}
);
note = a;
unicode = 0061;
},
{
glyphname = b;
layers = (
{
layerId = "0276F023-BC64-4582-8657-390FE5DB601E";
paths = (
{
closed = 1;
nodes = (
"234 438 OFFCURVE",
"176 416 OFFCURVE",
"162 406 QCURVE",
"160 405 OFFCURVE",
"159 405 QCURVE SMOOTH",
"156 405 OFFCURVE",
"156 416 QCURVE SMOOTH",
"156 591 LINE SMOOTH",
"156 646 OFFCURVE",
"167 678 QCURVE",
"166 683 OFFCURVE",
"158 694 OFFCURVE",
"154 694 QCURVE SMOOTH",
"152 694 LINE",
"148 691 LINE",
"143 688 OFFCURVE",
"123 679 OFFCURVE",
"94 669 OFFCURVE",
"43 659 OFFCURVE",
"13 656 QCURVE",
"7 656 OFFCURVE",
"7 640 QCURVE SMOOTH",
"7 629 OFFCURVE",
"13 629 QCURVE SMOOTH",
"22 629 LINE SMOOTH",
"68 629 OFFCURVE",
"73 613 QCURVE",
"79 583 OFFCURVE",
"79 549 QCURVE SMOOTH",
"79 135 LINE SMOOTH",
"79 98 OFFCURVE",
"73 38 OFFCURVE",
"67 7 OFFCURVE",
"67 6 QCURVE SMOOTH",
"67 2 OFFCURVE",
"84 -4 OFFCURVE",
"88 -4 QCURVE SMOOTH",
"90 -4 OFFCURVE",
"117 7 OFFCURVE",
"126 7 QCURVE SMOOTH",
"131 7 OFFCURVE",
"198 -6 OFFCURVE",
"235 -6 QCURVE SMOOTH",
"320 -6 OFFCURVE",
"461 138 OFFCURVE",
"461 233 QCURVE SMOOTH",
"461 307 OFFCURVE",
"352 438 OFFCURVE",
"256 438 QCURVE SMOOTH"
);
},
{
closed = 1;
nodes = (
"292 389 OFFCURVE",
"375 291 OFFCURVE",
"375 212 QCURVE SMOOTH",
"375 144 OFFCURVE",
"311 36 OFFCURVE",
"254 36 QCURVE SMOOTH",
"215 36 OFFCURVE",
"156 65 OFFCURVE",
"156 96 QCURVE SMOOTH",
"156 329 LINE SMOOTH",
"156 358 OFFCURVE",
"196 389 OFFCURVE",
"224 389 QCURVE SMOOTH"
);
}
);
width = 499;
}
);
note = b;
unicode = 0062;
},
{
glyphname = c;
layers = (
{
layerId = "0276F023-BC64-4582-8657-390FE5DB601E";
paths = (
{
closed = 1;
nodes = (
"137 436 OFFCURVE",
"37 301 OFFCURVE",
"37 209 QCURVE SMOOTH",
"37 119 OFFCURVE",
"156 -6 OFFCURVE",
"239 -6 QCURVE SMOOTH",
"285 -6 OFFCURVE",
"363 39 OFFCURVE",
"383 67 QCURVE",
"389 77 OFFCURVE",
"389 85 QCURVE SMOOTH",
"389 98 OFFCURVE",
"383 98 QCURVE",
"376 93 LINE SMOOTH",
"369 88 OFFCURVE",
"350 77 OFFCURVE",
"323 66 OFFCURVE",
"285 58 OFFCURVE",
"264 58 QCURVE SMOOTH",
"194 58 OFFCURVE",
"115 164 OFFCURVE",
"115 244 QCURVE SMOOTH",
"115 321 OFFCURVE",
"182 399 OFFCURVE",
"223 399 QCURVE SMOOTH",
"266 399 OFFCURVE",
"297 353 QCURVE SMOOTH",
"311 333 OFFCURVE",
"329 318 OFFCURVE",
"346 318 QCURVE SMOOTH",
"383 318 OFFCURVE",
"383 385 QCURVE",
"341 436 OFFCURVE",
"231 436 QCURVE SMOOTH"
);
}
);
width = 405;
}
);
note = c;
unicode = 0063;
},
{
glyphname = d;
layers = (
{
layerId = "0276F023-BC64-4582-8657-390FE5DB601E";
paths = (
{
closed = 1;
nodes = (
"298 398 OFFCURVE",
"343 361 OFFCURVE",
"343 340 QCURVE SMOOTH",
"343 102 LINE SMOOTH",
"343 76 OFFCURVE",
"305 45 OFFCURVE",
"271 45 QCURVE SMOOTH",
"202 45 OFFCURVE",
"124 152 OFFCURVE",
"124 225 QCURVE SMOOTH",
"124 294 OFFCURVE",
"190 398 OFFCURVE",
"248 398 QCURVE SMOOTH"
);
},
{
closed = 1;
nodes = (
"175 440 OFFCURVE",
"38 293 OFFCURVE",
"38 196 QCURVE SMOOTH",
"38 114 OFFCURVE",
"150 -4 OFFCURVE",
"233 -4 QCURVE SMOOTH",
"283 -4 OFFCURVE",
"339 27 QCURVE",
"343 29 OFFCURVE",
"343 23 QCURVE SMOOTH",
"343 11 LINE SMOOTH",
"343 -6 OFFCURVE",
"349 -6 QCURVE",
"358 -4 LINE",
"367 -1 OFFCURVE",
"395 6 OFFCURVE",
"428 13 OFFCURVE",
"465 19 OFFCURVE",
"480 20 QCURVE",
"486 20 OFFCURVE",
"486 35 QCURVE SMOOTH",
"486 46 OFFCURVE",
"483 47 QCURVE",
"474 48 LINE",
"465 48 OFFCURVE",
"446 50 OFFCURVE",
"428 58 OFFCURVE",
"426 65 QCURVE",
"420 93 OFFCURVE",
"420 141 QCURVE SMOOTH",
"420 591 LINE SMOOTH",
"420 646 OFFCURVE",
"431 678 QCURVE",
"430 683 OFFCURVE",
"422 694 OFFCURVE",
"418 694 QCURVE SMOOTH",
"416 694 LINE",
"412 691 LINE",
"407 688 OFFCURVE",
"387 679 OFFCURVE",
"358 669 OFFCURVE",
"307 659 OFFCURVE",
"277 656 QCURVE",
"271 656 OFFCURVE",
"271 640 QCURVE SMOOTH",
"271 629 OFFCURVE",
"277 629 QCURVE SMOOTH",
"286 629 LINE SMOOTH",
"332 629 OFFCURVE",
"337 613 QCURVE",
"343 583 OFFCURVE",
"343 549 QCURVE SMOOTH",
"343 441 LINE SMOOTH",
"343 423 OFFCURVE",
"336 423 QCURVE",
"304 440 OFFCURVE",
"261 440 QCURVE SMOOTH"
);
}
);
width = 497;
}
);
note = d;
unicode = 0064;
},
{
glyphname = e;
layers = (
{
layerId = "0276F023-BC64-4582-8657-390FE5DB601E";
paths = (
{
closed = 1;
nodes = (
"270 399 OFFCURVE",
"324 316 OFFCURVE",
"324 284 QCURVE SMOOTH",
"324 274 OFFCURVE",
"319 274 QCURVE SMOOTH",
"124 274 LINE SMOOTH",
"118 274 OFFCURVE",
"118 281 QCURVE SMOOTH",
"118 310 OFFCURVE",
"173 399 OFFCURVE",
"225 399 QCURVE SMOOTH"
);
},
{
closed = 1;
nodes = (
"150 436 OFFCURVE",
"37 314 OFFCURVE",
"37 209 QCURVE SMOOTH",
"37 119 OFFCURVE",
"156 -6 OFFCURVE",
"239 -6 QCURVE SMOOTH",
"285 -6 OFFCURVE",
"363 39 OFFCURVE",
"383 67 QCURVE",
"389 77 OFFCURVE",
"389 85 QCURVE SMOOTH",
"389 98 OFFCURVE",
"383 98 QCURVE",
"376 93 LINE SMOOTH",
"369 88 OFFCURVE",
"350 77 OFFCURVE",
"323 66 OFFCURVE",
"285 58 OFFCURVE",
"264 58 QCURVE SMOOTH",
"192 58 OFFCURVE",
"116 164 OFFCURVE",
"116 227 QCURVE SMOOTH",
"116 232 OFFCURVE",
"124 232 QCURVE SMOOTH",
"376 232 LINE SMOOTH",
"393 232 OFFCURVE",
"405 241 OFFCURVE",
"405 261 QCURVE SMOOTH",
"405 289 OFFCURVE",
"388 346 OFFCURVE",
"351 401 OFFCURVE",
"281 436 OFFCURVE",
"235 436 QCURVE SMOOTH"
);
}
);
width = 430;
}
);
note = e;
unicode = 0065;
},
{
glyphname = f;
layers = (
{
layerId = "0276F023-BC64-4582-8657-390FE5DB601E";
paths = (
{
closed = 1;
nodes = (
"223 695 OFFCURVE",
"98 543 OFFCURVE",
"98 438 QCURVE SMOOTH",
"98 425 LINE SMOOTH",
"98 419 OFFCURVE",
"93 419 QCURVE SMOOTH",
"87 419 LINE SMOOTH",
"69 419 OFFCURVE",
"37 387 OFFCURVE",
"37 378 QCURVE SMOOTH",
"37 372 OFFCURVE",
"40 372 QCURVE SMOOTH",
"93 372 LINE SMOOTH",
"98 372 OFFCURVE",
"98 365 QCURVE SMOOTH",
"98 135 LINE SMOOTH",
"98 85 OFFCURVE",
"88 46 QCURVE SMOOTH",
"86 39 OFFCURVE",
"42 26 OFFCURVE",
"30 26 QCURVE SMOOTH",
"28 26 OFFCURVE",
"26 14 OFFCURVE",
"28 -1 OFFCURVE",
"30 -3 QCURVE",
"132 2 OFFCURVE",
"135 2 QCURVE SMOOTH",
"142 2 OFFCURVE",
"242 -3 QCURVE",
"244 2 OFFCURVE",
"242 26 OFFCURVE",
"239 26 QCURVE SMOOTH",
"230 26 OFFCURVE",
"185 39 OFFCURVE",
"183 46 QCURVE SMOOTH",
"174 81 OFFCURVE",
"174 135 QCURVE SMOOTH",
"174 366 LINE SMOOTH",
"174 372 OFFCURVE",
"180 372 QCURVE SMOOTH",
"283 372 LINE",
"295 396 OFFCURVE",
"295 412 QCURVE SMOOTH",
"295 419 OFFCURVE",
"290 419 QCURVE SMOOTH",
"179 419 LINE SMOOTH",
"174 419 OFFCURVE",
"174 424 QCURVE SMOOTH",
"174 475 LINE SMOOTH",
"174 548 OFFCURVE",
"222 656 OFFCURVE",
"266 656 QCURVE SMOOTH",
"288 656 OFFCURVE",
"319 624 OFFCURVE",
"343 593 OFFCURVE",
"356 593 QCURVE SMOOTH",
"392 593 OFFCURVE",
"392 656 QCURVE",
"369 695 OFFCURVE",
"297 695 QCURVE SMOOTH"
);
}
);
width = 301;
}
);
note = f;
unicode = 0066;
},
{
glyphname = g;
layers = (
{
layerId = "0276F023-BC64-4582-8657-390FE5DB601E";
paths = (
{
closed = 1;
nodes = (
"379 -126 OFFCURVE",
"302 -190 OFFCURVE",
"242 -190 QCURVE SMOOTH",
"188 -190 OFFCURVE",
"99 -137 OFFCURVE",
"99 -94 QCURVE SMOOTH",
"99 -87 OFFCURVE",
"102 -74 OFFCURVE",
"105 -64 OFFCURVE",
"113 -54 OFFCURVE",
"117 -47 OFFCURVE",
"129 -38 OFFCURVE",
"134 -35 OFFCURVE",
"148 -26 OFFCURVE",
"152 -24 OFFCURVE",
"168 -17 OFFCURVE",
"169 -16 QCURVE",
"173 -14 OFFCURVE",
"175 -14 QCURVE SMOOTH",
"297 -14 OFFCURVE",
"379 -43 OFFCURVE",
"379 -85 QCURVE SMOOTH"
);
},
{
closed = 1;
nodes = (
"123 338 OFFCURVE",
"174 398 OFFCURVE",
"213 398 QCURVE SMOOTH",
"251 398 OFFCURVE",
"308 334 OFFCURVE",
"308 288 QCURVE SMOOTH",
"308 246 OFFCURVE",
"257 186 OFFCURVE",
"218 186 QCURVE SMOOTH",
"180 186 OFFCURVE",
"123 250 OFFCURVE",
"123 296 QCURVE SMOOTH"
);
},
{
closed = 1;
nodes = (
"145 432 OFFCURVE",
"46 351 OFFCURVE",
"46 292 QCURVE SMOOTH",
"46 250 OFFCURVE",
"97 177 OFFCURVE",
"127 166 QCURVE",
"99 148 OFFCURVE",
"54 92 OFFCURVE",
"54 66 QCURVE SMOOTH",
"54 36 OFFCURVE",
"100 -6 OFFCURVE",
"127 -10 QCURVE",
"29 -54 OFFCURVE",
"29 -116 QCURVE SMOOTH",
"29 -172 OFFCURVE",
"142 -228 OFFCURVE",
"213 -227 QCURVE SMOOTH",
"315 -226 OFFCURVE",
"445 -115 OFFCURVE",
"445 -38 QCURVE SMOOTH",
"445 9 OFFCURVE",
"345 56 OFFCURVE",
"221 58 QCURVE SMOOTH",
"219 58 OFFCURVE",
"214 58 QCURVE SMOOTH",
"195 58 OFFCURVE",
"167 61 OFFCURVE",
"137 68 OFFCURVE",
"121 85 OFFCURVE",
"121 113 OFFCURVE",
"150 149 OFFCURVE",
"163 156 QCURVE",
"187 152 OFFCURVE",
"219 152 QCURVE SMOOTH",
"289 152 OFFCURVE",
"385 238 OFFCURVE",
"385 292 QCURVE SMOOTH",
"385 316 OFFCURVE",
"374 340 QCURVE",
"364 364 LINE",
"364 367 OFFCURVE",
"368 367 QCURVE SMOOTH",
"439 367 LINE SMOOTH",
"445 367 OFFCURVE",
"445 381 QCURVE SMOOTH",
"445 404 OFFCURVE",
"439 406 QCURVE",
"381 406 LINE SMOOTH",
"350 406 OFFCURVE",
"254 432 OFFCURVE",
"217 432 QCURVE SMOOTH"
);
}
);
width = 474;
}
);
note = g;
unicode = 0067;
},
{
glyphname = h;
layers = (
{
layerId = "0276F023-BC64-4582-8657-390FE5DB601E";
paths = (
{
closed = 1;
nodes = (
"275 438 OFFCURVE",
"194 394 OFFCURVE",
"172 370 QCURVE",
"170 368 OFFCURVE",
"169 368 QCURVE SMOOTH",
"167 368 OFFCURVE",
"167 372 QCURVE SMOOTH",
"167 591 LINE SMOOTH",
"167 646 OFFCURVE",
"178 678 QCURVE",
"177 683 OFFCURVE",
"169 694 OFFCURVE",
"165 694 QCURVE SMOOTH",
"163 694 LINE",
"158 691 LINE",
"154 688 OFFCURVE",
"134 679 OFFCURVE",
"105 669 OFFCURVE",
"54 659 OFFCURVE",
"24 656 QCURVE",
"18 656 OFFCURVE",
"18 640 QCURVE SMOOTH",
"18 629 OFFCURVE",
"24 629 QCURVE SMOOTH",
"33 629 LINE SMOOTH",
"79 629 OFFCURVE",
"84 613 QCURVE",
"90 583 OFFCURVE",
"90 549 QCURVE SMOOTH",
"90 115 LINE SMOOTH",
"90 75 OFFCURVE",
"83 46 QCURVE",
"81 39 OFFCURVE",
"34 26 OFFCURVE",
"22 26 QCURVE SMOOTH",
"18 26 OFFCURVE",
"18 1 OFFCURVE",
"22 -3 QCURVE",
"125 2 OFFCURVE",
"131 2 QCURVE SMOOTH",
"138 2 OFFCURVE",
"238 -3 QCURVE",
"240 2 OFFCURVE",
"238 26 OFFCURVE",
"235 26 QCURVE SMOOTH",
"225 26 OFFCURVE",
"177 39 OFFCURVE",
"175 46 QCURVE SMOOTH",
"167 77 OFFCURVE",
"167 135 QCURVE SMOOTH",
"167 312 LINE SMOOTH",
"167 330 OFFCURVE",
"226 377 OFFCURVE",
"256 377 QCURVE SMOOTH",
"309 377 OFFCURVE",
"360 314 OFFCURVE",
"360 222 QCURVE SMOOTH",
"360 116 LINE SMOOTH",
"360 75 OFFCURVE",
"353 46 QCURVE",
"351 39 OFFCURVE",
"308 26 OFFCURVE",
"296 26 QCURVE SMOOTH",
"292 26 OFFCURVE",
"292 1 OFFCURVE",
"296 -3 QCURVE",
"398 2 OFFCURVE",
"401 2 QCURVE SMOOTH",
"408 2 OFFCURVE",
"508 -3 QCURVE",
"510 2 OFFCURVE",
"508 26 OFFCURVE",
"505 26 QCURVE SMOOTH",
"495 26 OFFCURVE",
"447 39 OFFCURVE",
"445 46 QCURVE SMOOTH",
"437 77 OFFCURVE",
"437 134 QCURVE SMOOTH",
"437 242 LINE SMOOTH",
"437 342 OFFCURVE",
"379 438 OFFCURVE",
"312 438 QCURVE SMOOTH"
);
}
);
width = 530;
}
);
note = h;
unicode = 0068;
},
{
glyphname = i;
layers = (
{
layerId = "0276F023-BC64-4582-8657-390FE5DB601E";
paths = (
{
closed = 1;
nodes = (
"156 543 OFFCURVE",
"185 572 OFFCURVE",
"185 614 OFFCURVE",
"156 643 OFFCURVE",
"114 643 OFFCURVE",
"85 614 OFFCURVE",
"85 572 OFFCURVE",
"114 543 OFFCURVE"
);
},
{
closed = 1;
nodes = (
"181 341 LINE SMOOTH",
"181 373 OFFCURVE",
"186 413 QCURVE",
"187 417 OFFCURVE",
"185 434 OFFCURVE",
"181 434 QCURVE SMOOTH",
"180 434 OFFCURVE",
"178 434 QCURVE",
"176 433 LINE",
"144 423 OFFCURVE",
"38 407 QCURVE SMOOTH",
"32 406 OFFCURVE",
"32 382 QCURVE SMOOTH",
"32 380 OFFCURVE",
"51 380 OFFCURVE",
"80 371 OFFCURVE",
"90 359 QCURVE",
"104 344 OFFCURVE",
"104 305 QCURVE SMOOTH",
"104 116 LINE SMOOTH",
"104 75 OFFCURVE",
"97 46 QCURVE",
"95 39 OFFCURVE",
"48 26 OFFCURVE",
"36 26 QCURVE SMOOTH",
"32 26 OFFCURVE",
"32 1 OFFCURVE",
"36 -3 QCURVE",
"138 2 OFFCURVE",
"152 2 OFFCURVE",
"252 -3 QCURVE",
"254 2 OFFCURVE",
"252 26 OFFCURVE",
"249 26 QCURVE SMOOTH",
"239 26 OFFCURVE",
"191 39 OFFCURVE",
"189 46 QCURVE SMOOTH",
"181 77 OFFCURVE",
"181 135 QCURVE SMOOTH"
);
}
);
width = 269;
}
);
note = i;
unicode = 0069;
},
{
glyphname = j;
layers = (
{
layerId = "0276F023-BC64-4582-8657-390FE5DB601E";
paths = (
{
closed = 1;
nodes = (
"85 45 LINE SMOOTH",
"85 -19 OFFCURVE",
"63 -117 OFFCURVE",
"31 -167 OFFCURVE",
"0 -197 OFFCURVE",
"-12 -203 QCURVE SMOOTH",
"-24 -209 LINE",
"-26 -211 OFFCURVE",
"-24 -216 QCURVE",
"-20 -225 OFFCURVE",
"-11 -231 QCURVE",
"21 -219 OFFCURVE",
"98 -159 OFFCURVE",
"123 -120 QCURVE SMOOTH",
"162 -59 OFFCURVE",
"162 68 QCURVE SMOOTH",
"162 341 LINE SMOOTH",
"162 373 OFFCURVE",
"167 413 QCURVE",
"168 417 OFFCURVE",
"166 434 OFFCURVE",
"162 434 QCURVE SMOOTH",
"162 434 OFFCURVE",
"158 433 OFFCURVE",
"157 433 QCURVE",
"125 423 OFFCURVE",
"19 407 QCURVE SMOOTH",
"13 406 OFFCURVE",
"13 382 QCURVE SMOOTH",
"13 380 OFFCURVE",
"32 380 OFFCURVE",
"61 371 OFFCURVE",
"71 359 QCURVE",
"85 344 OFFCURVE",
"85 305 QCURVE SMOOTH"
);
},
{
closed = 1;
nodes = (
"130 543 OFFCURVE",
"159 572 OFFCURVE",
"159 614 OFFCURVE",
"130 643 OFFCURVE",
"88 643 OFFCURVE",
"59 614 OFFCURVE",
"59 572 OFFCURVE",
"88 543 OFFCURVE"
);
}
);
width = 238;
}
);
note = j;
unicode = 006A;
},
{
glyphname = k;
layers = (
{
layerId = "0276F023-BC64-4582-8657-390FE5DB601E";
paths = (
{
closed = 1;
nodes = (
"395 373 OFFCURVE",
"443 385 OFFCURVE",
"456 385 QCURVE SMOOTH",
"458 385 OFFCURVE",
"462 397 OFFCURVE",
"461 411 OFFCURVE",
"457 413 QCURVE",
"440 412 OFFCURVE",
"395 410 OFFCURVE",
"362 408 OFFCURVE",
"347 408 QCURVE SMOOTH",
"268 408 LINE",
"260 405 OFFCURVE",
"267 385 QCURVE",
"268 383 OFFCURVE",
"312 379 OFFCURVE",
"312 367 QCURVE SMOOTH",
"312 361 OFFCURVE",
"304 349 OFFCURVE",
"282 329 OFFCURVE",
"258 309 OFFCURVE",
"210 269 OFFCURVE",
"188 250 QCURVE",
"184 246 OFFCURVE",
"163 241 QCURVE",
"163 591 LINE SMOOTH",
"163 646 OFFCURVE",
"174 678 QCURVE",
"173 683 OFFCURVE",
"165 694 OFFCURVE",
"161 694 QCURVE SMOOTH",
"159 694 LINE",
"154 691 LINE",
"150 688 OFFCURVE",
"130 679 OFFCURVE",
"101 669 OFFCURVE",
"50 659 OFFCURVE",
"20 656 QCURVE",
"14 656 OFFCURVE",
"14 640 QCURVE SMOOTH",
"14 629 OFFCURVE",
"20 629 QCURVE SMOOTH",
"29 629 LINE SMOOTH",
"75 629 OFFCURVE",
"80 613 QCURVE",
"86 583 OFFCURVE",
"86 549 QCURVE SMOOTH",
"86 116 LINE SMOOTH",
"86 75 OFFCURVE",
"79 46 QCURVE",
"77 39 OFFCURVE",
"30 26 OFFCURVE",
"18 26 QCURVE SMOOTH",
"14 26 OFFCURVE",
"14 1 OFFCURVE",
"18 -3 QCURVE",
"121 2 OFFCURVE",
"127 2 QCURVE SMOOTH",
"134 2 OFFCURVE",
"234 -3 QCURVE",
"236 2 OFFCURVE",
"234 26 OFFCURVE",
"231 26 QCURVE SMOOTH",
"221 26 OFFCURVE",
"173 39 OFFCURVE",
"171 46 QCURVE SMOOTH",
"165 69 OFFCURVE",
"163 135 QCURVE",
"163 195 LINE",
"175 198 LINE",
"321 40 LINE",
"322 39 OFFCURVE",
"322 37 QCURVE SMOOTH",
"322 32 OFFCURVE",
"296 24 OFFCURVE",
"286 24 QCURVE SMOOTH",
"282 24 OFFCURVE",
"282 1 OFFCURVE",
"286 -3 QCURVE",
"388 2 OFFCURVE",
"390 2 QCURVE SMOOTH",
"399 2 OFFCURVE",
"499 -3 QCURVE",
"500 -1 OFFCURVE",
"500 8 QCURVE SMOOTH",
"500 24 OFFCURVE",
"496 24 QCURVE SMOOTH",
"485 24 OFFCURVE",
"433 39 OFFCURVE",
"416 53 QCURVE",
"406 62 OFFCURVE",
"352 121 OFFCURVE",
"268 216 OFFCURVE",
"239 247 QCURVE",
"274 283 OFFCURVE",
"370 358 OFFCURVE",
"387 368 QCURVE SMOOTH"
);
}
);
width = 496;
}
);
note = k;
unicode = 006B;
},
{
glyphname = l;
layers = (
{
layerId = "0276F023-BC64-4582-8657-390FE5DB601E";
paths = (
{
closed = 1;
nodes = (
"87 75 OFFCURVE",
"80 46 QCURVE",
"78 39 OFFCURVE",
"31 26 OFFCURVE",
"19 26 QCURVE SMOOTH",
"15 26 OFFCURVE",
"15 1 OFFCURVE",
"19 -3 QCURVE",
"122 2 OFFCURVE",
"128 2 QCURVE SMOOTH",
"135 2 OFFCURVE",
"235 -3 QCURVE",
"237 2 OFFCURVE",
"235 26 OFFCURVE",
"232 26 QCURVE SMOOTH",
"222 26 OFFCURVE",
"174 39 OFFCURVE",
"172 46 QCURVE SMOOTH",
"164 77 OFFCURVE",
"164 135 QCURVE SMOOTH",
"164 591 LINE SMOOTH",
"164 646 OFFCURVE",
"175 678 QCURVE",
"174 683 OFFCURVE",
"166 694 OFFCURVE",
"162 694 QCURVE SMOOTH",
"160 694 LINE",
"156 691 LINE",
"151 688 OFFCURVE",
"131 679 OFFCURVE",
"102 669 OFFCURVE",
"51 659 OFFCURVE",
"21 656 QCURVE",
"15 656 OFFCURVE",
"15 640 QCURVE SMOOTH",
"15 629 OFFCURVE",
"21 629 QCURVE SMOOTH",
"30 629 LINE SMOOTH",
"76 629 OFFCURVE",
"81 613 QCURVE",
"87 583 OFFCURVE",
"87 549 QCURVE SMOOTH",
"87 116 LINE SMOOTH"
);
}
);
width = 251;
}
);
note = l;
unicode = 006C;
},
{
glyphname = m;
layers = (
{
layerId = "0276F023-BC64-4582-8657-390FE5DB601E";
paths = (
{
closed = 1;
nodes = (
"284 438 OFFCURVE",
"205 395 OFFCURVE",
"182 371 QCURVE SMOOTH",
"180 369 OFFCURVE",
"179 369 QCURVE SMOOTH",
"177 369 OFFCURVE",
"177 373 QCURVE SMOOTH",
"177 385 OFFCURVE",
"181 413 QCURVE",
"182 417 OFFCURVE",
"180 434 OFFCURVE",
"176 434 QCURVE SMOOTH",
"176 434 OFFCURVE",
"172 433 OFFCURVE",
"171 433 QCURVE",
"139 423 OFFCURVE",
"33 407 QCURVE SMOOTH",
"27 406 OFFCURVE",
"27 382 QCURVE SMOOTH",
"27 380 OFFCURVE",
"46 380 OFFCURVE",
"75 371 OFFCURVE",
"85 359 QCURVE",
"99 344 OFFCURVE",
"99 305 QCURVE SMOOTH",
"99 116 LINE SMOOTH",
"99 75 OFFCURVE",
"92 46 QCURVE",
"90 39 OFFCURVE",
"43 26 OFFCURVE",
"31 26 QCURVE SMOOTH",
"27 26 OFFCURVE",
"27 1 OFFCURVE",
"31 -3 QCURVE",
"134 2 OFFCURVE",
"140 2 QCURVE SMOOTH",
"147 2 OFFCURVE",
"247 -3 QCURVE",
"249 2 OFFCURVE",
"247 26 OFFCURVE",
"244 26 QCURVE SMOOTH",
"234 26 OFFCURVE",
"186 39 OFFCURVE",
"184 46 QCURVE SMOOTH",
"176 77 OFFCURVE",
"176 135 QCURVE SMOOTH",
"176 311 LINE SMOOTH",
"176 332 OFFCURVE",
"237 377 OFFCURVE",
"267 377 QCURVE SMOOTH",
"363 377 OFFCURVE",
"363 218 QCURVE SMOOTH",
"363 116 LINE SMOOTH",
"363 75 OFFCURVE",
"356 46 QCURVE",
"354 39 OFFCURVE",
"307 26 OFFCURVE",
"295 26 QCURVE SMOOTH",
"291 26 OFFCURVE",
"291 1 OFFCURVE",
"295 -3 QCURVE",
"398 2 OFFCURVE",
"404 2 QCURVE SMOOTH",
"411 2 OFFCURVE",
"511 -3 QCURVE",
"513 2 OFFCURVE",
"511 26 OFFCURVE",
"508 26 QCURVE SMOOTH",
"498 26 OFFCURVE",
"450 39 OFFCURVE",
"448 46 QCURVE SMOOTH",
"440 77 OFFCURVE",
"440 126 QCURVE SMOOTH",
"440 239 LINE SMOOTH",
"440 286 OFFCURVE",
"436 311 QCURVE",
"436 312 OFFCURVE",
"436 316 QCURVE",
"435 320 LINE",
"435 334 OFFCURVE",
"489 377 OFFCURVE",
"526 377 QCURVE SMOOTH",
"627 377 OFFCURVE",
"627 223 QCURVE SMOOTH",
"627 110 LINE SMOOTH",
"627 75 OFFCURVE",
"620 46 QCURVE",
"618 39 OFFCURVE",
"571 26 OFFCURVE",
"559 26 QCURVE SMOOTH",
"555 26 OFFCURVE",
"555 1 OFFCURVE",
"559 -3 QCURVE",
"662 2 OFFCURVE",
"668 2 QCURVE SMOOTH",
"675 2 OFFCURVE",
"775 -3 QCURVE",
"777 2 OFFCURVE",
"775 26 OFFCURVE",
"772 26 QCURVE SMOOTH",
"762 26 OFFCURVE",
"714 39 OFFCURVE",
"712 46 QCURVE SMOOTH",
"704 77 OFFCURVE",
"704 135 QCURVE SMOOTH",
"704 246 LINE SMOOTH",
"704 438 OFFCURVE",
"578 438 QCURVE SMOOTH",
"498 438 OFFCURVE",
"423 367 QCURVE",
"413 395 OFFCURVE",
"360 438 OFFCURVE",
"320 438 QCURVE SMOOTH"
);
}
);
width = 800;
}
);
note = m;
unicode = 006D;
},
{
glyphname = n;
layers = (
{
layerId = "0276F023-BC64-4582-8657-390FE5DB601E";
paths = (
{
closed = 1;
nodes = (
"286 438 OFFCURVE",
"207 395 OFFCURVE",
"184 371 QCURVE SMOOTH",
"182 369 OFFCURVE",
"181 369 QCURVE SMOOTH",
"179 369 OFFCURVE",
"179 373 QCURVE SMOOTH",
"179 385 OFFCURVE",
"183 413 QCURVE",
"184 417 OFFCURVE",
"182 434 OFFCURVE",
"178 434 QCURVE SMOOTH",
"178 434 OFFCURVE",
"174 433 OFFCURVE",
"173 433 QCURVE",
"141 423 OFFCURVE",
"35 407 QCURVE SMOOTH",
"29 406 OFFCURVE",
"29 382 QCURVE SMOOTH",
"29 380 OFFCURVE",
"48 380 OFFCURVE",
"77 371 OFFCURVE",
"87 359 QCURVE",
"101 344 OFFCURVE",
"101 305 QCURVE SMOOTH",
"101 116 LINE SMOOTH",
"101 75 OFFCURVE",
"94 46 QCURVE",
"92 39 OFFCURVE",
"45 26 OFFCURVE",
"33 26 QCURVE SMOOTH",
"29 26 OFFCURVE",
"29 1 OFFCURVE",
"33 -3 QCURVE",
"136 2 OFFCURVE",
"142 2 QCURVE SMOOTH",
"149 2 OFFCURVE",
"249 -3 QCURVE",
"251 2 OFFCURVE",
"249 26 OFFCURVE",
"246 26 QCURVE SMOOTH",
"236 26 OFFCURVE",
"188 39 OFFCURVE",
"186 46 QCURVE SMOOTH",
"178 77 OFFCURVE",
"178 135 QCURVE SMOOTH",
"178 311 LINE SMOOTH",
"178 330 OFFCURVE",
"237 377 OFFCURVE",
"269 377 QCURVE SMOOTH",
"323 377 OFFCURVE",
"371 309 OFFCURVE",
"371 216 QCURVE SMOOTH",
"371 116 LINE SMOOTH",
"371 75 OFFCURVE",
"364 46 QCURVE",
"362 39 OFFCURVE",
"319 26 OFFCURVE",
"307 26 QCURVE SMOOTH",
"303 26 OFFCURVE",
"303 1 OFFCURVE",
"307 -3 QCURVE",
"410 2 OFFCURVE",
"412 2 QCURVE SMOOTH",
"419 2 OFFCURVE",
"519 -3 QCURVE",
"521 2 OFFCURVE",
"519 26 OFFCURVE",
"516 26 QCURVE SMOOTH",
"506 26 OFFCURVE",
"458 39 OFFCURVE",
"456 46 QCURVE SMOOTH",
"448 77 OFFCURVE",
"448 135 QCURVE SMOOTH",
"448 226 LINE SMOOTH",
"448 338 OFFCURVE",
"392 438 OFFCURVE",
"322 438 QCURVE SMOOTH"
);
}
);
width = 543;
}
);
note = n;
unicode = 006E;
},
{
glyphname = o;
layers = (
{
layerId = "0276F023-BC64-4582-8657-390FE5DB601E";
paths = (
{
closed = 1;
nodes = (
"300 398 OFFCURVE",
"386 283 OFFCURVE",
"386 202 QCURVE SMOOTH",
"386 132 OFFCURVE",
"318 32 OFFCURVE",
"265 32 QCURVE SMOOTH",
"208 32 OFFCURVE",
"123 149 OFFCURVE",
"123 231 QCURVE SMOOTH",
"123 301 OFFCURVE",
"190 398 OFFCURVE",
"243 398 QCURVE SMOOTH"
);
},
{
closed = 1;
nodes = (
"161 437 OFFCURVE",
"37 309 OFFCURVE",
"37 216 QCURVE SMOOTH",
"37 124 OFFCURVE",
"165 -7 OFFCURVE",
"347 -7 OFFCURVE",
"472 124 OFFCURVE",
"472 216 QCURVE SMOOTH",
"472 307 OFFCURVE",
"344 437 OFFCURVE",
"254 437 QCURVE SMOOTH"
);
}
);
width = 510;
}
);
note = o;
unicode = 006F;
},
{
glyphname = p;
layers = (
{
layerId = "0276F023-BC64-4582-8657-390FE5DB601E";
paths = (
{
closed = 1;
nodes = (
"246 436 OFFCURVE",
"181 411 OFFCURVE",
"167 401 QCURVE",
"167 407 LINE SMOOTH",
"167 408 OFFCURVE",
"169 424 OFFCURVE",
"169 435 OFFCURVE",
"166 435 QCURVE SMOOTH",
"166 435 OFFCURVE",
"162 434 OFFCURVE",
"161 434 QCURVE",
"129 424 OFFCURVE",
"23 408 QCURVE SMOOTH",
"17 407 OFFCURVE",
"17 383 QCURVE SMOOTH",
"17 381 OFFCURVE",
"36 381 OFFCURVE",
"65 372 OFFCURVE",
"75 360 QCURVE",
"89 345 OFFCURVE",
"89 306 QCURVE SMOOTH",
"89 -107 LINE SMOOTH",
"89 -148 OFFCURVE",
"82 -177 QCURVE",
"80 -184 OFFCURVE",
"33 -197 OFFCURVE",
"21 -197 QCURVE SMOOTH",
"17 -197 OFFCURVE",
"17 -222 OFFCURVE",
"21 -226 QCURVE",
"124 -221 OFFCURVE",
"130 -221 QCURVE SMOOTH",
"137 -221 OFFCURVE",
"237 -226 QCURVE",
"239 -222 OFFCURVE",
"237 -197 OFFCURVE",
"234 -197 QCURVE SMOOTH",
"224 -197 OFFCURVE",
"176 -184 OFFCURVE",
"174 -177 QCURVE SMOOTH",
"166 -146 OFFCURVE",
"166 -88 QCURVE SMOOTH",
"166 -2 LINE SMOOTH",
"166 6 OFFCURVE",
"170 11 QCURVE",
"172 10 OFFCURVE",
"188 3 OFFCURVE",
"198 -1 OFFCURVE",
"216 -6 OFFCURVE",
"239 -8 OFFCURVE",
"254 -8 QCURVE SMOOTH",
"339 -8 OFFCURVE",
"473 138 OFFCURVE",
"473 234 QCURVE SMOOTH",
"473 307 OFFCURVE",
"365 436 OFFCURVE",
"269 436 QCURVE SMOOTH"
);
},
{
closed = 1;
nodes = (
"298 387 OFFCURVE",
"387 290 OFFCURVE",
"387 206 QCURVE SMOOTH",
"387 140 OFFCURVE",
"317 34 OFFCURVE",
"258 34 QCURVE SMOOTH",
"224 34 OFFCURVE",
"166 71 OFFCURVE",
"166 98 QCURVE SMOOTH",
"166 323 LINE SMOOTH",
"166 354 OFFCURVE",
"206 387 OFFCURVE",
"237 387 QCURVE SMOOTH"
);
}
);
width = 511;
}
);
note = p;
unicode = 0070;
},
{
glyphname = q;
layers = (
{
layerId = "0276F023-BC64-4582-8657-390FE5DB601E";
paths = (
{
closed = 1;
nodes = (
"175 440 OFFCURVE",
"38 291 OFFCURVE",
"38 203 QCURVE SMOOTH",
"38 122 OFFCURVE",
"153 -4 OFFCURVE",
"240 -4 QCURVE SMOOTH",
"276 -4 OFFCURVE",
"336 26 QCURVE SMOOTH",
"340 28 OFFCURVE",
"343 21 OFFCURVE",
"343 16 QCURVE SMOOTH",
"343 -108 LINE SMOOTH",
"343 -149 OFFCURVE",
"336 -178 QCURVE",
"334 -185 OFFCURVE",
"287 -198 OFFCURVE",
"275 -198 QCURVE SMOOTH",
"271 -198 OFFCURVE",
"271 -223 OFFCURVE",
"275 -227 QCURVE",
"378 -222 OFFCURVE",
"384 -222 QCURVE SMOOTH",
"391 -222 OFFCURVE",
"491 -227 QCURVE",
"493 -222 OFFCURVE",
"491 -198 OFFCURVE",
"488 -198 QCURVE SMOOTH",
"478 -198 OFFCURVE",
"430 -185 OFFCURVE",
"428 -178 QCURVE SMOOTH",
"420 -147 OFFCURVE",
"420 -101 QCURVE SMOOTH",
"420 293 LINE SMOOTH",
"420 330 OFFCURVE",
"428 392 OFFCURVE",
"436 426 OFFCURVE",
"436 427 QCURVE SMOOTH",
"436 431 OFFCURVE",
"418 437 OFFCURVE",
"415 437 QCURVE SMOOTH",
"413 437 OFFCURVE",
"386 429 OFFCURVE",
"377 429 QCURVE SMOOTH",
"372 429 OFFCURVE",
"302 440 OFFCURVE",
"265 440 QCURVE SMOOTH"
);
},
{
closed = 1;
nodes = (
"293 398 OFFCURVE",
"343 364 OFFCURVE",
"343 337 QCURVE SMOOTH",
"343 105 LINE SMOOTH",
"343 72 OFFCURVE",
"298 45 OFFCURVE",
"275 45 QCURVE SMOOTH",
"212 45 OFFCURVE",
"124 137 OFFCURVE",
"124 226 QCURVE SMOOTH",
"124 263 OFFCURVE",
"145 336 OFFCURVE",
"204 398 OFFCURVE",
"248 398 QCURVE SMOOTH"
);
}
);
width = 489;
}
);
note = q;
unicode = 0071;
},
{
glyphname = r;
layers = (
{
layerId = "0276F023-BC64-4582-8657-390FE5DB601E";
paths = (
{
closed = 1;
nodes = (
"262 437 OFFCURVE",
"199 390 OFFCURVE",
"181 363 QCURVE",
"187 413 LINE",
"188 417 OFFCURVE",
"186 434 OFFCURVE",
"182 434 QCURVE SMOOTH",
"182 434 OFFCURVE",
"178 433 OFFCURVE",
"177 433 QCURVE",
"145 423 OFFCURVE",
"39 407 QCURVE SMOOTH",
"33 406 OFFCURVE",
"33 382 QCURVE SMOOTH",
"33 380 OFFCURVE",
"52 380 OFFCURVE",
"81 371 OFFCURVE",
"91 359 QCURVE",
"105 344 OFFCURVE",
"105 305 QCURVE SMOOTH",
"105 116 LINE SMOOTH",
"105 75 OFFCURVE",
"98 46 QCURVE",
"96 39 OFFCURVE",
"49 26 OFFCURVE",
"37 26 QCURVE SMOOTH",
"33 26 OFFCURVE",
"33 1 OFFCURVE",
"37 -3 QCURVE",
"140 2 OFFCURVE",
"146 2 QCURVE SMOOTH",
"154 2 OFFCURVE",
"254 -3 QCURVE",
"256 2 OFFCURVE",
"254 26 OFFCURVE",
"251 26 QCURVE SMOOTH",
"241 26 OFFCURVE",
"192 39 OFFCURVE",
"190 46 QCURVE SMOOTH",
"182 77 OFFCURVE",
"182 135 QCURVE SMOOTH",
"182 285 LINE SMOOTH",
"182 317 OFFCURVE",
"228 375 OFFCURVE",
"259 375 QCURVE SMOOTH",
"285 375 OFFCURVE",
"315 341 OFFCURVE",
"333 341 QCURVE SMOOTH",
"349 341 OFFCURVE",
"371 373 OFFCURVE",
"371 408 QCURVE",
"352 437 OFFCURVE",
"293 437 QCURVE SMOOTH"
);
}
);
width = 380;
}
);
note = r;
unicode = 0072;
},
{
glyphname = s;
layers = (
{
layerId = "0276F023-BC64-4582-8657-390FE5DB601E";
paths = (
{
closed = 1;
nodes = (
"133 437 OFFCURVE",
"46 369 OFFCURVE",
"46 315 QCURVE SMOOTH",
"46 253 OFFCURVE",
"124 208 QCURVE",
"135 201 OFFCURVE",
"181 177 OFFCURVE",
"206 162 OFFCURVE",
"235 139 OFFCURVE",
"248 110 OFFCURVE",
"248 93 QCURVE SMOOTH",
"248 60 OFFCURVE",
"207 25 OFFCURVE",
"175 25 QCURVE SMOOTH",
"138 25 OFFCURVE",
"75 82 OFFCURVE",
"69 112 QCURVE SMOOTH",
"68 118 OFFCURVE",
"53 118 QCURVE SMOOTH",
"49 118 OFFCURVE",
"41 112 QCURVE",
"41 92 OFFCURVE",
"52 24 OFFCURVE",
"58 8 QCURVE",
"71 6 OFFCURVE",
"119 -6 OFFCURVE",
"154 -11 OFFCURVE",
"175 -11 QCURVE SMOOTH",
"237 -11 OFFCURVE",
"329 68 OFFCURVE",
"329 127 QCURVE SMOOTH",
"329 142 OFFCURVE",
"316 171 OFFCURVE",
"302 190 OFFCURVE",
"271 214 OFFCURVE",
"255 224 OFFCURVE",
"216 247 OFFCURVE",
"212 249 QCURVE",
"207 252 OFFCURVE",
"166 275 OFFCURVE",
"154 284 OFFCURVE",
"131 305 OFFCURVE",
"123 328 OFFCURVE",
"123 343 QCURVE SMOOTH",
"123 402 OFFCURVE",
"195 402 QCURVE SMOOTH",
"225 402 OFFCURVE",
"272 352 OFFCURVE",
"277 324 QCURVE SMOOTH",
"278 317 OFFCURVE",
"292 317 QCURVE SMOOTH",
"305 317 OFFCURVE",
"305 322 QCURVE",
"303 378 OFFCURVE",
"293 424 QCURVE",
"280 426 OFFCURVE",
"213 437 OFFCURVE",
"191 437 QCURVE SMOOTH"
);
}
);
width = 359;
}
);
note = s;
unicode = 0073;
},
{
glyphname = t;
layers = (
{
layerId = "0276F023-BC64-4582-8657-390FE5DB601E";
paths = (
{
closed = 1;
nodes = (
"80 120 LINE SMOOTH",
"80 59 OFFCURVE",
"147 -7 OFFCURVE",
"197 -7 QCURVE SMOOTH",
"230 -7 OFFCURVE",
"292 24 OFFCURVE",
"307 40 QCURVE SMOOTH",
"308 41 OFFCURVE",
"296 62 OFFCURVE",
"293 60 QCURVE",
"261 41 OFFCURVE",
"231 41 QCURVE SMOOTH",
"198 41 OFFCURVE",
"157 89 OFFCURVE",
"157 129 QCURVE SMOOTH",
"157 374 LINE",
"290 374 LINE",
"300 394 OFFCURVE",
"300 412 QCURVE SMOOTH",
"300 421 OFFCURVE",
"292 421 QCURVE SMOOTH",
"289 421 OFFCURVE",
"183 422 OFFCURVE",
"157 422 QCURVE",
"157 521 LINE SMOOTH",
"157 526 OFFCURVE",
"127 526 QCURVE",
"127 525 OFFCURVE",
"113 501 OFFCURVE",
"92 468 OFFCURVE",
"81 455 QCURVE SMOOTH",
"47 415 OFFCURVE",
"18 402 QCURVE",
"17 401 OFFCURVE",
"17 395 QCURVE SMOOTH",
"17 374 OFFCURVE",
"22 374 QCURVE SMOOTH",
"80 374 LINE"
);
}
);
width = 314;
}
);
note = t;
unicode = 0074;
},
{
glyphname = u;
layers = (
{
layerId = "0276F023-BC64-4582-8657-390FE5DB601E";
paths = (
{
closed = 1;
nodes = (
"435 365 OFFCURVE",
"441 413 QCURVE",
"442 417 OFFCURVE",
"440 434 OFFCURVE",
"436 434 QCURVE SMOOTH",
"436 434 OFFCURVE",
"432 433 OFFCURVE",
"431 433 QCURVE",
"399 423 OFFCURVE",
"293 407 QCURVE SMOOTH",
"287 406 OFFCURVE",
"287 382 QCURVE SMOOTH",
"287 380 OFFCURVE",
"306 380 OFFCURVE",
"335 371 OFFCURVE",
"345 359 QCURVE",
"359 344 OFFCURVE",
"359 305 QCURVE SMOOTH",
"359 118 LINE SMOOTH",
"359 101 OFFCURVE",
"305 54 OFFCURVE",
"275 54 QCURVE SMOOTH",
"223 54 OFFCURVE",
"177 127 OFFCURVE",
"177 204 QCURVE SMOOTH",
"177 339 LINE SMOOTH",
"177 365 OFFCURVE",
"183 413 QCURVE",
"184 417 OFFCURVE",
"182 434 OFFCURVE",
"178 434 QCURVE SMOOTH",
"178 434 OFFCURVE",
"174 433 OFFCURVE",
"173 433 QCURVE",
"141 423 OFFCURVE",
"35 407 QCURVE SMOOTH",
"29 406 OFFCURVE",
"29 382 QCURVE SMOOTH",
"29 380 OFFCURVE",
"48 380 OFFCURVE",
"77 371 OFFCURVE",
"87 359 QCURVE",
"101 344 OFFCURVE",
"101 305 QCURVE SMOOTH",
"101 179 LINE SMOOTH",
"101 148 OFFCURVE",
"111 91 OFFCURVE",
"136 30 OFFCURVE",
"189 -7 OFFCURVE",
"226 -7 QCURVE SMOOTH",
"291 -7 OFFCURVE",
"357 64 QCURVE",
"359 59 LINE",
"359 8 LINE SMOOTH",
"359 -8 OFFCURVE",
"367 -8 QCURVE",
"376 -6 LINE",
"384 -3 OFFCURVE",
"412 5 OFFCURVE",
"444 13 OFFCURVE",
"481 19 OFFCURVE",
"496 20 QCURVE",
"499 20 OFFCURVE",
"504 33 OFFCURVE",
"504 36 QCURVE SMOOTH",
"504 46 OFFCURVE",
"501 47 QCURVE",
"492 48 LINE",
"482 48 OFFCURVE",
"462 50 OFFCURVE",
"444 58 OFFCURVE",
"442 65 QCURVE",
"435 98 OFFCURVE",
"435 141 QCURVE SMOOTH",
"435 341 LINE SMOOTH"
);
}
);
width = 517;
}
);
note = u;
unicode = 0075;
},
{
glyphname = v;
layers = (
{
layerId = "0276F023-BC64-4582-8657-390FE5DB601E";
paths = (
{
closed = 1;
nodes = (
"383 362 OFFCURVE",
"375 343 QCURVE SMOOTH",
"274 113 LINE",
"154 384 LINE",
"153 386 OFFCURVE",
"153 388 QCURVE SMOOTH",
"153 405 OFFCURVE",
"202 405 QCURVE SMOOTH",
"205 405 OFFCURVE",
"208 430 OFFCURVE",
"206 434 QCURVE",
"106 429 LINE",
"105 429 OFFCURVE",
"2 434 QCURVE",
"-2 430 OFFCURVE",
"-2 418 QCURVE SMOOTH",
"-2 405 OFFCURVE",
"2 405 QCURVE SMOOTH",
"51 405 OFFCURVE",
"61 385 QCURVE SMOOTH",
"104 300 OFFCURVE",
"219 30 OFFCURVE",
"236 -7 QCURVE SMOOTH",
"238 -11 OFFCURVE",
"252 -11 OFFCURVE",
"272 5 OFFCURVE",
"274 12 QCURVE",
"433 371 LINE SMOOTH",
"441 389 OFFCURVE",
"487 405 OFFCURVE",
"501 405 QCURVE SMOOTH",
"508 405 OFFCURVE",
"508 419 QCURVE SMOOTH",
"508 428 OFFCURVE",
"506 434 QCURVE",
"406 429 LINE",
"382 429 OFFCURVE",
"322 433 OFFCURVE",
"311 434 QCURVE",
"307 430 OFFCURVE",
"307 405 OFFCURVE",
"311 405 QCURVE SMOOTH",
"383 405 OFFCURVE",
"383 373 QCURVE SMOOTH"
);
}
);
width = 493;
}
);
note = v;
unicode = 0076;
},
{
glyphname = w;
layers = (
{
layerId = "0276F023-BC64-4582-8657-390FE5DB601E";
paths = (
{
closed = 1;
nodes = (
"623 359 OFFCURVE",
"602 296 OFFCURVE",
"556 166 OFFCURVE",
"541 120 QCURVE",
"431 345 OFFCURVE",
"431 366 QCURVE SMOOTH",
"431 405 OFFCURVE",
"479 405 QCURVE",
"482 406 OFFCURVE",
"482 428 OFFCURVE",
"480 434 QCURVE",
"466 433 OFFCURVE",
"428 431 OFFCURVE",
"399 429 OFFCURVE",
"382 429 QCURVE SMOOTH",
"364 429 OFFCURVE",
"335 431 OFFCURVE",
"300 433 OFFCURVE",
"285 434 QCURVE",
"281 430 OFFCURVE",
"281 405 OFFCURVE",
"285 405 QCURVE SMOOTH",
"307 405 OFFCURVE",
"317 400 QCURVE SMOOTH",
"330 394 OFFCURVE",
"336 385 QCURVE",
"341 376 LINE",
"346 368 OFFCURVE",
"355 346 OFFCURVE",
"355 341 QCURVE SMOOTH",
"355 337 OFFCURVE",
"338 287 OFFCURVE",
"296 169 OFFCURVE",
"279 120 QCURVE",
"247 192 OFFCURVE",
"185 325 OFFCURVE",
"160 379 OFFCURVE",
"160 382 QCURVE SMOOTH",
"160 405 OFFCURVE",
"210 405 QCURVE SMOOTH",
"213 405 OFFCURVE",
"214 430 OFFCURVE",
"212 434 QCURVE",
"112 429 LINE",
"94 429 OFFCURVE",
"64 431 OFFCURVE",
"28 433 OFFCURVE",
"13 434 QCURVE",
"9 430 OFFCURVE",
"9 418 QCURVE SMOOTH",
"9 405 OFFCURVE",
"13 405 QCURVE SMOOTH",
"54 405 OFFCURVE",
"67 383 QCURVE SMOOTH",
"103 319 OFFCURVE",
"157 198 OFFCURVE",
"218 47 OFFCURVE",
"242 -7 QCURVE",
"244 -11 OFFCURVE",
"254 -11 QCURVE SMOOTH",
"261 -11 OFFCURVE",
"274 -1 OFFCURVE",
"280 8 OFFCURVE",
"281 11 QCURVE SMOOTH",
"382 287 LINE",
"505 -7 LINE",
"507 -11 OFFCURVE",
"517 -11 QCURVE SMOOTH",
"537 -11 OFFCURVE",
"545 11 QCURVE SMOOTH",
"676 369 LINE SMOOTH",
"683 388 OFFCURVE",
"727 405 OFFCURVE",
"740 405 QCURVE SMOOTH",
"745 405 OFFCURVE",
"745 419 QCURVE SMOOTH",
"745 428 OFFCURVE",
"743 434 QCURVE",
"728 433 OFFCURVE",
"696 431 OFFCURVE",
"671 429 OFFCURVE",
"654 429 QCURVE SMOOTH",
"636 429 OFFCURVE",
"605 431 OFFCURVE",
"568 433 OFFCURVE",
"553 434 QCURVE",
"549 430 OFFCURVE",
"549 405 OFFCURVE",
"553 405 QCURVE SMOOTH",
"557 405 LINE SMOOTH",
"623 405 OFFCURVE",
"623 370 QCURVE SMOOTH"
);
}
);
width = 734;
}
);
note = w;
unicode = 0077;
},
{
glyphname = x;
layers = (
{
layerId = "0276F023-BC64-4582-8657-390FE5DB601E";
paths = (
{
closed = 1;
nodes = (
"16 405 LINE",
"33 405 OFFCURVE",
"89 383 OFFCURVE",
"98 370 QCURVE SMOOTH",
"201 219 LINE",
"203 215 OFFCURVE",
"203 213 QCURVE SMOOTH",
"203 212 OFFCURVE",
"202 208 OFFCURVE",
"202 207 QCURVE",
"98 68 LINE SMOOTH",
"75 36 OFFCURVE",
"8 26 QCURVE",
"4 26 OFFCURVE",
"4 11 QCURVE SMOOTH",
"4 5 OFFCURVE",
"6 -3 QCURVE",
"101 2 OFFCURVE",
"103 2 QCURVE SMOOTH",
"106 2 OFFCURVE",
"203 -3 QCURVE",
"207 1 OFFCURVE",
"207 11 QCURVE SMOOTH",
"207 26 OFFCURVE",
"204 26 QCURVE SMOOTH",
"202 26 OFFCURVE",
"199 26 QCURVE",
"149 30 OFFCURVE",
"149 48 QCURVE SMOOTH",
"149 56 OFFCURVE",
"156 67 QCURVE SMOOTH",
"225 170 LINE",
"301 50 LINE",
"303 46 OFFCURVE",
"303 44 QCURVE SMOOTH",
"303 29 OFFCURVE",
"261 26 QCURVE",
"258 26 OFFCURVE",
"258 10 QCURVE SMOOTH",
"258 7 OFFCURVE",
"260 -3 QCURVE",
"368 2 OFFCURVE",
"371 2 QCURVE SMOOTH",
"372 2 OFFCURVE",
"465 -3 QCURVE",
"469 2 OFFCURVE",
"469 12 QCURVE SMOOTH",
"469 26 OFFCURVE",
"466 26 QCURVE",
"409 30 OFFCURVE",
"382 70 QCURVE SMOOTH",
"275 228 LINE",
"272 234 OFFCURVE",
"272 239 QCURVE SMOOTH",
"272 243 OFFCURVE",
"274 246 QCURVE",
"370 371 LINE SMOOTH",
"391 397 OFFCURVE",
"457 405 QCURVE",
"460 405 OFFCURVE",
"460 420 QCURVE SMOOTH",
"460 424 OFFCURVE",
"458 434 QCURVE",
"370 429 OFFCURVE",
"364 429 OFFCURVE",
"262 434 QCURVE",
"259 430 OFFCURVE",
"259 421 QCURVE SMOOTH",
"259 406 OFFCURVE",
"262 405 QCURVE",
"264 404 OFFCURVE",
"293 403 OFFCURVE",
"316 396 OFFCURVE",
"316 387 QCURVE SMOOTH",
"316 380 OFFCURVE",
"302 352 OFFCURVE",
"285 327 OFFCURVE",
"257 286 OFFCURVE",
"250 275 QCURVE",
"185 376 LINE SMOOTH",
"180 384 OFFCURVE",
"180 388 QCURVE SMOOTH",
"180 405 OFFCURVE",
"220 405 QCURVE SMOOTH",
"223 405 OFFCURVE",
"223 422 QCURVE SMOOTH",
"223 430 OFFCURVE",
"222 434 QCURVE",
"119 429 OFFCURVE",
"117 429 QCURVE SMOOTH",
"114 429 OFFCURVE",
"17 434 QCURVE",
"15 430 OFFCURVE",
"13 420 QCURVE"
);
}
);
width = 467;
}
);
note = x;
unicode = 0078;
},
{
glyphname = y;
layers = (
{
layerId = "0276F023-BC64-4582-8657-390FE5DB601E";
paths = (
{
closed = 1;
nodes = (
"109 429 OFFCURVE",
"6 434 QCURVE",
"2 430 OFFCURVE",
"2 418 QCURVE SMOOTH",
"2 405 OFFCURVE",
"6 405 QCURVE SMOOTH",
"17 405 OFFCURVE",
"54 393 OFFCURVE",
"63 384 QCURVE",
"72 374 OFFCURVE",
"83 350 QCURVE",
"226 0 LINE",
"222 -13 OFFCURVE",
"208 -55 OFFCURVE",
"203 -70 QCURVE SMOOTH",
"176 -156 OFFCURVE",
"93 -156 QCURVE",
"79 -166 OFFCURVE",
"79 -188 QCURVE SMOOTH",
"79 -201 OFFCURVE",
"99 -227 OFFCURVE",
"120 -227 QCURVE SMOOTH",
"144 -227 OFFCURVE",
"202 -178 OFFCURVE",
"225 -116 QCURVE SMOOTH",
"404 367 LINE SMOOTH",
"411 387 OFFCURVE",
"456 405 OFFCURVE",
"469 405 QCURVE SMOOTH",
"473 405 OFFCURVE",
"473 419 QCURVE SMOOTH",
"473 428 OFFCURVE",
"471 434 QCURVE",
"458 433 OFFCURVE",
"406 429 OFFCURVE",
"384 429 QCURVE SMOOTH",
"360 429 OFFCURVE",
"308 433 OFFCURVE",
"295 434 QCURVE",
"291 430 OFFCURVE",
"291 418 QCURVE SMOOTH",
"291 405 OFFCURVE",
"295 405 QCURVE SMOOTH",
"321 405 OFFCURVE",
"352 386 OFFCURVE",
"352 371 QCURVE SMOOTH",
"352 361 OFFCURVE",
"345 340 QCURVE SMOOTH",
"269 121 LINE",
"162 364 OFFCURVE",
"162 382 QCURVE SMOOTH",
"162 384 LINE",
"164 391 OFFCURVE",
"201 405 OFFCURVE",
"209 405 QCURVE SMOOTH",
"213 405 OFFCURVE",
"213 419 QCURVE SMOOTH",
"213 428 OFFCURVE",
"211 434 QCURVE",
"197 433 OFFCURVE",
"160 431 OFFCURVE",
"131 429 OFFCURVE",
"114 429 QCURVE SMOOTH"
);
}
);
width = 454;
}
);
note = y;
unicode = 0079;
},
{
glyphname = z;
layers = (
{
layerId = "0276F023-BC64-4582-8657-390FE5DB601E";
paths = (
{
closed = 1;
nodes = (
"135 51 OFFCURVE",
"142 61 QCURVE SMOOTH",
"396 408 LINE",
"396 427 OFFCURVE",
"393 432 QCURVE",
"327 424 OFFCURVE",
"271 424 QCURVE SMOOTH",
"149 424 LINE SMOOTH",
"113 424 OFFCURVE",
"54 430 QCURVE",
"52 400 OFFCURVE",
"38 313 OFFCURVE",
"38 309 QCURVE SMOOTH",
"38 306 OFFCURVE",
"49 306 QCURVE SMOOTH",
"70 306 OFFCURVE",
"73 312 QCURVE",
"74 315 OFFCURVE",
"83 346 OFFCURVE",
"92 366 OFFCURVE",
"118 385 OFFCURVE",
"138 385 QCURVE SMOOTH",
"287 384 LINE",
"30 27 LINE",
"29 26 OFFCURVE",
"29 23 QCURVE SMOOTH",
"29 12 OFFCURVE",
"49 0 QCURVE",
"386 0 LINE",
"407 119 LINE",
"400 131 OFFCURVE",
"378 131 QCURVE SMOOTH",
"372 131 OFFCURVE",
"370 120 QCURVE",
"359 82 OFFCURVE",
"320 40 OFFCURVE",
"278 40 QCURVE SMOOTH",
"147 40 LINE SMOOTH",
"135 40 OFFCURVE",
"135 47 QCURVE SMOOTH"
);
}
);
width = 414;
}
);
note = z;
unicode = 007A;
},
{
glyphname = braceleft;
layers = (
{
layerId = "0276F023-BC64-4582-8657-390FE5DB601E";
paths = (
{
closed = 1;
nodes = (
"68 291 OFFCURVE",
"105 281 OFFCURVE",
"113 277 OFFCURVE",
"140 264 OFFCURVE",
"148 252 OFFCURVE",
"157 232 OFFCURVE",
"157 219 QCURVE SMOOTH",
"157 194 OFFCURVE",
"109 85 OFFCURVE",
"109 55 QCURVE SMOOTH",
"109 -22 OFFCURVE",
"201 -125 OFFCURVE",
"266 -125 QCURVE SMOOTH",
"270 -125 OFFCURVE",
"270 -118 QCURVE SMOOTH",
"270 -98 OFFCURVE",
"259 -96 QCURVE",
"231 -94 OFFCURVE",
"160 -26 OFFCURVE",
"160 18 QCURVE SMOOTH",
"160 53 OFFCURVE",
"211 154 OFFCURVE",
"211 197 QCURVE SMOOTH",
"211 243 OFFCURVE",
"156 307 OFFCURVE",
"126 308 QCURVE",
"155 309 OFFCURVE",
"210 377 OFFCURVE",
"210 423 QCURVE SMOOTH",
"210 466 OFFCURVE",
"160 578 OFFCURVE",
"160 613 QCURVE SMOOTH",
"160 657 OFFCURVE",
"230 719 OFFCURVE",
"259 721 QCURVE",
"270 723 OFFCURVE",
"270 742 QCURVE SMOOTH",
"270 750 OFFCURVE",
"266 750 QCURVE SMOOTH",
"199 750 OFFCURVE",
"107 657 OFFCURVE",
"107 575 QCURVE SMOOTH",
"107 543 OFFCURVE",
"157 431 OFFCURVE",
"157 381 OFFCURVE",
"127 348 OFFCURVE",
"96 336 OFFCURVE",
"67 329 QCURVE",
"63 322 OFFCURVE",
"63 298 OFFCURVE",
"66 292 QCURVE"
);
}
);
width = 324;
}
);
note = braceleft;
unicode = 007B;
},
{
glyphname = bar;
layers = (
{
layerId = "0276F023-BC64-4582-8657-390FE5DB601E";
paths = (
{
closed = 1;
nodes = (
"163 766 LINE",
"163 768 LINE SMOOTH",
"163 769 OFFCURVE",
"159 772 OFFCURVE",
"155 772 QCURVE SMOOTH",
"129 772 OFFCURVE",
"105 765 QCURVE",
"99 763 OFFCURVE",
"100 757 QCURVE",
"100 -115 LINE SMOOTH",
"100 -123 OFFCURVE",
"105 -123 QCURVE SMOOTH",
"111 -123 OFFCURVE",
"164 -111 OFFCURVE",
"164 -106 QCURVE"
);
}
);
width = 264;
}
);
note = bar;
unicode = 007C;
},
{
glyphname = braceright;
layers = (
{
layerId = "0276F023-BC64-4582-8657-390FE5DB601E";
paths = (
{
closed = 1;
nodes = (
"261 298 OFFCURVE",
"261 322 OFFCURVE",
"257 329 QCURVE",
"228 336 OFFCURVE",
"197 348 OFFCURVE",
"167 381 OFFCURVE",
"167 431 OFFCURVE",
"217 543 OFFCURVE",
"217 575 QCURVE SMOOTH",
"217 657 OFFCURVE",
"125 750 OFFCURVE",
"58 750 QCURVE SMOOTH",
"54 750 OFFCURVE",
"54 742 QCURVE SMOOTH",
"54 723 OFFCURVE",
"65 721 QCURVE",
"94 719 OFFCURVE",
"164 657 OFFCURVE",
"164 613 QCURVE SMOOTH",
"164 578 OFFCURVE",
"114 466 OFFCURVE",
"114 423 QCURVE SMOOTH",
"114 377 OFFCURVE",
"169 309 OFFCURVE",
"198 308 QCURVE",
"168 307 OFFCURVE",
"113 243 OFFCURVE",
"113 197 QCURVE SMOOTH",
"113 154 OFFCURVE",
"164 53 OFFCURVE",
"164 18 QCURVE SMOOTH",
"164 -26 OFFCURVE",
"93 -94 OFFCURVE",
"65 -96 QCURVE",
"54 -98 OFFCURVE",
"54 -118 QCURVE SMOOTH",
"54 -125 OFFCURVE",
"58 -125 QCURVE SMOOTH",
"123 -125 OFFCURVE",
"215 -22 OFFCURVE",
"215 55 QCURVE SMOOTH",
"215 85 OFFCURVE",
"167 194 OFFCURVE",
"167 219 QCURVE SMOOTH",
"167 230 OFFCURVE",
"172 248 OFFCURVE",
"184 261 OFFCURVE",
"194 270 OFFCURVE",
"216 279 OFFCURVE",
"227 283 OFFCURVE",
"254 291 OFFCURVE",
"258 292 QCURVE"
);
}
);
width = 325;
}
);
note = braceright;
unicode = 007D;
},
{
glyphname = asciitilde;
layers = (
{
layerId = "0276F023-BC64-4582-8657-390FE5DB601E";
paths = (
{
closed = 1;
nodes = (
"87 277 OFFCURVE",
"102 287 OFFCURVE",
"138 303 OFFCURVE",
"156 303 QCURVE SMOOTH",
"204 303 OFFCURVE",
"346 250 OFFCURVE",
"393 250 QCURVE SMOOTH",
"426 250 OFFCURVE",
"467 266 OFFCURVE",
"498 289 QCURVE SMOOTH",
"521 306 OFFCURVE",
"521 328 QCURVE SMOOTH",
"521 340 OFFCURVE",
"512 345 QCURVE",
"510 343 OFFCURVE",
"493 330 OFFCURVE",
"489 327 OFFCURVE",
"474 316 OFFCURVE",
"467 313 OFFCURVE",
"453 306 OFFCURVE",
"443 303 OFFCURVE",
"429 301 OFFCURVE",
"422 301 QCURVE SMOOTH",
"375 301 OFFCURVE",
"233 354 OFFCURVE",
"186 354 QCURVE SMOOTH",
"153 354 OFFCURVE",
"111 338 OFFCURVE",
"80 315 QCURVE SMOOTH",
"56 297 OFFCURVE",
"56 276 QCURVE SMOOTH",
"56 264 OFFCURVE",
"65 259 QCURVE"
);
}
);
width = 576;
}
);
note = asciitilde;
unicode = 007E;
},
{
glyphname = exclamdown;
layers = (
{
layerId = "0276F023-BC64-4582-8657-390FE5DB601E";
paths = (
{
closed = 1;
nodes = (
"103 -224 OFFCURVE",
"132 -186 OFFCURVE",
"132 -161 QCURVE SMOOTH",
"132 -140 OFFCURVE",
"126 -73 OFFCURVE",
"111 118 OFFCURVE",
"103 248 QCURVE",
"102 258 OFFCURVE",
"95 272 OFFCURVE",
"90 270 QCURVE",
"75 263 OFFCURVE",
"67 252 OFFCURVE",
"66 237 QCURVE SMOOTH",
"59 124 OFFCURVE",
"44 -65 OFFCURVE",
"35 -151 OFFCURVE",
"35 -161 QCURVE SMOOTH",
"35 -187 OFFCURVE",
"58 -224 OFFCURVE",
"80 -224 QCURVE SMOOTH"
);
},
{
closed = 1;
nodes = (
"106 316 OFFCURVE",
"140 349 OFFCURVE",
"140 397 OFFCURVE",
"106 432 OFFCURVE",
"58 432 OFFCURVE",
"25 397 OFFCURVE",
"25 349 OFFCURVE",
"58 316 OFFCURVE"
);
}
);
width = 166;
}
);
note = exclamdown;
unicode = 00A1;
},
{
glyphname = cent;
layers = (
{
layerId = "0276F023-BC64-4582-8657-390FE5DB601E";
paths = (
{
closed = 1;
nodes = (
"196 -36 LINE",
"196 -45 OFFCURVE",
"231 -45 QCURVE",
"314 466 LINE",
"314 474 OFFCURVE",
"279 474 QCURVE"
);
},
{
closed = 1;
nodes = (
"304 435 OFFCURVE",
"391 408 OFFCURVE",
"406 381 QCURVE",
"406 318 OFFCURVE",
"370 318 QCURVE SMOOTH",
"367 318 OFFCURVE",
"362 319 OFFCURVE",
"358 321 OFFCURVE",
"353 325 OFFCURVE",
"350 328 OFFCURVE",
"343 335 OFFCURVE",
"340 339 OFFCURVE",
"333 348 OFFCURVE",
"331 350 QCURVE",
"316 367 OFFCURVE",
"300 384 OFFCURVE",
"265 400 OFFCURVE",
"244 400 QCURVE SMOOTH",
"202 400 OFFCURVE",
"136 325 OFFCURVE",
"136 245 QCURVE SMOOTH",
"136 163 OFFCURVE",
"214 52 OFFCURVE",
"289 52 QCURVE SMOOTH",
"309 52 OFFCURVE",
"348 62 OFFCURVE",
"374 76 OFFCURVE",
"394 89 OFFCURVE",
"405 99 OFFCURVE",
"407 99 OFFCURVE",
"409 95 OFFCURVE",
"412 88 OFFCURVE",
"412 85 QCURVE SMOOTH",
"412 73 OFFCURVE",
"406 67 QCURVE",
"337 -8 OFFCURVE",
"258 -8 QCURVE SMOOTH",
"172 -8 OFFCURVE",
"60 107 OFFCURVE",
"60 211 QCURVE SMOOTH",
"60 299 OFFCURVE",
"169 435 OFFCURVE",
"254 435 QCURVE SMOOTH"
);
}
);
width = 464;
}
);
note = cent;
unicode = 00A2;
},
{
glyphname = sterling;
layers = (
{
layerId = "0276F023-BC64-4582-8657-390FE5DB601E";
paths = (
{
closed = 1;
nodes = (
"45 310 OFFCURVE",
"45 292 QCURVE SMOOTH",
"45 279 OFFCURVE",
"50 279 QCURVE SMOOTH",
"308 279 OFFCURVE",
"308 279 QCURVE",
"323 289 OFFCURVE",
"323 309 QCURVE SMOOTH",
"323 319 OFFCURVE",
"318 319 QCURVE SMOOTH",
"51 319 OFFCURVE",
"51 319 QCURVE"
);
},
{
closed = 1;
nodes = (
"201 635 OFFCURVE",
"100 517 OFFCURVE",
"100 423 QCURVE SMOOTH",
"100 406 OFFCURVE",
"109 258 OFFCURVE",
"109 249 QCURVE SMOOTH",
"109 244 OFFCURVE",
"109 209 OFFCURVE",
"109 192 OFFCURVE",
"108 159 OFFCURVE",
"106 137 OFFCURVE",
"103 111 OFFCURVE",
"97 90 OFFCURVE",
"93 82 QCURVE",
"87 73 OFFCURVE",
"55 27 OFFCURVE",
"46 10 QCURVE",
"46 4 OFFCURVE",
"56 -9 OFFCURVE",
"65 -9 QCURVE",
"105 29 OFFCURVE",
"140 29 QCURVE SMOOTH",
"163 29 OFFCURVE",
"297 -8 OFFCURVE",
"331 -8 QCURVE SMOOTH",
"404 -8 OFFCURVE",
"448 108 QCURVE",
"449 110 OFFCURVE",
"449 124 OFFCURVE",
"436 135 OFFCURVE",
"430 135 QCURVE",
"428 132 OFFCURVE",
"410 98 OFFCURVE",
"398 79 OFFCURVE",
"375 61 OFFCURVE",
"362 61 QCURVE SMOOTH",
"344 61 OFFCURVE",
"234 93 OFFCURVE",
"205 93 QCURVE SMOOTH",
"156 93 OFFCURVE",
"133 84 QCURVE",
"178 160 OFFCURVE",
"178 258 QCURVE SMOOTH",
"178 262 OFFCURVE",
"170 424 OFFCURVE",
"170 444 QCURVE SMOOTH",
"170 475 OFFCURVE",
"174 519 OFFCURVE",
"187 567 OFFCURVE",
"219 593 OFFCURVE",
"243 593 QCURVE SMOOTH",
"264 593 OFFCURVE",
"308 539 OFFCURVE",
"329 539 QCURVE SMOOTH",
"359 539 OFFCURVE",
"359 598 QCURVE",
"334 635 OFFCURVE",
"282 635 QCURVE SMOOTH"
);
}
);
width = 473;
}
);
note = sterling;
unicode = 00A3;
},
{
glyphname = currency;
layers = (
{
layerId = "0276F023-BC64-4582-8657-390FE5DB601E";
paths = (
{
closed = 1;
nodes = (
"192 152 OFFCURVE",
"121 251 OFFCURVE",
"121 319 QCURVE SMOOTH",
"121 377 OFFCURVE",
"179 463 OFFCURVE",
"223 463 QCURVE SMOOTH",
"270 463 OFFCURVE",
"341 363 OFFCURVE",
"341 294 QCURVE SMOOTH",
"341 236 OFFCURVE",
"284 152 OFFCURVE",
"240 152 QCURVE SMOOTH"
);
},
{
closed = 1;
nodes = (
"295 496 OFFCURVE",
"232 496 QCURVE SMOOTH",
"175 496 OFFCURVE",
"130 465 QCURVE",
"78 520 LINE",
"66 517 OFFCURVE",
"42 500 OFFCURVE",
"30 483 OFFCURVE",
"34 479 QCURVE",
"86 423 LINE",
"48 372 OFFCURVE",
"48 307 QCURVE SMOOTH",
"48 252 OFFCURVE",
"78 205 QCURVE",
"24 154 LINE",
"27 142 OFFCURVE",
"44 118 OFFCURVE",
"61 106 OFFCURVE",
"65 110 QCURVE SMOOTH",
"118 160 LINE",
"168 120 OFFCURVE",
"232 120 QCURVE SMOOTH",
"290 120 OFFCURVE",
"338 155 QCURVE",
"390 100 LINE",
"402 103 OFFCURVE",
"426 120 OFFCURVE",
"438 137 OFFCURVE",
"434 141 QCURVE",
"380 199 LINE",
"413 248 OFFCURVE",
"413 307 QCURVE SMOOTH",
"413 362 OFFCURVE",
"384 410 QCURVE",
"444 466 LINE",
"441 478 OFFCURVE",
"424 502 OFFCURVE",
"407 514 OFFCURVE",
"403 510 QCURVE",
"344 455 LINE"
);
}
);
width = 468;
}
);
note = currency;
unicode = 00A4;
},
{
glyphname = yen;
layers = (
{
layerId = "0276F023-BC64-4582-8657-390FE5DB601E";
paths = (
{
closed = 1;
nodes = (
"116 636 OFFCURVE",
"43 641 OFFCURVE",
"27 642 QCURVE",
"23 638 OFFCURVE",
"23 626 QCURVE SMOOTH",
"23 615 OFFCURVE",
"27 615 QCURVE SMOOTH",
"39 615 OFFCURVE",
"82 603 OFFCURVE",
"91 594 QCURVE",
"116 567 OFFCURVE",
"134 532 QCURVE",
"271 288 OFFCURVE",
"275 270 QCURVE",
"276 268 OFFCURVE",
"276 254 QCURVE",
"185 254 LINE",
"179 245 OFFCURVE",
"179 229 QCURVE SMOOTH",
"179 216 OFFCURVE",
"184 216 QCURVE SMOOTH",
"276 216 LINE",
"276 176 LINE",
"185 176 LINE",
"179 167 OFFCURVE",
"179 151 QCURVE SMOOTH",
"179 138 OFFCURVE",
"184 138 QCURVE SMOOTH",
"276 138 LINE",
"276 77 OFFCURVE",
"268 46 QCURVE",
"265 38 OFFCURVE",
"218 24 OFFCURVE",
"206 24 QCURVE SMOOTH",
"202 24 OFFCURVE",
"202 10 QCURVE SMOOTH",
"202 1 OFFCURVE",
"206 -3 QCURVE",
"316 2 OFFCURVE",
"320 2 QCURVE SMOOTH",
"330 2 OFFCURVE",
"428 -3 QCURVE",
"430 3 OFFCURVE",
"430 12 QCURVE SMOOTH",
"430 24 OFFCURVE",
"426 24 QCURVE SMOOTH",
"417 24 OFFCURVE",
"369 39 OFFCURVE",
"367 46 QCURVE SMOOTH",
"360 73 OFFCURVE",
"360 138 QCURVE",
"451 138 LINE",
"457 147 OFFCURVE",
"457 163 QCURVE SMOOTH",
"457 176 OFFCURVE",
"452 176 QCURVE SMOOTH",
"360 176 LINE",
"360 216 LINE",
"451 216 LINE",
"457 225 OFFCURVE",
"457 241 QCURVE SMOOTH",
"457 254 OFFCURVE",
"452 254 QCURVE SMOOTH",
"360 254 LINE",
"360 282 LINE SMOOTH",
"360 295 OFFCURVE",
"495 521 OFFCURVE",
"537 586 QCURVE",
"547 598 OFFCURVE",
"617 615 OFFCURVE",
"630 615 QCURVE SMOOTH",
"634 615 OFFCURVE",
"634 627 QCURVE SMOOTH",
"634 636 OFFCURVE",
"632 642 QCURVE",
"515 636 OFFCURVE",
"473 636 OFFCURVE",
"413 641 OFFCURVE",
"402 642 QCURVE",
"398 638 OFFCURVE",
"398 615 OFFCURVE",
"402 615 QCURVE SMOOTH",
"431 615 OFFCURVE",
"469 595 OFFCURVE",
"469 584 QCURVE SMOOTH",
"469 550 OFFCURVE",
"337 350 QCURVE",
"332 343 OFFCURVE",
"327 348 QCURVE",
"218 554 LINE SMOOTH",
"208 572 OFFCURVE",
"208 583 QCURVE SMOOTH",
"208 599 OFFCURVE",
"249 615 OFFCURVE",
"266 615 QCURVE SMOOTH",
"269 615 OFFCURVE",
"270 638 OFFCURVE",
"268 642 QCURVE",
"151 636 OFFCURVE",
"143 636 QCURVE SMOOTH"
);
}
);
width = 658;
}
);
note = yen;
unicode = 00A5;
},
{
glyphname = brokenbar;
layers = (
{
layerId = "0276F023-BC64-4582-8657-390FE5DB601E";
paths = (
{
closed = 1;
nodes = (
"37 388 OFFCURVE",
"37 387 QCURVE SMOOTH",
"37 385 OFFCURVE",
"37 382 OFFCURVE",
"42 381 OFFCURVE",
"48 382 QCURVE SMOOTH",
"63 384 OFFCURVE",
"83 388 OFFCURVE",
"93 391 OFFCURVE",
"97 393 OFFCURVE",
"99 397 OFFCURVE",
"100 397 QCURVE",
"99 762 LINE",
"99 764 LINE SMOOTH",
"99 765 OFFCURVE",
"95 768 OFFCURVE",
"91 768 QCURVE SMOOTH",
"66 768 OFFCURVE",
"42 761 QCURVE",
"36 759 OFFCURVE",
"37 753 QCURVE",
"37 389 LINE SMOOTH"
);
},
{
closed = 1;
nodes = (
"37 -123 OFFCURVE",
"42 -123 QCURVE SMOOTH",
"43 -123 OFFCURVE",
"46 -122 OFFCURVE",
"48 -122 QCURVE",
"66 -120 OFFCURVE",
"89 -114 OFFCURVE",
"95 -111 OFFCURVE",
"98 -108 QCURVE SMOOTH",
"100 -106 LINE",
"99 258 LINE",
"99 260 LINE SMOOTH",
"99 261 OFFCURVE",
"95 264 OFFCURVE",
"91 264 QCURVE SMOOTH",
"66 264 OFFCURVE",
"42 257 QCURVE",
"36 255 OFFCURVE",
"37 249 QCURVE",
"37 -115 LINE SMOOTH"
);
}
);
width = 137;
}
);
note = brokenbar;
unicode = 00A6;
},
{
glyphname = section;
layers = (
{
layerId = "0276F023-BC64-4582-8657-390FE5DB601E";
paths = (
{
closed = 1;
nodes = (
"354 319 OFFCURVE",
"306 395 OFFCURVE",
"238 432 OFFCURVE",
"171 463 OFFCURVE",
"123 511 OFFCURVE",
"123 547 QCURVE SMOOTH",
"123 579 OFFCURVE",
"160 611 OFFCURVE",
"208 611 OFFCURVE",
"262 557 OFFCURVE",
"275 557 QCURVE SMOOTH",
"306 557 OFFCURVE",
"306 602 QCURVE SMOOTH",
"306 604 OFFCURVE",
"305 613 OFFCURVE",
"305 615 QCURVE",
"281 651 OFFCURVE",
"217 651 QCURVE SMOOTH",
"155 651 OFFCURVE",
"71 582 OFFCURVE",
"71 518 QCURVE SMOOTH",
"71 493 OFFCURVE",
"85 469 QCURVE",
"26 427 OFFCURVE",
"26 345 QCURVE SMOOTH",
"26 289 OFFCURVE",
"74 214 OFFCURVE",
"142 178 OFFCURVE",
"209 147 OFFCURVE",
"257 99 OFFCURVE",
"257 62 QCURVE SMOOTH",
"257 32 OFFCURVE",
"224 -1 OFFCURVE",
"196 -1 QCURVE SMOOTH",
"172 -1 OFFCURVE",
"118 52 OFFCURVE",
"105 52 QCURVE SMOOTH",
"73 52 OFFCURVE",
"73 7 QCURVE SMOOTH",
"73 5 OFFCURVE",
"74 -5 OFFCURVE",
"74 -7 QCURVE",
"97 -41 OFFCURVE",
"163 -41 QCURVE SMOOTH",
"187 -41 OFFCURVE",
"234 -29 OFFCURVE",
"280 -2 OFFCURVE",
"309 52 OFFCURVE",
"309 90 QCURVE SMOOTH",
"309 109 OFFCURVE",
"295 140 QCURVE",
"354 181 OFFCURVE",
"354 263 QCURVE SMOOTH"
);
},
{
closed = 1;
nodes = (
"264 204 OFFCURVE",
"188 257 OFFCURVE",
"123 287 OFFCURVE",
"72 344 OFFCURVE",
"72 383 QCURVE SMOOTH",
"72 414 OFFCURVE",
"98 435 QCURVE",
"116 404 OFFCURVE",
"191 352 OFFCURVE",
"257 321 OFFCURVE",
"308 264 OFFCURVE",
"308 225 QCURVE SMOOTH",
"308 220 OFFCURVE",
"307 212 OFFCURVE",
"305 204 OFFCURVE",
"303 199 OFFCURVE",
"299 192 OFFCURVE",
"297 188 OFFCURVE",
"291 182 OFFCURVE",
"289 180 OFFCURVE",
"283 174 OFFCURVE",
"282 173 QCURVE"
);
}
);
width = 382;
}
);
note = section;
unicode = 00A7;
},
{
glyphname = dieresis;
layers = (
{
layerId = "0276F023-BC64-4582-8657-390FE5DB601E";
paths = (
{
closed = 1;
nodes = (
"210 497 OFFCURVE",
"240 468 OFFCURVE",
"280 468 OFFCURVE",
"310 496 OFFCURVE",
"310 536 OFFCURVE",
"281 566 OFFCURVE",
"241 566 OFFCURVE",
"210 537 OFFCURVE"
);
},
{
closed = 1;
nodes = (
"27 497 OFFCURVE",
"57 468 OFFCURVE",
"97 468 OFFCURVE",
"127 496 OFFCURVE",
"127 536 OFFCURVE",
"98 566 OFFCURVE",
"58 566 OFFCURVE",
"27 537 OFFCURVE"
);
}
);
width = 333;
}
);
note = dieresis;
unicode = 00A8;
},
{
glyphname = copyright;
layers = (
{
layerId = "0276F023-BC64-4582-8657-390FE5DB601E";
paths = (
{
closed = 1;
nodes = (
"426 279 OFFCURVE",
"408 279 QCURVE SMOOTH",
"407 279 OFFCURVE",
"405 267 OFFCURVE",
"398 251 OFFCURVE",
"393 246 QCURVE",
"372 227 OFFCURVE",
"321 227 QCURVE SMOOTH",
"282 227 OFFCURVE",
"216 289 OFFCURVE",
"216 345 QCURVE SMOOTH",
"216 387 OFFCURVE",
"272 449 OFFCURVE",
"312 449 QCURVE SMOOTH",
"344 449 OFFCURVE",
"389 426 OFFCURVE",
"403 406 OFFCURVE",
"405 396 QCURVE",
"409 394 OFFCURVE",
"412 394 QCURVE SMOOTH",
"428 394 OFFCURVE",
"428 403 QCURVE SMOOTH",
"428 407 OFFCURVE",
"412 464 QCURVE",
"362 483 OFFCURVE",
"300 483 QCURVE SMOOTH",
"239 483 OFFCURVE",
"159 397 OFFCURVE",
"159 336 QCURVE SMOOTH",
"159 277 OFFCURVE",
"241 195 OFFCURVE",
"302 195 QCURVE SMOOTH",
"361 195 OFFCURVE",
"408 214 QCURVE",
"412 216 OFFCURVE",
"428 271 OFFCURVE",
"428 276 QCURVE"
);
},
{
closed = 1;
nodes = (
"414 69 OFFCURVE",
"575 229 OFFCURVE",
"575 455 OFFCURVE",
"414 615 OFFCURVE",
"188 615 OFFCURVE",
"28 455 OFFCURVE",
"28 229 OFFCURVE",
"188 69 OFFCURVE"
);
},
{
closed = 1;
nodes = (
"402 584 OFFCURVE",
"544 442 OFFCURVE",
"544 242 OFFCURVE",
"402 100 OFFCURVE",
"202 100 OFFCURVE",
"61 242 OFFCURVE",
"61 442 OFFCURVE",
"202 584 OFFCURVE"
);
}
);
width = 603;
}
);
note = copyright;
unicode = 00A9;
},
{
glyphname = ordfeminine;
layers = (
{
layerId = "0276F023-BC64-4582-8657-390FE5DB601E";
paths = (
{
closed = 1;
nodes = (
"181 313 OFFCURVE",
"146 289 OFFCURVE",
"128 289 QCURVE SMOOTH",
"111 289 OFFCURVE",
"88 309 OFFCURVE",
"88 328 QCURVE SMOOTH",
"88 344 OFFCURVE",
"110 367 OFFCURVE",
"134 377 OFFCURVE",
"174 389 OFFCURVE",
"181 392 QCURVE",
"181 324 LINE SMOOTH"
);
},
{
closed = 1;
nodes = (
"236 484 LINE SMOOTH",
"236 521 OFFCURVE",
"202 556 OFFCURVE",
"160 556 QCURVE SMOOTH",
"116 556 OFFCURVE",
"31 497 OFFCURVE",
"31 467 QCURVE SMOOTH",
"31 456 OFFCURVE",
"52 456 QCURVE SMOOTH",
"86 456 OFFCURVE",
"86 478 QCURVE SMOOTH",
"86 501 OFFCURVE",
"113 529 OFFCURVE",
"134 529 QCURVE SMOOTH",
"154 529 OFFCURVE",
"181 507 OFFCURVE",
"181 489 QCURVE SMOOTH",
"181 431 LINE SMOOTH",
"181 422 OFFCURVE",
"175 421 QCURVE",
"168 419 OFFCURVE",
"125 404 OFFCURVE",
"101 396 OFFCURVE",
"64 377 OFFCURVE",
"44 360 OFFCURVE",
"28 333 OFFCURVE",
"28 317 QCURVE SMOOTH",
"28 283 OFFCURVE",
"70 249 OFFCURVE",
"102 249 QCURVE SMOOTH",
"118 249 OFFCURVE",
"151 262 OFFCURVE",
"171 277 OFFCURVE",
"180 284 QCURVE",
"188 291 LINE",
"193 277 OFFCURVE",
"222 250 OFFCURVE",
"254 250 OFFCURVE",
"286 273 QCURVE",
"288 283 OFFCURVE",
"290 290 QCURVE",
"290 292 OFFCURVE",
"287 293 QCURVE",
"284 291 LINE",
"280 289 OFFCURVE",
"268 283 OFFCURVE",
"262 283 QCURVE SMOOTH",
"250 283 OFFCURVE",
"236 304 OFFCURVE",
"236 318 QCURVE SMOOTH"
);
}
);
width = 316;
}
);
note = ordfeminine;
unicode = 00AA;
},
{
glyphname = guillemotleft;
layers = (
{
layerId = "0276F023-BC64-4582-8657-390FE5DB601E";
paths = (
{
closed = 1;
nodes = (
"301 254 OFFCURVE",
"369 325 OFFCURVE",
"382 338 QCURVE SMOOTH",
"425 379 OFFCURVE",
"443 398 OFFCURVE",
"443 404 QCURVE SMOOTH",
"443 417 OFFCURVE",
"420 423 QCURVE",
"342 345 OFFCURVE",
"214 268 QCURVE",
"206 259 OFFCURVE",
"206 241 QCURVE SMOOTH",
"206 230 OFFCURVE",
"213 227 QCURVE",
"279 185 OFFCURVE",
"381 108 OFFCURVE",
"418 75 OFFCURVE",
"419 73 QCURVE",
"420 74 OFFCURVE",
"430 77 OFFCURVE",
"436 80 OFFCURVE",
"442 87 OFFCURVE",
"442 91 QCURVE SMOOTH",
"442 93 OFFCURVE",
"441 97 OFFCURVE",
"437 102 OFFCURVE",
"432 107 OFFCURVE",
"422 117 OFFCURVE",
"411 128 OFFCURVE",
"391 147 OFFCURVE",
"381 157 QCURVE SMOOTH",
"294 247 LINE"
);
},
{
closed = 1;
nodes = (
"122 254 OFFCURVE",
"190 325 OFFCURVE",
"203 338 QCURVE SMOOTH",
"246 379 OFFCURVE",
"264 398 OFFCURVE",
"264 404 QCURVE SMOOTH",
"264 417 OFFCURVE",
"241 423 QCURVE",
"163 345 OFFCURVE",
"35 268 QCURVE",
"27 259 OFFCURVE",
"27 241 QCURVE SMOOTH",
"27 230 OFFCURVE",
"34 227 QCURVE",
"100 185 OFFCURVE",
"202 108 OFFCURVE",
"239 75 OFFCURVE",
"240 73 QCURVE",
"241 74 OFFCURVE",
"251 77 OFFCURVE",
"257 80 OFFCURVE",
"263 87 OFFCURVE",
"263 91 QCURVE SMOOTH",
"263 93 OFFCURVE",
"262 97 OFFCURVE",
"258 102 OFFCURVE",
"253 107 OFFCURVE",
"243 117 OFFCURVE",
"232 128 OFFCURVE",
"212 147 OFFCURVE",
"202 157 QCURVE SMOOTH",
"115 247 LINE"
);
}
);
width = 469;
}
);
note = guillemotleft;
unicode = 00AB;
},
{
glyphname = logicalnot;
layers = (
{
layerId = "0276F023-BC64-4582-8657-390FE5DB601E";
paths = (
{
closed = 1;
nodes = (
"29 364 OFFCURVE",
"35 364 QCURVE SMOOTH",
"429 364 LINE SMOOTH",
"440 364 OFFCURVE",
"440 354 QCURVE SMOOTH",
"440 161 LINE",
"440 160 LINE",
"439 158 OFFCURVE",
"443 154 OFFCURVE",
"447 154 QCURVE SMOOTH",
"451 154 LINE",
"490 159 OFFCURVE",
"500 169 QCURVE",
"500 409 LINE SMOOTH",
"500 420 OFFCURVE",
"488 420 QCURVE SMOOTH",
"44 420 LINE SMOOTH",
"34 420 OFFCURVE",
"29 374 QCURVE"
);
}
);
width = 538;
}
);
note = logicalnot;
unicode = 00AC;
},
{
glyphname = registered;
layers = (
{
layerId = "0276F023-BC64-4582-8657-390FE5DB601E";
paths = (
{
closed = 1;
nodes = (
"415 133 OFFCURVE",
"576 294 OFFCURVE",
"576 520 OFFCURVE",
"415 680 OFFCURVE",
"189 680 OFFCURVE",
"29 520 OFFCURVE",
"29 294 OFFCURVE",
"189 133 OFFCURVE"
);
},
{
closed = 1;
nodes = (
"403 648 OFFCURVE",
"545 507 OFFCURVE",
"545 307 OFFCURVE",
"403 165 OFFCURVE",
"203 165 OFFCURVE",
"62 307 OFFCURVE",
"62 507 OFFCURVE",
"203 648 OFFCURVE"
);
},
{
closed = 1;
nodes = (
"456 284 OFFCURVE",
"455 286 QCURVE",
"431 286 OFFCURVE",
"415 307 QCURVE SMOOTH",
"345 400 OFFCURVE",
"345 412 QCURVE SMOOTH",
"345 414 OFFCURVE",
"346 414 QCURVE",
"394 435 OFFCURVE",
"394 477 QCURVE SMOOTH",
"394 516 OFFCURVE",
"333 554 OFFCURVE",
"300 554 QCURVE SMOOTH",
"287 554 OFFCURVE",
"239 550 OFFCURVE",
"226 550 QCURVE SMOOTH",
"197 550 OFFCURVE",
"178 553 QCURVE",
"177 552 OFFCURVE",
"177 546 QCURVE SMOOTH",
"177 541 OFFCURVE",
"178 541 QCURVE SMOOTH",
"183 541 OFFCURVE",
"204 534 OFFCURVE",
"205 531 QCURVE SMOOTH",
"208 522 OFFCURVE",
"208 506 QCURVE SMOOTH",
"208 498 OFFCURVE",
"207 490 QCURVE",
"207 335 LINE",
"208 319 LINE",
"208 303 OFFCURVE",
"205 294 QCURVE SMOOTH",
"204 291 OFFCURVE",
"182 285 OFFCURVE",
"177 285 QCURVE SMOOTH",
"175 285 OFFCURVE",
"175 275 OFFCURVE",
"177 273 QCURVE",
"197 274 OFFCURVE",
"227 274 QCURVE SMOOTH",
"273 274 OFFCURVE",
"290 273 QCURVE",
"291 275 OFFCURVE",
"290 285 OFFCURVE",
"289 285 QCURVE SMOOTH",
"285 285 OFFCURVE",
"264 291 OFFCURVE",
"263 294 QCURVE",
"260 305 OFFCURVE",
"259 335 QCURVE",
"259 399 LINE SMOOTH",
"259 406 OFFCURVE",
"261 406 QCURVE",
"272 407 OFFCURVE",
"279 406 QCURVE",
"288 406 OFFCURVE",
"293 398 QCURVE SMOOTH",
"343 315 OFFCURVE",
"394 272 OFFCURVE",
"441 272 QCURVE SMOOTH",
"456 272 OFFCURVE",
"456 280 QCURVE SMOOTH"
);
},
{
closed = 1;
nodes = (
"259 428 OFFCURVE",
"259 441 QCURVE SMOOTH",
"259 486 LINE",
"260 523 LINE SMOOTH",
"260 526 OFFCURVE",
"263 526 QCURVE",
"272 529 OFFCURVE",
"294 529 QCURVE SMOOTH",
"344 529 OFFCURVE",
"344 474 QCURVE SMOOTH",
"344 455 OFFCURVE",
"320 428 OFFCURVE",
"306 428 QCURVE SMOOTH"
);
}
);
width = 604;
}
);
note = registered;
unicode = 00AE;
},
{
glyphname = macron;
layers = (
{
layerId = "0276F023-BC64-4582-8657-390FE5DB601E";
paths = (
{
closed = 1;
nodes = (
"540 555 OFFCURVE",
"542 552 QCURVE",
"546 550 OFFCURVE",
"546 550 QCURVE",
"752 550 LINE",
"754 550 LINE",
"755 551 OFFCURVE",
"758 554 OFFCURVE",
"759 557 QCURVE",
"765 579 OFFCURVE",
"765 589 QCURVE SMOOTH",
"765 596 OFFCURVE",
"760 596 QCURVE SMOOTH",
"552 596 LINE SMOOTH",
"540 596 OFFCURVE",
"540 559 QCURVE SMOOTH"
);
}
);
width = 460;
}
);
note = macron;
unicode = 00AF;
},
{
glyphname = degree;
layers = (
{
layerId = "0276F023-BC64-4582-8657-390FE5DB601E";
paths = (
{
closed = 1;
nodes = (
"157 437 OFFCURVE",
"215 495 OFFCURVE",
"215 536 QCURVE SMOOTH",
"215 576 OFFCURVE",
"158 634 OFFCURVE",
"76 634 OFFCURVE",
"18 576 OFFCURVE",
"18 496 OFFCURVE",
"76 437 OFFCURVE",
"117 437 QCURVE SMOOTH"
);
},
{
closed = 1;
nodes = (
"55 561 OFFCURVE",
"91 597 OFFCURVE",
"117 597 QCURVE SMOOTH",
"142 597 OFFCURVE",
"178 562 OFFCURVE",
"178 510 OFFCURVE",
"142 474 OFFCURVE",
"92 474 OFFCURVE",
"55 510 OFFCURVE",
"55 536 QCURVE SMOOTH"
);
}
);
width = 233;
}
);
note = degree;
unicode = 00B0;
},
{
glyphname = plusminus;
layers = (
{
layerId = "0276F023-BC64-4582-8657-390FE5DB601E";
paths = (
{
closed = 1;
nodes = (
"44 62 LINE",
"42 62 LINE SMOOTH",
"41 62 OFFCURVE",
"38 60 OFFCURVE",
"37 57 QCURVE SMOOTH",
"32 41 OFFCURVE",
"29 19 QCURVE SMOOTH",
"28 13 OFFCURVE",
"32 6 OFFCURVE",
"34 6 OFFCURVE",
"35 6 QCURVE SMOOTH",
"483 6 LINE",
"485 7 LINE SMOOTH",
"487 8 OFFCURVE",
"489 11 OFFCURVE",
"493 19 OFFCURVE",
"497 37 OFFCURVE",
"499 51 QCURVE",
"500 56 OFFCURVE",
"495 62 OFFCURVE",
"492 62 OFFCURVE",
"491 62 QCURVE SMOOTH"
);
},
{
closed = 1;
nodes = (
"295 304 OFFCURVE",
"299 304 QCURVE SMOOTH",
"490 304 LINE",
"492 304 LINE SMOOTH",
"493 304 OFFCURVE",
"496 307 OFFCURVE",
"497 310 QCURVE",
"507 347 OFFCURVE",
"507 355 QCURVE SMOOTH",
"507 360 OFFCURVE",
"499 360 QCURVE SMOOTH",
"299 360 LINE SMOOTH",
"295 360 OFFCURVE",
"295 365 QCURVE SMOOTH",
"295 565 LINE",
"285 571 LINE",
"271 571 OFFCURVE",
"244 563 QCURVE SMOOTH",
"238 561 OFFCURVE",
"239 556 QCURVE",
"239 366 LINE SMOOTH",
"239 360 OFFCURVE",
"234 360 QCURVE SMOOTH",
"43 360 LINE",
"42 360 LINE SMOOTH",
"40 360 OFFCURVE",
"37 358 OFFCURVE",
"36 355 QCURVE SMOOTH",
"28 328 OFFCURVE",
"28 314 QCURVE SMOOTH",
"28 304 OFFCURVE",
"34 304 QCURVE SMOOTH",
"233 304 LINE SMOOTH",
"239 304 OFFCURVE",
"239 299 QCURVE SMOOTH",
"239 100 LINE SMOOTH",
"239 92 OFFCURVE",
"244 92 QCURVE SMOOTH",
"245 92 OFFCURVE",
"248 93 OFFCURVE",
"250 93 QCURVE",
"295 99 OFFCURVE",
"295 109 QCURVE SMOOTH",
"295 301 LINE SMOOTH"
);
}
);
width = 533;
}
);
note = plusminus;
unicode = 00B1;
},
{
glyphname = uni00B2;
layers = (
{
layerId = "0276F023-BC64-4582-8657-390FE5DB601E";
paths = (
{
closed = 1;
nodes = (
"178 594 OFFCURVE",
"211 555 OFFCURVE",
"211 532 QCURVE SMOOTH",
"211 520 OFFCURVE",
"199 488 OFFCURVE",
"174 451 OFFCURVE",
"150 418 OFFCURVE",
"110 372 OFFCURVE",
"84 344 OFFCURVE",
"39 296 OFFCURVE",
"31 287 QCURVE",
"27 279 OFFCURVE",
"27 275 QCURVE SMOOTH",
"27 260 OFFCURVE",
"39 254 QCURVE",
"166 255 LINE",
"291 254 LINE",
"308 333 OFFCURVE",
"312 343 QCURVE",
"308 349 OFFCURVE",
"298 349 QCURVE",
"294 348 OFFCURVE",
"293 346 QCURVE",
"290 334 LINE",
"286 321 OFFCURVE",
"268 310 OFFCURVE",
"250 310 QCURVE SMOOTH",
"113 310 LINE SMOOTH",
"111 310 OFFCURVE",
"111 316 OFFCURVE",
"112 317 QCURVE",
"125 328 OFFCURVE",
"192 384 OFFCURVE",
"225 416 OFFCURVE",
"269 466 OFFCURVE",
"288 515 OFFCURVE",
"288 542 QCURVE SMOOTH",
"288 585 OFFCURVE",
"224 647 OFFCURVE",
"178 647 QCURVE SMOOTH",
"145 647 OFFCURVE",
"75 609 OFFCURVE",
"55 583 QCURVE",
"54 582 OFFCURVE",
"54 574 OFFCURVE",
"63 560 OFFCURVE",
"74 551 OFFCURVE",
"76 553 QCURVE",
"110 594 OFFCURVE",
"149 594 QCURVE SMOOTH"
);
}
);
width = 338;
}
);
note = uni00B2;
unicode = 00B2;
},
{
glyphname = uni00B3;
layers = (
{
layerId = "0276F023-BC64-4582-8657-390FE5DB601E";
paths = (
{
closed = 1;
nodes = (
"97 647 OFFCURVE",
"53 593 QCURVE",
"52 592 OFFCURVE",
"62 558 OFFCURVE",
"67 558 QCURVE SMOOTH",
"71 558 OFFCURVE",
"90 577 OFFCURVE",
"121 596 OFFCURVE",
"140 596 QCURVE SMOOTH",
"161 596 OFFCURVE",
"192 573 OFFCURVE",
"192 554 QCURVE SMOOTH",
"192 519 OFFCURVE",
"140 476 OFFCURVE",
"100 468 QCURVE",
"91 465 OFFCURVE",
"91 457 QCURVE SMOOTH",
"91 447 OFFCURVE",
"100 438 QCURVE",
"146 444 OFFCURVE",
"152 444 QCURVE SMOOTH",
"181 444 OFFCURVE",
"217 406 OFFCURVE",
"217 371 QCURVE SMOOTH",
"217 328 OFFCURVE",
"164 283 OFFCURVE",
"129 283 QCURVE SMOOTH",
"112 283 OFFCURVE",
"70 317 OFFCURVE",
"55 317 QCURVE SMOOTH",
"43 317 OFFCURVE",
"27 295 OFFCURVE",
"27 280 QCURVE SMOOTH",
"27 273 LINE",
"33 264 OFFCURVE",
"81 247 OFFCURVE",
"110 247 QCURVE SMOOTH",
"180 247 OFFCURVE",
"288 322 OFFCURVE",
"288 385 QCURVE SMOOTH",
"288 429 OFFCURVE",
"219 484 OFFCURVE",
"192 484 QCURVE",
"215 499 OFFCURVE",
"237 515 OFFCURVE",
"258 548 OFFCURVE",
"258 569 QCURVE SMOOTH",
"258 604 OFFCURVE",
"202 647 OFFCURVE",
"174 647 QCURVE SMOOTH"
);
}
);
width = 316;
}
);
note = uni00B3;
unicode = 00B3;
},
{
glyphname = acute;
layers = (
{
layerId = "0276F023-BC64-4582-8657-390FE5DB601E";
paths = (
{
closed = 1;
nodes = (
"608 687 OFFCURVE",
"599 678 QCURVE",
"582 659 OFFCURVE",
"537 594 OFFCURVE",
"506 543 OFFCURVE",
"506 540 QCURVE SMOOTH",
"506 527 OFFCURVE",
"518 527 QCURVE SMOOTH",
"531 527 OFFCURVE",
"674 638 OFFCURVE",
"674 663 QCURVE SMOOTH",
"674 667 OFFCURVE",
"669 676 OFFCURVE",
"649 687 OFFCURVE",
"633 687 QCURVE SMOOTH"
);
}
);
width = 460;
}
);
note = acute;
unicode = 00B4;
},
{
glyphname = paragraph;
layers = (
{
layerId = "0276F023-BC64-4582-8657-390FE5DB601E";
paths = (
{
closed = 1;
nodes = (
"284 292 OFFCURVE",
"291 293 QCURVE",
"302 294 OFFCURVE",
"320 297 OFFCURVE",
"329 299 OFFCURVE",
"330 299 QCURVE SMOOTH",
"334 299 OFFCURVE",
"334 295 QCURVE SMOOTH",
"334 95 OFFCURVE",
"330 50 QCURVE",
"330 45 OFFCURVE",
"317 36 OFFCURVE",
"310 36 QCURVE SMOOTH",
"286 36 OFFCURVE",
"286 49 QCURVE",
"284 286 LINE"
);
},
{
closed = 1;
nodes = (
"152 652 OFFCURVE",
"46 547 OFFCURVE",
"46 469 QCURVE SMOOTH",
"46 407 OFFCURVE",
"139 291 OFFCURVE",
"218 291 QCURVE SMOOTH",
"238 291 OFFCURVE",
"238 284 QCURVE SMOOTH",
"238 183 LINE SMOOTH",
"238 66 OFFCURVE",
"233 45 QCURVE",
"231 38 OFFCURVE",
"181 23 OFFCURVE",
"172 23 QCURVE SMOOTH",
"169 23 OFFCURVE",
"168 0 OFFCURVE",
"170 -4 QCURVE",
"183 -3 OFFCURVE",
"229 0 OFFCURVE",
"269 2 OFFCURVE",
"289 2 QCURVE SMOOTH",
"325 2 OFFCURVE",
"431 -3 OFFCURVE",
"450 -4 QCURVE",
"454 0 OFFCURVE",
"454 11 QCURVE SMOOTH",
"454 23 OFFCURVE",
"450 23 QCURVE SMOOTH",
"438 23 OFFCURVE",
"389 37 OFFCURVE",
"386 45 QCURVE",
"379 71 OFFCURVE",
"379 304 QCURVE SMOOTH",
"379 306 OFFCURVE",
"384 309 QCURVE",
"410 316 LINE SMOOTH",
"428 321 OFFCURVE",
"430 341 QCURVE",
"430 346 OFFCURVE",
"426 354 QCURVE",
"383 346 LINE",
"378 344 OFFCURVE",
"378 350 QCURVE SMOOTH",
"378 354 OFFCURVE",
"377 464 OFFCURVE",
"377 500 QCURVE SMOOTH",
"377 594 OFFCURVE",
"380 604 QCURVE",
"383 612 OFFCURVE",
"428 624 OFFCURVE",
"441 624 QCURVE SMOOTH",
"445 624 OFFCURVE",
"445 649 OFFCURVE",
"441 653 QCURVE",
"328 648 LINE",
"298 648 OFFCURVE",
"246 652 OFFCURVE",
"217 652 QCURVE SMOOTH"
);
},
{
closed = 1;
nodes = (
"286 611 OFFCURVE",
"309 611 QCURVE SMOOTH",
"316 611 OFFCURVE",
"332 603 OFFCURVE",
"332 600 QCURVE",
"334 574 OFFCURVE",
"334 344 QCURVE SMOOTH",
"334 338 OFFCURVE",
"329 338 QCURVE",
"292 332 LINE",
"284 332 OFFCURVE",
"284 338 QCURVE SMOOTH",
"284 440 OFFCURVE",
"286 599 QCURVE SMOOTH"
);
}
);
width = 496;
}
);
note = paragraph;
unicode = 00B6;
},
{
glyphname = periodcentered;
layers = (
{
layerId = "0276F023-BC64-4582-8657-390FE5DB601E";
paths = (
{
closed = 1;
nodes = (
"129 205 OFFCURVE",
"163 240 OFFCURVE",
"163 288 OFFCURVE",
"129 322 OFFCURVE",
"81 322 OFFCURVE",
"47 288 OFFCURVE",
"47 240 OFFCURVE",
"81 205 OFFCURVE"
);
}
);
width = 203;
}
);
note = periodcentered;
unicode = 00B7;
},
{
glyphname = cedilla;
layers = (
{
layerId = "0276F023-BC64-4582-8657-390FE5DB601E";
paths = (
{
closed = 1;
nodes = (
"698 -4 LINE",
"677 -4 LINE",
"673 -12 OFFCURVE",
"649 -49 OFFCURVE",
"645 -55 QCURVE",
"644 -58 OFFCURVE",
"653 -68 OFFCURVE",
"655 -68 QCURVE",
"672 -61 OFFCURVE",
"681 -61 QCURVE SMOOTH",
"692 -61 OFFCURVE",
"712 -79 OFFCURVE",
"712 -95 QCURVE SMOOTH",
"712 -109 OFFCURVE",
"689 -128 OFFCURVE",
"669 -128 QCURVE SMOOTH",
"660 -128 OFFCURVE",
"638 -115 OFFCURVE",
"632 -115 QCURVE SMOOTH",
"627 -115 OFFCURVE",
"618 -124 OFFCURVE",
"618 -129 QCURVE SMOOTH",
"618 -133 OFFCURVE",
"621 -142 OFFCURVE",
"621 -143 QCURVE",
"634 -152 OFFCURVE",
"655 -152 QCURVE SMOOTH",
"695 -152 OFFCURVE",
"749 -110 OFFCURVE",
"749 -76 QCURVE SMOOTH",
"749 -56 OFFCURVE",
"724 -27 OFFCURVE",
"705 -27 QCURVE SMOOTH",
"680 -27 LINE"
);
}
);
width = 460;
}
);
note = cedilla;
unicode = 00B8;
},
{
glyphname = uni00B9;
layers = (
{
layerId = "0276F023-BC64-4582-8657-390FE5DB601E";
paths = (
{
closed = 1;
nodes = (
"81 569 OFFCURVE",
"89 569 QCURVE SMOOTH",
"99 569 OFFCURVE",
"108 550 OFFCURVE",
"108 518 QCURVE SMOOTH",
"108 323 LINE SMOOTH",
"108 308 OFFCURVE",
"102 292 QCURVE SMOOTH",
"100 287 OFFCURVE",
"57 278 OFFCURVE",
"46 278 QCURVE SMOOTH",
"42 278 OFFCURVE",
"42 255 OFFCURVE",
"46 253 QCURVE",
"57 253 OFFCURVE",
"123 256 OFFCURVE",
"146 256 QCURVE SMOOTH",
"168 256 OFFCURVE",
"232 253 OFFCURVE",
"244 253 QCURVE",
"245 255 OFFCURVE",
"245 263 QCURVE SMOOTH",
"245 279 OFFCURVE",
"241 279 QCURVE SMOOTH",
"233 279 OFFCURVE",
"192 288 OFFCURVE",
"190 293 QCURVE",
"182 311 OFFCURVE",
"182 340 QCURVE SMOOTH",
"182 548 LINE SMOOTH",
"182 587 OFFCURVE",
"191 629 QCURVE",
"183 652 OFFCURVE",
"179 652 QCURVE SMOOTH",
"177 652 LINE",
"162 644 LINE",
"148 635 OFFCURVE",
"74 597 OFFCURVE",
"27 578 QCURVE",
"24 576 OFFCURVE",
"24 570 QCURVE SMOOTH",
"24 567 OFFCURVE",
"26 562 OFFCURVE",
"29 558 OFFCURVE",
"32 557 OFFCURVE",
"37 554 OFFCURVE",
"38 554 QCURVE"
);
}
);
width = 272;
}
);
note = uni00B9;
unicode = 00B9;
},
{
glyphname = ordmasculine;
layers = (
{
layerId = "0276F023-BC64-4582-8657-390FE5DB601E";
paths = (
{
closed = 1;
nodes = (
"225 529 OFFCURVE",
"272 446 OFFCURVE",
"272 391 QCURVE SMOOTH",
"272 344 OFFCURVE",
"233 271 OFFCURVE",
"195 271 QCURVE SMOOTH",
"149 271 OFFCURVE",
"98 356 OFFCURVE",
"98 411 QCURVE SMOOTH",
"98 458 OFFCURVE",
"141 529 OFFCURVE",
"180 529 QCURVE SMOOTH"
);
},
{
closed = 1;
nodes = (
"121 554 OFFCURVE",
"29 463 OFFCURVE",
"29 399 QCURVE SMOOTH",
"29 337 OFFCURVE",
"122 247 OFFCURVE",
"252 247 OFFCURVE",
"341 336 OFFCURVE",
"341 462 OFFCURVE",
"251 554 OFFCURVE",
"187 554 QCURVE SMOOTH"
);
}
);
width = 370;
}
);
note = ordmasculine;
unicode = 00BA;
},
{
glyphname = guillemotright;
layers = (
{
layerId = "0276F023-BC64-4582-8657-390FE5DB601E";
paths = (
{
closed = 1;
nodes = (
"59 82 OFFCURVE",
"102 118 OFFCURVE",
"198 190 OFFCURVE",
"256 227 QCURVE",
"264 230 OFFCURVE",
"264 241 QCURVE SMOOTH",
"264 258 OFFCURVE",
"255 268 QCURVE",
"128 345 OFFCURVE",
"50 423 QCURVE",
"49 423 OFFCURVE",
"39 418 OFFCURVE",
"33 415 OFFCURVE",
"27 408 OFFCURVE",
"27 404 QCURVE SMOOTH",
"27 398 OFFCURVE",
"43 381 OFFCURVE",
"87 338 QCURVE SMOOTH",
"100 325 OFFCURVE",
"168 254 OFFCURVE",
"175 247 QCURVE",
"88 157 LINE SMOOTH",
"79 148 OFFCURVE",
"60 129 OFFCURVE",
"49 119 OFFCURVE",
"38 108 OFFCURVE",
"33 103 OFFCURVE",
"29 97 OFFCURVE",
"28 93 OFFCURVE",
"28 91 QCURVE SMOOTH",
"28 79 OFFCURVE",
"51 73 QCURVE"
);
},
{
closed = 1;
nodes = (
"238 82 OFFCURVE",
"281 118 OFFCURVE",
"378 190 OFFCURVE",
"436 227 QCURVE",
"443 230 OFFCURVE",
"443 241 QCURVE SMOOTH",
"443 259 OFFCURVE",
"435 268 QCURVE",
"305 347 OFFCURVE",
"229 423 QCURVE",
"228 423 OFFCURVE",
"218 418 OFFCURVE",
"212 415 OFFCURVE",
"206 408 OFFCURVE",
"206 404 QCURVE SMOOTH",
"206 402 OFFCURVE",
"207 400 QCURVE",
"208 395 OFFCURVE",
"267 338 QCURVE SMOOTH",
"280 325 OFFCURVE",
"348 254 OFFCURVE",
"355 247 QCURVE",
"268 157 LINE SMOOTH",
"255 144 OFFCURVE",
"230 120 OFFCURVE",
"219 110 OFFCURVE",
"210 100 OFFCURVE",
"207 94 OFFCURVE",
"207 91 QCURVE SMOOTH",
"207 79 OFFCURVE",
"230 73 QCURVE"
);
}
);
width = 471;
}
);
note = guillemotright;
unicode = 00BB;
},
{
glyphname = onequarter;
layers = (
{
layerId = "0276F023-BC64-4582-8657-390FE5DB601E";
paths = (
{
closed = 1;
nodes = (
"597 -5 OFFCURVE",
"602 0 QCURVE",
"602 109 LINE SMOOTH",
"602 114 OFFCURVE",
"605 114 QCURVE SMOOTH",
"640 115 LINE",
"642 116 LINE",
"643 116 OFFCURVE",
"646 119 OFFCURVE",
"646 121 QCURVE SMOOTH",
"646 144 OFFCURVE",
"641 159 OFFCURVE",
"634 159 QCURVE SMOOTH",
"607 159 LINE SMOOTH",
"602 159 OFFCURVE",
"602 163 QCURVE SMOOTH",
"602 390 LINE SMOOTH",
"602 398 OFFCURVE",
"568 398 OFFCURVE",
"562 390 QCURVE SMOOTH",
"366 141 LINE",
"367 130 OFFCURVE",
"379 115 QCURVE",
"528 115 LINE SMOOTH",
"532 115 OFFCURVE",
"533 112 QCURVE",
"533 4 LINE SMOOTH",
"533 0 OFFCURVE",
"538 -3 OFFCURVE",
"554 -5 OFFCURVE",
"573 -5 QCURVE SMOOTH"
);
},
{
closed = 1;
nodes = (
"533 158 OFFCURVE",
"527 158 QCURVE SMOOTH",
"429 158 LINE SMOOTH",
"428 158 OFFCURVE",
"427 159 QCURVE",
"422 163 OFFCURVE",
"425 166 QCURVE",
"443 188 OFFCURVE",
"503 266 OFFCURVE",
"528 296 QCURVE",
"532 296 OFFCURVE",
"533 292 QCURVE",
"533 163 LINE SMOOTH"
);
},
{
closed = 1;
nodes = (
"556 618 LINE",
"557 620 OFFCURVE",
"555 626 OFFCURVE",
"553 628 QCURVE SMOOTH",
"537 645 OFFCURVE",
"523 645 QCURVE SMOOTH",
"519 645 OFFCURVE",
"517 642 QCURVE",
"169 10 LINE",
"170 3 LINE",
"185 -16 OFFCURVE",
"204 -16 QCURVE SMOOTH",
"208 -16 OFFCURVE",
"208 -14 QCURVE",
"556 617 LINE"
);
},
{
closed = 1;
nodes = (
"80 555 OFFCURVE",
"85 555 QCURVE SMOOTH",
"91 555 OFFCURVE",
"97 549 OFFCURVE",
"102 526 OFFCURVE",
"102 504 QCURVE SMOOTH",
"102 321 LINE SMOOTH",
"102 306 OFFCURVE",
"96 290 QCURVE SMOOTH",
"94 285 OFFCURVE",
"55 275 OFFCURVE",
"44 275 QCURVE SMOOTH",
"40 275 OFFCURVE",
"40 253 OFFCURVE",
"44 251 QCURVE",
"57 251 OFFCURVE",
"118 254 OFFCURVE",
"162 254 OFFCURVE",
"222 251 OFFCURVE",
"235 251 QCURVE",
"236 253 OFFCURVE",
"236 261 QCURVE SMOOTH",
"236 276 OFFCURVE",
"231 276 QCURVE SMOOTH",
"223 276 OFFCURVE",
"182 286 OFFCURVE",
"180 291 QCURVE",
"172 309 OFFCURVE",
"172 338 QCURVE SMOOTH",
"172 534 LINE SMOOTH",
"172 573 OFFCURVE",
"181 614 QCURVE",
"173 638 OFFCURVE",
"170 638 QCURVE SMOOTH",
"167 638 LINE",
"118 606 OFFCURVE",
"42 569 OFFCURVE",
"23 562 OFFCURVE",
"23 556 QCURVE SMOOTH",
"23 553 OFFCURVE",
"25 548 OFFCURVE",
"28 544 OFFCURVE",
"31 543 OFFCURVE",
"36 540 OFFCURVE",
"37 540 QCURVE"
);
}
);
width = 670;
}
);
note = onequarter;
unicode = 00BC;
},
{
glyphname = onehalf;
layers = (
{
layerId = "0276F023-BC64-4582-8657-390FE5DB601E";
paths = (
{
closed = 1;
nodes = (
"499 56 LINE SMOOTH",
"497 56 OFFCURVE",
"497 62 OFFCURVE",
"498 63 QCURVE",
"510 74 OFFCURVE",
"578 131 OFFCURVE",
"610 162 OFFCURVE",
"654 212 OFFCURVE",
"673 261 OFFCURVE",
"673 288 QCURVE SMOOTH",
"673 331 OFFCURVE",
"609 393 OFFCURVE",
"563 393 QCURVE SMOOTH",
"530 393 OFFCURVE",
"461 355 OFFCURVE",
"441 329 QCURVE",
"439 327 OFFCURVE",
"447 304 QCURVE SMOOTH",
"448 301 OFFCURVE",
"460 297 OFFCURVE",
"462 300 QCURVE",
"475 317 OFFCURVE",
"517 340 OFFCURVE",
"535 340 QCURVE SMOOTH",
"564 340 OFFCURVE",
"596 302 OFFCURVE",
"596 279 QCURVE SMOOTH",
"596 267 OFFCURVE",
"585 236 OFFCURVE",
"558 196 OFFCURVE",
"537 166 OFFCURVE",
"493 116 OFFCURVE",
"473 93 OFFCURVE",
"422 39 OFFCURVE",
"417 33 QCURVE",
"414 27 OFFCURVE",
"414 22 QCURVE SMOOTH",
"414 6 OFFCURVE",
"425 0 QCURVE",
"677 0 LINE",
"694 80 OFFCURVE",
"697 90 QCURVE",
"691 98 OFFCURVE",
"677 98 QCURVE SMOOTH",
"676 98 OFFCURVE",
"669 77 OFFCURVE",
"648 56 OFFCURVE",
"630 56 QCURVE SMOOTH"
);
},
{
closed = 1;
nodes = (
"556 619 LINE",
"557 620 OFFCURVE",
"557 622 QCURVE SMOOTH",
"557 628 OFFCURVE",
"526 645 OFFCURVE",
"518 645 OFFCURVE",
"517 643 QCURVE",
"169 11 LINE",
"168 10 LINE",
"168 9 OFFCURVE",
"168 5 OFFCURVE",
"170 3 QCURVE",
"185 -16 OFFCURVE",
"204 -16 QCURVE SMOOTH",
"208 -16 OFFCURVE",
"208 -14 QCURVE",
"556 618 LINE"
);
},
{
closed = 1;
nodes = (
"118 606 OFFCURVE",
"42 569 OFFCURVE",
"23 562 OFFCURVE",
"23 556 QCURVE SMOOTH",
"23 553 OFFCURVE",
"25 548 OFFCURVE",
"28 544 OFFCURVE",
"31 543 OFFCURVE",
"36 540 OFFCURVE",
"37 540 QCURVE",
"80 555 OFFCURVE",
"85 555 QCURVE SMOOTH",
"91 555 OFFCURVE",
"97 549 OFFCURVE",
"102 526 OFFCURVE",
"102 504 QCURVE SMOOTH",
"102 321 LINE SMOOTH",
"102 306 OFFCURVE",
"96 290 QCURVE SMOOTH",
"94 285 OFFCURVE",
"55 275 OFFCURVE",
"44 275 QCURVE SMOOTH",
"40 275 OFFCURVE",
"40 253 OFFCURVE",
"44 251 QCURVE",
"57 251 OFFCURVE",
"118 254 OFFCURVE",
"162 254 OFFCURVE",
"222 251 OFFCURVE",
"235 251 QCURVE",
"236 253 OFFCURVE",
"236 261 QCURVE SMOOTH",
"236 276 OFFCURVE",
"231 276 QCURVE SMOOTH",
"223 276 OFFCURVE",
"182 286 OFFCURVE",
"180 291 QCURVE",
"172 309 OFFCURVE",
"172 338 QCURVE SMOOTH",
"172 534 LINE SMOOTH",
"172 573 OFFCURVE",
"181 614 QCURVE",
"173 638 OFFCURVE",
"170 638 QCURVE SMOOTH",
"167 638 LINE"
);
}
);
width = 721;
}
);
note = onehalf;
unicode = 00BD;
},
{
glyphname = threequarters;
layers = (
{
layerId = "0276F023-BC64-4582-8657-390FE5DB601E";
paths = (
{
closed = 1;
nodes = (
"96 647 OFFCURVE",
"52 593 QCURVE",
"51 590 OFFCURVE",
"60 558 OFFCURVE",
"65 558 QCURVE SMOOTH",
"69 558 OFFCURVE",
"88 577 OFFCURVE",
"120 596 OFFCURVE",
"139 596 QCURVE SMOOTH",
"160 596 OFFCURVE",
"190 573 OFFCURVE",
"190 554 QCURVE SMOOTH",
"190 519 OFFCURVE",
"139 476 OFFCURVE",
"99 468 QCURVE",
"90 465 OFFCURVE",
"90 457 QCURVE SMOOTH",
"90 447 OFFCURVE",
"99 438 QCURVE",
"146 444 OFFCURVE",
"150 444 QCURVE SMOOTH",
"179 444 OFFCURVE",
"216 406 OFFCURVE",
"216 371 QCURVE SMOOTH",
"216 328 OFFCURVE",
"162 283 OFFCURVE",
"127 283 QCURVE SMOOTH",
"110 283 OFFCURVE",
"68 317 OFFCURVE",
"54 317 QCURVE SMOOTH",
"42 317 OFFCURVE",
"25 295 OFFCURVE",
"25 280 QCURVE SMOOTH",
"25 273 LINE",
"31 264 OFFCURVE",
"79 247 OFFCURVE",
"108 247 QCURVE SMOOTH",
"178 247 OFFCURVE",
"286 322 OFFCURVE",
"286 385 QCURVE SMOOTH",
"286 429 OFFCURVE",
"217 484 OFFCURVE",
"190 484 QCURVE",
"214 499 OFFCURVE",
"235 515 OFFCURVE",
"257 548 OFFCURVE",
"257 569 QCURVE SMOOTH",
"257 604 OFFCURVE",
"201 647 OFFCURVE",
"173 647 QCURVE SMOOTH"
);
},
{
closed = 1;
nodes = (
"621 -5 OFFCURVE",
"626 0 QCURVE",
"626 109 LINE SMOOTH",
"626 114 OFFCURVE",
"629 114 QCURVE SMOOTH",
"664 115 LINE",
"666 116 LINE",
"667 116 OFFCURVE",
"670 119 OFFCURVE",
"670 121 QCURVE SMOOTH",
"670 144 OFFCURVE",
"665 159 OFFCURVE",
"658 159 QCURVE SMOOTH",
"631 159 LINE SMOOTH",
"626 159 OFFCURVE",
"626 163 QCURVE SMOOTH",
"626 390 LINE SMOOTH",
"626 398 OFFCURVE",
"592 398 OFFCURVE",
"586 390 QCURVE SMOOTH",
"390 141 LINE",
"391 130 OFFCURVE",
"403 115 QCURVE",
"552 115 LINE SMOOTH",
"556 115 OFFCURVE",
"557 112 QCURVE",
"557 4 LINE SMOOTH",
"557 0 OFFCURVE",
"562 -3 OFFCURVE",
"578 -5 OFFCURVE",
"597 -5 QCURVE SMOOTH"
);
},
{
closed = 1;
nodes = (
"557 158 OFFCURVE",
"551 158 QCURVE SMOOTH",
"453 158 LINE SMOOTH",
"452 158 OFFCURVE",
"451 159 QCURVE",
"446 163 OFFCURVE",
"449 166 QCURVE",
"467 188 OFFCURVE",
"527 266 OFFCURVE",
"552 296 QCURVE",
"556 296 OFFCURVE",
"557 292 QCURVE",
"557 163 LINE SMOOTH"
);
},
{
closed = 1;
nodes = (
"232 -16 OFFCURVE",
"232 -14 QCURVE",
"580 617 LINE",
"580 618 LINE",
"581 620 OFFCURVE",
"579 626 OFFCURVE",
"577 628 QCURVE SMOOTH",
"561 645 OFFCURVE",
"546 645 QCURVE SMOOTH",
"542 645 OFFCURVE",
"541 642 QCURVE",
"193 10 LINE",
"192 7 LINE",
"192 2 OFFCURVE",
"218 -16 OFFCURVE",
"228 -16 QCURVE SMOOTH"
);
}
);
width = 694;
}
);
note = threequarters;
unicode = 00BE;
},
{
glyphname = questiondown;
layers = (
{
layerId = "0276F023-BC64-4582-8657-390FE5DB601E";
paths = (
{
closed = 1;
nodes = (
"221 -142 OFFCURVE",
"184 -149 OFFCURVE",
"154 -149 QCURVE SMOOTH",
"122 -149 OFFCURVE",
"74 -103 OFFCURVE",
"74 -60 QCURVE SMOOTH",
"74 -47 OFFCURVE",
"85 -24 OFFCURVE",
"115 1 OFFCURVE",
"136 15 OFFCURVE",
"161 31 QCURVE",
"162 31 OFFCURVE",
"185 46 OFFCURVE",
"189 50 OFFCURVE",
"210 64 OFFCURVE",
"215 72 OFFCURVE",
"231 88 OFFCURVE",
"236 102 OFFCURVE",
"244 121 OFFCURVE",
"247 142 OFFCURVE",
"247 154 QCURVE SMOOTH",
"247 168 OFFCURVE",
"246 235 OFFCURVE",
"246 248 QCURVE SMOOTH",
"246 256 OFFCURVE",
"233 256 QCURVE SMOOTH",
"213 256 OFFCURVE",
"213 243 QCURVE SMOOTH",
"213 192 OFFCURVE",
"203 174 QCURVE",
"199 166 OFFCURVE",
"146 124 OFFCURVE",
"125 112 QCURVE SMOOTH",
"69 80 OFFCURVE",
"24 11 OFFCURVE",
"24 -41 QCURVE SMOOTH",
"24 -95 OFFCURVE",
"96 -184 OFFCURVE",
"184 -226 OFFCURVE",
"220 -226 QCURVE SMOOTH",
"250 -226 OFFCURVE",
"270 -216 QCURVE",
"278 -203 OFFCURVE",
"278 -182 QCURVE SMOOTH",
"278 -160 OFFCURVE",
"247 -142 OFFCURVE",
"231 -142 QCURVE SMOOTH"
);
},
{
closed = 1;
nodes = (
"202 430 OFFCURVE",
"168 395 OFFCURVE",
"168 347 OFFCURVE",
"202 314 OFFCURVE",
"250 314 OFFCURVE",
"284 347 OFFCURVE",
"284 395 OFFCURVE",
"250 430 OFFCURVE"
);
}
);
width = 310;
}
);
note = questiondown;
unicode = 00BF;
},
{
glyphname = AE;
layers = (
{
layerId = "0276F023-BC64-4582-8657-390FE5DB601E";
paths = (
{
closed = 1;
nodes = (
"433 295 OFFCURVE",
"413 295 QCURVE SMOOTH",
"395 295 OFFCURVE",
"343 297 QCURVE",
"341 297 OFFCURVE",
"342 301 QCURVE",
"479 524 OFFCURVE",
"479 524 QCURVE",
"484 531 OFFCURVE",
"488 531 QCURVE SMOOTH",
"497 531 OFFCURVE",
"497 523 QCURVE SMOOTH",
"497 308 LINE SMOOTH",
"497 297 OFFCURVE",
"485 297 QCURVE"
);
},
{
closed = 1;
nodes = (
"463 247 OFFCURVE",
"484 244 QCURVE",
"497 241 OFFCURVE",
"497 233 QCURVE SMOOTH",
"497 135 LINE SMOOTH",
"497 76 OFFCURVE",
"490 49 QCURVE",
"487 41 OFFCURVE",
"436 26 OFFCURVE",
"424 26 QCURVE SMOOTH",
"420 26 OFFCURVE",
"420 12 QCURVE SMOOTH",
"420 1 OFFCURVE",
"424 -3 QCURVE",
"542 2 LINE",
"585 2 OFFCURVE",
"826 -4 OFFCURVE",
"883 -4 QCURVE",
"885 11 OFFCURVE",
"899 57 OFFCURVE",
"911 92 OFFCURVE",
"932 149 OFFCURVE",
"937 162 QCURVE",
"931 168 OFFCURVE",
"912 168 QCURVE SMOOTH",
"900 168 OFFCURVE",
"898 162 QCURVE",
"887 124 OFFCURVE",
"850 69 OFFCURVE",
"835 61 QCURVE SMOOTH",
"802 44 OFFCURVE",
"709 44 QCURVE SMOOTH",
"661 44 LINE SMOOTH",
"596 44 OFFCURVE",
"593 54 QCURVE",
"584 80 OFFCURVE",
"584 145 QCURVE SMOOTH",
"584 300 LINE SMOOTH",
"584 309 OFFCURVE",
"656 309 QCURVE SMOOTH",
"749 309 OFFCURVE",
"762 301 QCURVE",
"768 297 OFFCURVE",
"773 292 OFFCURVE",
"783 265 OFFCURVE",
"790 238 QCURVE",
"793 230 OFFCURVE",
"806 230 QCURVE SMOOTH",
"818 230 OFFCURVE",
"822 234 QCURVE",
"822 423 LINE",
"817 428 OFFCURVE",
"805 428 QCURVE SMOOTH",
"791 428 OFFCURVE",
"790 421 QCURVE",
"784 398 OFFCURVE",
"782 387 OFFCURVE",
"769 363 OFFCURVE",
"761 361 OFFCURVE",
"733 353 OFFCURVE",
"708 353 OFFCURVE",
"680 353 QCURVE SMOOTH",
"627 353 LINE SMOOTH",
"584 353 OFFCURVE",
"584 359 QCURVE SMOOTH",
"584 519 LINE SMOOTH",
"584 579 OFFCURVE",
"589 603 QCURVE",
"591 616 OFFCURVE",
"677 616 QCURVE SMOOTH",
"744 616 LINE SMOOTH",
"791 616 OFFCURVE",
"845 585 OFFCURVE",
"860 530 QCURVE",
"861 523 OFFCURVE",
"887 523 OFFCURVE",
"892 528 QCURVE",
"890 540 OFFCURVE",
"867 635 OFFCURVE",
"863 664 QCURVE",
"806 664 OFFCURVE",
"584 656 OFFCURVE",
"540 656 QCURVE SMOOTH",
"473 656 OFFCURVE",
"424 658 QCURVE",
"420 654 OFFCURVE",
"420 643 QCURVE SMOOTH",
"420 629 OFFCURVE",
"424 629 QCURVE SMOOTH",
"437 629 OFFCURVE",
"469 616 OFFCURVE",
"469 604 QCURVE SMOOTH",
"469 596 OFFCURVE",
"462 584 QCURVE SMOOTH",
"185 137 LINE SMOOTH",
"143 68 OFFCURVE",
"116 43 QCURVE",
"99 26 OFFCURVE",
"55 26 QCURVE SMOOTH",
"51 26 OFFCURVE",
"48 10 QCURVE SMOOTH",
"46 -1 OFFCURVE",
"48 -3 QCURVE",
"117 0 OFFCURVE",
"153 0 QCURVE SMOOTH",
"195 0 OFFCURVE",
"255 -3 QCURVE",
"257 2 OFFCURVE",
"262 26 OFFCURVE",
"260 26 QCURVE SMOOTH",
"220 26 OFFCURVE",
"206 40 QCURVE SMOOTH",
"199 47 OFFCURVE",
"202 60 QCURVE SMOOTH",
"206 79 OFFCURVE",
"235 129 QCURVE SMOOTH",
"304 239 LINE",
"309 242 OFFCURVE",
"309 242 QCURVE",
"386 247 OFFCURVE",
"408 247 QCURVE SMOOTH"
);
}
);
width = 982;
}
);
note = AE;
unicode = 00C6;
},
{
glyphname = Eth;
layers = (
{
layerId = "0276F023-BC64-4582-8657-390FE5DB601E";
paths = (
{
closed = 1;
nodes = (
"65 339 OFFCURVE",
"65 321 QCURVE SMOOTH",
"65 308 OFFCURVE",
"70 308 QCURVE SMOOTH",
"416 308 OFFCURVE",
"416 308 QCURVE",
"422 322 OFFCURVE",
"422 338 QCURVE SMOOTH",
"422 348 OFFCURVE",
"416 348 QCURVE SMOOTH",
"71 348 OFFCURVE",
"71 348 QCURVE"
);
},
{
closed = 1;
nodes = (
"107 656 OFFCURVE",
"55 658 QCURVE",
"51 654 OFFCURVE",
"51 641 QCURVE SMOOTH",
"51 629 OFFCURVE",
"55 629 QCURVE SMOOTH",
"68 629 OFFCURVE",
"121 615 OFFCURVE",
"124 607 QCURVE",
"131 580 OFFCURVE",
"131 521 QCURVE SMOOTH",
"131 143 LINE SMOOTH",
"131 61 OFFCURVE",
"124 49 QCURVE SMOOTH",
"119 40 OFFCURVE",
"68 26 OFFCURVE",
"55 26 QCURVE SMOOTH",
"52 26 OFFCURVE",
"52 12 QCURVE SMOOTH",
"52 0 OFFCURVE",
"55 -3 QCURVE",
"176 0 LINE SMOOTH",
"214 1 OFFCURVE",
"335 -3 OFFCURVE",
"347 -3 QCURVE SMOOTH",
"509 -3 OFFCURVE",
"693 191 OFFCURVE",
"693 336 QCURVE SMOOTH",
"693 466 OFFCURVE",
"511 658 OFFCURVE",
"348 658 QCURVE SMOOTH",
"329 658 OFFCURVE",
"210 656 OFFCURVE",
"174 656 QCURVE SMOOTH"
);
},
{
closed = 1;
nodes = (
"218 580 OFFCURVE",
"231 598 QCURVE SMOOTH",
"243 614 OFFCURVE",
"351 614 QCURVE SMOOTH",
"356 614 LINE SMOOTH",
"472 614 OFFCURVE",
"597 453 OFFCURVE",
"597 340 QCURVE SMOOTH",
"597 194 OFFCURVE",
"478 43 OFFCURVE",
"363 43 QCURVE SMOOTH",
"336 43 OFFCURVE",
"237 53 OFFCURVE",
"233 63 QCURVE",
"218 97 OFFCURVE",
"218 139 QCURVE SMOOTH",
"218 535 LINE SMOOTH"
);
}
);
width = 731;
}
);
note = Eth;
unicode = 00D0;
},
{
glyphname = multiply;
layers = (
{
layerId = "0276F023-BC64-4582-8657-390FE5DB601E";
paths = (
{
closed = 1;
nodes = (
"58 60 OFFCURVE",
"61 63 QCURVE SMOOTH",
"204 203 LINE SMOOTH",
"206 205 OFFCURVE",
"210 205 OFFCURVE",
"212 203 QCURVE SMOOTH",
"352 63 LINE SMOOTH",
"355 60 OFFCURVE",
"360 60 QCURVE SMOOTH",
"366 60 OFFCURVE",
"386 97 OFFCURVE",
"386 108 QCURVE",
"250 244 LINE",
"250 246 LINE SMOOTH",
"250 248 OFFCURVE",
"251 249 QCURVE SMOOTH",
"386 384 LINE",
"386 392 OFFCURVE",
"362 433 OFFCURVE",
"357 433 QCURVE SMOOTH",
"355 433 OFFCURVE",
"352 430 QCURVE SMOOTH",
"211 289 LINE",
"209 288 LINE",
"207 288 OFFCURVE",
"205 290 QCURVE SMOOTH",
"63 431 LINE SMOOTH",
"59 435 OFFCURVE",
"58 435 QCURVE SMOOTH",
"53 435 OFFCURVE",
"27 398 OFFCURVE",
"27 388 QCURVE",
"164 251 LINE SMOOTH",
"166 249 OFFCURVE",
"166 246 QCURVE SMOOTH",
"166 244 OFFCURVE",
"165 243 QCURVE SMOOTH",
"27 108 LINE",
"27 100 OFFCURVE",
"51 60 OFFCURVE",
"56 60 QCURVE SMOOTH"
);
}
);
width = 414;
}
);
note = multiply;
unicode = 00D7;
},
{
glyphname = Oslash;
layers = (
{
layerId = "0276F023-BC64-4582-8657-390FE5DB601E";
paths = (
{
closed = 1;
nodes = (
"406 625 OFFCURVE",
"516 530 OFFCURVE",
"568 389 OFFCURVE",
"568 309 QCURVE SMOOTH",
"568 239 OFFCURVE",
"523 116 OFFCURVE",
"427 33 OFFCURVE",
"363 33 QCURVE SMOOTH",
"289 33 OFFCURVE",
"179 128 OFFCURVE",
"127 270 OFFCURVE",
"127 350 QCURVE SMOOTH",
"127 459 OFFCURVE",
"237 625 OFFCURVE",
"332 625 QCURVE SMOOTH"
);
},
{
closed = 1;
nodes = (
"122 10 LINE",
"119 6 OFFCURVE",
"142 -10 OFFCURVE",
"151 -13 QCURVE",
"569 645 LINE",
"572 649 OFFCURVE",
"548 665 OFFCURVE",
"540 667 QCURVE"
);
},
{
closed = 1;
nodes = (
"28 188 OFFCURVE",
"215 -10 OFFCURVE",
"479 -10 OFFCURVE",
"667 188 OFFCURVE",
"667 468 OFFCURVE",
"479 667 OFFCURVE",
"215 667 OFFCURVE",
"28 468 OFFCURVE"
);
}
);
width = 696;
}
);
note = Oslash;
unicode = 00D8;
},
{
glyphname = Thorn;
layers = (
{
layerId = "0276F023-BC64-4582-8657-390FE5DB601E";
paths = (
{
closed = 1;
nodes = (
"169 657 OFFCURVE",
"54 662 QCURVE",
"50 658 OFFCURVE",
"50 646 QCURVE SMOOTH",
"50 633 OFFCURVE",
"54 633 QCURVE SMOOTH",
"67 633 OFFCURVE",
"118 620 OFFCURVE",
"121 612 QCURVE",
"128 585 OFFCURVE",
"128 523 QCURVE SMOOTH",
"128 135 LINE SMOOTH",
"128 73 OFFCURVE",
"121 46 QCURVE",
"118 38 OFFCURVE",
"67 26 OFFCURVE",
"54 26 QCURVE SMOOTH",
"50 26 OFFCURVE",
"50 12 QCURVE SMOOTH",
"50 1 OFFCURVE",
"54 -3 QCURVE",
"169 2 OFFCURVE",
"174 2 QCURVE SMOOTH",
"190 2 OFFCURVE",
"290 -3 QCURVE",
"292 3 OFFCURVE",
"292 11 QCURVE SMOOTH",
"292 26 OFFCURVE",
"288 26 QCURVE SMOOTH",
"278 26 OFFCURVE",
"226 39 OFFCURVE",
"224 46 QCURVE SMOOTH",
"215 81 OFFCURVE",
"215 139 QCURVE SMOOTH",
"215 423 LINE SMOOTH",
"215 456 OFFCURVE",
"227 460 QCURVE SMOOTH",
"247 467 OFFCURVE",
"297 467 QCURVE SMOOTH",
"362 467 OFFCURVE",
"424 384 OFFCURVE",
"424 313 QCURVE SMOOTH",
"424 255 OFFCURVE",
"352 171 OFFCURVE",
"302 171 QCURVE SMOOTH",
"265 171 OFFCURVE",
"235 182 QCURVE",
"233 183 OFFCURVE",
"232 179 QCURVE",
"229 163 OFFCURVE",
"235 156 QCURVE",
"256 128 OFFCURVE",
"312 128 QCURVE SMOOTH",
"362 128 OFFCURVE",
"443 169 OFFCURVE",
"491 232 OFFCURVE",
"516 299 OFFCURVE",
"516 328 QCURVE SMOOTH",
"516 377 OFFCURVE",
"476 451 OFFCURVE",
"413 491 OFFCURVE",
"346 511 OFFCURVE",
"313 511 QCURVE SMOOTH",
"287 511 OFFCURVE",
"244 504 OFFCURVE",
"220 497 OFFCURVE",
"219 497 QCURVE SMOOTH",
"215 497 OFFCURVE",
"215 504 QCURVE SMOOTH",
"215 524 LINE SMOOTH",
"215 578 OFFCURVE",
"224 612 QCURVE SMOOTH",
"226 619 OFFCURVE",
"278 633 OFFCURVE",
"288 633 QCURVE SMOOTH",
"292 633 OFFCURVE",
"292 647 QCURVE SMOOTH",
"292 656 OFFCURVE",
"290 662 QCURVE",
"190 657 OFFCURVE",
"174 657 QCURVE SMOOTH"
);
}
);
width = 556;
}
);
note = Thorn;
unicode = 00DE;
},
{
glyphname = germandbls;
layers = (
{
layerId = "0276F023-BC64-4582-8657-390FE5DB601E";
paths = (
{
closed = 1;
nodes = (
"463 628 OFFCURVE",
"367 693 OFFCURVE",
"287 693 QCURVE SMOOTH",
"208 693 OFFCURVE",
"116 563 OFFCURVE",
"116 438 QCURVE SMOOTH",
"116 422 LINE SMOOTH",
"116 416 OFFCURVE",
"111 416 QCURVE SMOOTH",
"70 416 LINE SMOOTH",
"66 416 OFFCURVE",
"55 385 OFFCURVE",
"55 375 QCURVE SMOOTH",
"55 369 OFFCURVE",
"58 369 QCURVE SMOOTH",
"111 369 LINE SMOOTH",
"116 369 OFFCURVE",
"116 361 QCURVE SMOOTH",
"116 273 OFFCURVE",
"115 135 QCURVE SMOOTH",
"115 81 OFFCURVE",
"106 46 QCURVE SMOOTH",
"104 39 OFFCURVE",
"63 26 OFFCURVE",
"51 26 QCURVE SMOOTH",
"47 26 OFFCURVE",
"47 12 QCURVE SMOOTH",
"47 1 OFFCURVE",
"51 -3 QCURVE",
"154 2 OFFCURVE",
"155 2 QCURVE SMOOTH",
"157 2 OFFCURVE",
"257 -3 QCURVE",
"259 2 OFFCURVE",
"257 26 OFFCURVE",
"254 26 QCURVE SMOOTH",
"245 26 OFFCURVE",
"203 39 OFFCURVE",
"201 46 QCURVE SMOOTH",
"194 73 OFFCURVE",
"194 135 QCURVE",
"193 475 LINE",
"193 512 OFFCURVE",
"199 567 OFFCURVE",
"217 627 OFFCURVE",
"258 660 OFFCURVE",
"290 660 QCURVE SMOOTH",
"337 660 OFFCURVE",
"388 599 OFFCURVE",
"388 549 QCURVE SMOOTH",
"388 513 OFFCURVE",
"363 458 OFFCURVE",
"328 423 OFFCURVE",
"292 392 OFFCURVE",
"267 351 OFFCURVE",
"267 325 QCURVE SMOOTH",
"267 288 OFFCURVE",
"307 233 OFFCURVE",
"365 200 OFFCURVE",
"423 171 OFFCURVE",
"463 129 OFFCURVE",
"463 102 QCURVE SMOOTH",
"463 65 OFFCURVE",
"428 23 OFFCURVE",
"400 23 QCURVE SMOOTH",
"383 23 OFFCURVE",
"357 44 OFFCURVE",
"344 70 OFFCURVE",
"326 91 OFFCURVE",
"315 91 QCURVE SMOOTH",
"281 91 OFFCURVE",
"281 33 QCURVE",
"290 18 OFFCURVE",
"357 -10 OFFCURVE",
"399 -10 QCURVE SMOOTH",
"455 -10 OFFCURVE",
"531 77 OFFCURVE",
"531 137 QCURVE SMOOTH",
"531 161 OFFCURVE",
"512 202 OFFCURVE",
"475 234 OFFCURVE",
"446 253 OFFCURVE",
"423 265 QCURVE SMOOTH",
"376 290 OFFCURVE",
"325 332 OFFCURVE",
"325 359 QCURVE SMOOTH",
"325 376 OFFCURVE",
"368 419 OFFCURVE",
"420 457 OFFCURVE",
"463 523 OFFCURVE",
"463 561 QCURVE SMOOTH"
);
}
);
width = 578;
}
);
note = germandbls;
unicode = 00DF;
},
{
glyphname = ae;
layers = (
{
layerId = "0276F023-BC64-4582-8657-390FE5DB601E";
paths = (
{
closed = 1;
nodes = (
"272 83 OFFCURVE",
"222 50 OFFCURVE",
"168 50 OFFCURVE",
"134 79 OFFCURVE",
"134 106 QCURVE SMOOTH",
"134 177 OFFCURVE",
"272 203 QCURVE",
"272 100 LINE SMOOTH"
);
},
{
closed = 1;
nodes = (
"500 399 OFFCURVE",
"554 314 OFFCURVE",
"554 287 QCURVE SMOOTH",
"554 279 OFFCURVE",
"549 278 QCURVE",
"543 276 OFFCURVE",
"403 263 OFFCURVE",
"362 261 QCURVE",
"356 261 OFFCURVE",
"356 267 QCURVE SMOOTH",
"356 309 OFFCURVE",
"415 399 OFFCURVE",
"464 399 QCURVE SMOOTH"
);
},
{
closed = 1;
nodes = (
"180 436 OFFCURVE",
"54 351 OFFCURVE",
"54 308 QCURVE",
"65 289 OFFCURVE",
"93 289 QCURVE SMOOTH",
"134 289 OFFCURVE",
"134 324 QCURVE SMOOTH",
"134 357 OFFCURVE",
"174 398 OFFCURVE",
"204 398 QCURVE SMOOTH",
"231 398 OFFCURVE",
"272 365 OFFCURVE",
"272 340 QCURVE SMOOTH",
"272 256 LINE SMOOTH",
"272 242 OFFCURVE",
"263 241 QCURVE",
"229 235 OFFCURVE",
"162 214 OFFCURVE",
"93 179 OFFCURVE",
"50 124 OFFCURVE",
"50 91 QCURVE SMOOTH",
"50 42 OFFCURVE",
"110 -7 OFFCURVE",
"156 -7 QCURVE SMOOTH",
"205 -7 OFFCURVE",
"294 49 OFFCURVE",
"318 78 QCURVE",
"375 -6 OFFCURVE",
"480 -6 QCURVE SMOOTH",
"562 -6 OFFCURVE",
"622 65 QCURVE",
"629 72 OFFCURVE",
"629 98 OFFCURVE",
"623 98 QCURVE SMOOTH",
"622 98 OFFCURVE",
"596 81 OFFCURVE",
"572 69 OFFCURVE",
"527 58 OFFCURVE",
"504 58 QCURVE SMOOTH",
"442 58 OFFCURVE",
"355 150 OFFCURVE",
"355 214 QCURVE SMOOTH",
"355 222 OFFCURVE",
"363 222 QCURVE",
"501 229 OFFCURVE",
"602 237 QCURVE",
"603 237 OFFCURVE",
"612 237 OFFCURVE",
"613 238 OFFCURVE",
"621 239 OFFCURVE",
"622 240 OFFCURVE",
"627 243 OFFCURVE",
"628 247 OFFCURVE",
"630 253 OFFCURVE",
"631 260 OFFCURVE",
"631 265 QCURVE SMOOTH",
"631 294 OFFCURVE",
"616 348 OFFCURVE",
"582 403 OFFCURVE",
"514 436 OFFCURVE",
"468 436 QCURVE SMOOTH",
"395 436 OFFCURVE",
"341 382 QCURVE",
"332 407 OFFCURVE",
"278 436 OFFCURVE",
"245 436 QCURVE SMOOTH"
);
}
);
width = 675;
}
);
note = ae;
unicode = 00E6;
},
{
glyphname = eth;
layers = (
{
layerId = "0276F023-BC64-4582-8657-390FE5DB601E";
paths = (
{
closed = 1;
nodes = (
"102 541 LINE",
"96 535 OFFCURVE",
"119 509 QCURVE",
"374 674 LINE",
"378 678 OFFCURVE",
"356 705 QCURVE"
);
},
{
closed = 1;
nodes = (
"154 438 OFFCURVE",
"28 299 OFFCURVE",
"28 215 QCURVE SMOOTH",
"28 128 OFFCURVE",
"155 -7 OFFCURVE",
"255 -7 QCURVE SMOOTH",
"340 -7 OFFCURVE",
"452 148 OFFCURVE",
"452 260 QCURVE SMOOTH",
"452 331 OFFCURVE",
"409 459 OFFCURVE",
"337 553 OFFCURVE",
"241 629 OFFCURVE",
"139 676 OFFCURVE",
"86 688 QCURVE",
"81 688 OFFCURVE",
"72 670 OFFCURVE",
"72 664 QCURVE",
"201 611 OFFCURVE",
"330 477 OFFCURVE",
"344 408 QCURVE",
"333 420 OFFCURVE",
"272 438 OFFCURVE",
"243 438 QCURVE SMOOTH"
);
},
{
closed = 1;
nodes = (
"300 398 OFFCURVE",
"346 338 QCURVE SMOOTH",
"365 313 OFFCURVE",
"365 218 QCURVE SMOOTH",
"365 140 OFFCURVE",
"302 32 OFFCURVE",
"246 32 QCURVE SMOOTH",
"192 32 OFFCURVE",
"114 147 OFFCURVE",
"114 222 QCURVE SMOOTH",
"114 294 OFFCURVE",
"179 398 OFFCURVE",
"230 398 QCURVE SMOOTH"
);
}
);
width = 514;
}
);
note = eth;
unicode = 00F0;
},
{
glyphname = divide;
layers = (
{
layerId = "0276F023-BC64-4582-8657-390FE5DB601E";
paths = (
{
closed = 1;
nodes = (
"281 390 OFFCURVE",
"311 420 OFFCURVE",
"311 438 QCURVE SMOOTH",
"311 443 LINE",
"309 463 OFFCURVE",
"282 487 OFFCURVE",
"262 487 QCURVE SMOOTH",
"243 487 OFFCURVE",
"213 458 OFFCURVE",
"213 439 QCURVE SMOOTH",
"213 435 LINE",
"215 415 OFFCURVE",
"242 390 OFFCURVE",
"262 390 QCURVE SMOOTH"
);
},
{
closed = 1;
nodes = (
"281 5 OFFCURVE",
"311 37 OFFCURVE",
"311 55 QCURVE SMOOTH",
"311 57 LINE",
"309 78 OFFCURVE",
"282 105 OFFCURVE",
"262 105 QCURVE SMOOTH",
"243 105 OFFCURVE",
"213 75 OFFCURVE",
"213 56 QCURVE SMOOTH",
"213 52 LINE",
"215 31 OFFCURVE",
"242 5 OFFCURVE",
"262 5 QCURVE SMOOTH"
);
},
{
closed = 1;
nodes = (
"28 220 OFFCURVE",
"30 217 QCURVE",
"34 215 OFFCURVE",
"34 215 QCURVE",
"482 215 LINE",
"484 216 LINE",
"485 216 OFFCURVE",
"489 219 OFFCURVE",
"490 222 QCURVE",
"498 254 OFFCURVE",
"498 268 QCURVE SMOOTH",
"498 277 OFFCURVE",
"491 278 QCURVE",
"42 278 LINE SMOOTH",
"35 278 OFFCURVE",
"28 234 OFFCURVE",
"28 224 QCURVE SMOOTH"
);
}
);
width = 528;
}
);
note = divide;
unicode = 00F7;
},
{
glyphname = oslash;
layers = (
{
layerId = "0276F023-BC64-4582-8657-390FE5DB601E";
paths = (
{
closed = 1;
nodes = (
"398 417 LINE",
"401 424 OFFCURVE",
"371 437 QCURVE",
"101 13 LINE",
"98 7 OFFCURVE",
"128 -8 QCURVE"
);
},
{
closed = 1;
nodes = (
"199 32 OFFCURVE",
"114 149 OFFCURVE",
"114 231 QCURVE SMOOTH",
"114 301 OFFCURVE",
"181 398 OFFCURVE",
"234 398 QCURVE SMOOTH",
"291 398 OFFCURVE",
"377 283 OFFCURVE",
"377 202 QCURVE SMOOTH",
"377 132 OFFCURVE",
"309 32 OFFCURVE",
"256 32 QCURVE SMOOTH"
);
},
{
closed = 1;
nodes = (
"152 437 OFFCURVE",
"28 309 OFFCURVE",
"28 216 QCURVE SMOOTH",
"28 124 OFFCURVE",
"156 -7 OFFCURVE",
"338 -7 OFFCURVE",
"463 124 OFFCURVE",
"463 216 QCURVE SMOOTH",
"463 307 OFFCURVE",
"335 437 OFFCURVE",
"245 437 QCURVE SMOOTH"
);
}
);
width = 533;
}
);
note = oslash;
unicode = 00F8;
},
{
glyphname = thorn;
layers = (
{
layerId = "0276F023-BC64-4582-8657-390FE5DB601E";
paths = (
{
closed = 1;
nodes = (
"271 436 OFFCURVE",
"208 412 OFFCURVE",
"194 402 QCURVE",
"191 402 OFFCURVE",
"191 407 QCURVE SMOOTH",
"191 591 LINE SMOOTH",
"191 646 OFFCURVE",
"202 678 QCURVE",
"201 683 OFFCURVE",
"193 694 OFFCURVE",
"189 694 QCURVE SMOOTH",
"187 694 LINE",
"182 691 LINE",
"178 688 OFFCURVE",
"158 679 OFFCURVE",
"129 669 OFFCURVE",
"78 659 OFFCURVE",
"48 656 QCURVE",
"42 656 OFFCURVE",
"42 640 QCURVE SMOOTH",
"42 629 OFFCURVE",
"48 629 QCURVE SMOOTH",
"57 629 LINE SMOOTH",
"103 629 OFFCURVE",
"108 613 QCURVE",
"114 583 OFFCURVE",
"114 548 QCURVE SMOOTH",
"114 -107 LINE SMOOTH",
"114 -148 OFFCURVE",
"107 -177 QCURVE",
"105 -184 OFFCURVE",
"58 -197 OFFCURVE",
"46 -197 QCURVE SMOOTH",
"42 -197 OFFCURVE",
"42 -222 OFFCURVE",
"46 -226 QCURVE",
"148 -221 OFFCURVE",
"162 -221 OFFCURVE",
"262 -226 QCURVE",
"264 -222 OFFCURVE",
"262 -197 OFFCURVE",
"259 -197 QCURVE SMOOTH",
"249 -197 OFFCURVE",
"201 -184 OFFCURVE",
"199 -177 QCURVE SMOOTH",
"191 -146 OFFCURVE",
"191 -88 QCURVE SMOOTH",
"191 -2 LINE SMOOTH",
"191 6 OFFCURVE",
"195 11 QCURVE",
"197 10 OFFCURVE",
"213 3 OFFCURVE",
"223 -1 OFFCURVE",
"241 -6 OFFCURVE",
"264 -8 OFFCURVE",
"279 -8 QCURVE SMOOTH",
"364 -8 OFFCURVE",
"498 138 OFFCURVE",
"498 234 QCURVE SMOOTH",
"498 307 OFFCURVE",
"390 436 OFFCURVE",
"294 436 QCURVE SMOOTH"
);
},
{
closed = 1;
nodes = (
"323 387 OFFCURVE",
"412 290 OFFCURVE",
"412 206 QCURVE SMOOTH",
"412 140 OFFCURVE",
"342 34 OFFCURVE",
"283 34 QCURVE SMOOTH",
"249 34 OFFCURVE",
"191 71 OFFCURVE",
"191 98 QCURVE SMOOTH",
"191 323 LINE SMOOTH",
"191 354 OFFCURVE",
"231 387 OFFCURVE",
"262 387 QCURVE SMOOTH"
);
}
);
width = 513;
}
);
note = thorn;
unicode = 00FE;
},
{
glyphname = Aogonek;
layers = (
{
layerId = "0276F023-BC64-4582-8657-390FE5DB601E";
paths = (
{
closed = 1;
nodes = (
"154 139 LINE SMOOTH",
"128 72 OFFCURVE",
"107 45 QCURVE SMOOTH",
"100 36 OFFCURVE",
"62 26 OFFCURVE",
"50 26 QCURVE SMOOTH",
"46 26 OFFCURVE",
"46 12 QCURVE SMOOTH",
"46 1 OFFCURVE",
"50 -3 QCURVE",
"67 -2 OFFCURVE",
"104 0 OFFCURVE",
"134 2 OFFCURVE",
"154 2 QCURVE SMOOTH",
"157 2 OFFCURVE",
"257 -3 QCURVE",
"259 2 OFFCURVE",
"258 26 OFFCURVE",
"255 26 QCURVE SMOOTH",
"246 26 OFFCURVE",
"206 35 OFFCURVE",
"197 42 QCURVE SMOOTH",
"189 48 OFFCURVE",
"189 62 QCURVE SMOOTH",
"189 81 OFFCURVE",
"206 131 QCURVE",
"249 241 LINE",
"254 244 LINE",
"329 249 OFFCURVE",
"381 249 QCURVE SMOOTH",
"418 249 OFFCURVE",
"457 246 QCURVE",
"460 246 OFFCURVE",
"463 242 QCURVE",
"504 129 LINE",
"508 118 LINE",
"511 108 OFFCURVE",
"518 73 OFFCURVE",
"518 60 QCURVE SMOOTH",
"518 52 OFFCURVE",
"516 44 QCURVE",
"513 36 OFFCURVE",
"477 26 OFFCURVE",
"465 26 QCURVE SMOOTH",
"461 26 OFFCURVE",
"460 1 OFFCURVE",
"464 -3 QCURVE",
"482 -2 OFFCURVE",
"529 1 OFFCURVE",
"545 2 QCURVE",
"500 -27 OFFCURVE",
"433 -108 OFFCURVE",
"433 -146 QCURVE SMOOTH",
"433 -173 OFFCURVE",
"467 -223 OFFCURVE",
"504 -223 QCURVE SMOOTH",
"559 -223 OFFCURVE",
"609 -157 QCURVE SMOOTH",
"614 -150 OFFCURVE",
"614 -139 QCURVE SMOOTH",
"614 -126 OFFCURVE",
"609 -126 QCURVE SMOOTH",
"608 -126 OFFCURVE",
"588 -145 OFFCURVE",
"550 -164 OFFCURVE",
"528 -164 QCURVE SMOOTH",
"505 -164 OFFCURVE",
"487 -137 OFFCURVE",
"487 -121 QCURVE SMOOTH",
"487 -91 OFFCURVE",
"552 -21 OFFCURVE",
"591 2 QCURVE",
"627 1 OFFCURVE",
"690 -3 QCURVE",
"692 3 OFFCURVE",
"692 7 QCURVE SMOOTH",
"692 26 OFFCURVE",
"688 26 QCURVE SMOOTH",
"676 26 OFFCURVE",
"626 45 OFFCURVE",
"620 60 QCURVE SMOOTH",
"609 85 OFFCURVE",
"591 132 QCURVE SMOOTH",
"391 660 LINE",
"382 663 LINE",
"375 663 OFFCURVE",
"364 659 OFFCURVE",
"355 649 OFFCURVE",
"349 641 OFFCURVE",
"341 624 OFFCURVE",
"337 613 OFFCURVE",
"330 591 OFFCURVE",
"328 586 QCURVE SMOOTH"
);
},
{
closed = 1;
nodes = (
"440 305 LINE",
"437 300 LINE",
"390 297 OFFCURVE",
"346 297 QCURVE SMOOTH",
"327 297 OFFCURVE",
"275 299 QCURVE",
"273 299 OFFCURVE",
"273 303 QCURVE",
"359 526 LINE"
);
}
);
width = 746;
}
);
note = Aogonek;
unicode = 0104;
},
{
glyphname = aogonek;
layers = (
{
layerId = "0276F023-BC64-4582-8657-390FE5DB601E";
paths = (
{
closed = 1;
nodes = (
"134 129 OFFCURVE",
"167 164 OFFCURVE",
"202 179 OFFCURVE",
"264 199 OFFCURVE",
"272 203 QCURVE",
"272 100 LINE SMOOTH",
"272 83 OFFCURVE",
"222 50 OFFCURVE",
"168 50 OFFCURVE",
"134 79 OFFCURVE",
"134 106 QCURVE SMOOTH"
);
},
{
closed = 1;
nodes = (
"348 324 LINE SMOOTH",
"348 383 OFFCURVE",
"300 436 OFFCURVE",
"245 436 QCURVE SMOOTH",
"180 436 OFFCURVE",
"54 351 OFFCURVE",
"54 308 QCURVE",
"65 289 OFFCURVE",
"93 289 QCURVE SMOOTH",
"134 289 OFFCURVE",
"134 324 QCURVE SMOOTH",
"134 357 OFFCURVE",
"174 398 OFFCURVE",
"204 398 QCURVE SMOOTH",
"232 398 OFFCURVE",
"272 363 OFFCURVE",
"272 331 QCURVE SMOOTH",
"272 256 LINE SMOOTH",
"272 244 OFFCURVE",
"263 241 QCURVE",
"251 236 OFFCURVE",
"191 216 OFFCURVE",
"154 203 OFFCURVE",
"102 177 OFFCURVE",
"72 152 OFFCURVE",
"50 113 OFFCURVE",
"50 91 QCURVE SMOOTH",
"50 42 OFFCURVE",
"110 -7 OFFCURVE",
"156 -7 QCURVE SMOOTH",
"176 -7 OFFCURVE",
"215 5 OFFCURVE",
"244 23 OFFCURVE",
"266 40 OFFCURVE",
"279 53 OFFCURVE",
"280 53 QCURVE",
"293 16 OFFCURVE",
"326 -2 QCURVE",
"286 -34 OFFCURVE",
"224 -115 OFFCURVE",
"224 -146 QCURVE SMOOTH",
"224 -173 OFFCURVE",
"258 -223 OFFCURVE",
"295 -223 QCURVE SMOOTH",
"350 -223 OFFCURVE",
"400 -157 QCURVE SMOOTH",
"405 -150 OFFCURVE",
"405 -139 QCURVE SMOOTH",
"405 -126 OFFCURVE",
"400 -126 QCURVE SMOOTH",
"399 -126 OFFCURVE",
"379 -145 OFFCURVE",
"342 -164 OFFCURVE",
"296 -164 OFFCURVE",
"278 -137 OFFCURVE",
"278 -121 QCURVE SMOOTH",
"278 -108 OFFCURVE",
"291 -81 OFFCURVE",
"305 -62 OFFCURVE",
"336 -35 OFFCURVE",
"351 -24 OFFCURVE",
"387 1 OFFCURVE",
"390 3 QCURVE SMOOTH",
"423 26 LINE",
"429 40 OFFCURVE",
"429 51 QCURVE SMOOTH",
"429 56 OFFCURVE",
"424 56 QCURVE SMOOTH",
"423 56 OFFCURVE",
"413 49 OFFCURVE",
"397 42 OFFCURVE",
"389 42 QCURVE SMOOTH",
"370 42 OFFCURVE",
"348 72 OFFCURVE",
"348 93 QCURVE SMOOTH"
);
}
);
width = 418;
}
);
note = aogonek;
unicode = 0105;
},
{
glyphname = dcroat;
layers = (
{
layerId = "0276F023-BC64-4582-8657-390FE5DB601E";
paths = (
{
closed = 1;
nodes = (
"168 440 OFFCURVE",
"31 293 OFFCURVE",
"31 196 QCURVE SMOOTH",
"31 114 OFFCURVE",
"143 -4 OFFCURVE",
"226 -4 QCURVE SMOOTH",
"276 -4 OFFCURVE",
"332 27 QCURVE",
"336 29 OFFCURVE",
"336 23 QCURVE SMOOTH",
"336 11 LINE SMOOTH",
"336 -6 OFFCURVE",
"342 -6 QCURVE",
"351 -4 LINE",
"360 -1 OFFCURVE",
"388 6 OFFCURVE",
"421 13 OFFCURVE",
"458 19 OFFCURVE",
"473 20 QCURVE",
"479 20 OFFCURVE",
"479 35 QCURVE SMOOTH",
"479 46 OFFCURVE",
"476 47 QCURVE",
"467 48 LINE",
"458 48 OFFCURVE",
"439 50 OFFCURVE",
"421 58 OFFCURVE",
"419 65 QCURVE",
"413 93 OFFCURVE",
"413 141 QCURVE SMOOTH",
"413 591 LINE SMOOTH",
"413 646 OFFCURVE",
"424 678 QCURVE",
"423 683 OFFCURVE",
"415 694 OFFCURVE",
"411 694 QCURVE SMOOTH",
"409 694 LINE",
"404 691 LINE",
"400 688 OFFCURVE",
"380 679 OFFCURVE",
"351 669 OFFCURVE",
"300 659 OFFCURVE",
"270 656 QCURVE",
"264 656 OFFCURVE",
"264 640 QCURVE SMOOTH",
"264 629 OFFCURVE",
"270 629 QCURVE SMOOTH",
"279 629 LINE SMOOTH",
"325 629 OFFCURVE",
"330 613 QCURVE",
"336 583 OFFCURVE",
"336 549 QCURVE SMOOTH",
"336 441 LINE SMOOTH",
"336 423 OFFCURVE",
"329 423 QCURVE",
"297 440 OFFCURVE",
"254 440 QCURVE SMOOTH"
);
},
{
closed = 1;
nodes = (
"291 398 OFFCURVE",
"336 361 OFFCURVE",
"336 340 QCURVE SMOOTH",
"336 102 LINE SMOOTH",
"336 76 OFFCURVE",
"298 45 OFFCURVE",
"264 45 QCURVE SMOOTH",
"195 45 OFFCURVE",
"117 152 OFFCURVE",
"117 225 QCURVE SMOOTH",
"117 294 OFFCURVE",
"183 398 OFFCURVE",
"241 398 QCURVE SMOOTH"
);
},
{
closed = 1;
nodes = (
"206 560 OFFCURVE",
"206 542 QCURVE SMOOTH",
"206 529 OFFCURVE",
"211 529 QCURVE SMOOTH",
"477 529 LINE",
"483 542 OFFCURVE",
"483 559 QCURVE SMOOTH",
"483 569 OFFCURVE",
"477 569 QCURVE SMOOTH",
"212 569 LINE"
);
}
);
width = 491;
}
);
note = dcroat;
unicode = 0111;
},
{
glyphname = Eogonek;
layers = (
{
layerId = "0276F023-BC64-4582-8657-390FE5DB601E";
paths = (
{
closed = 1;
nodes = (
"104 656 OFFCURVE",
"52 658 QCURVE",
"48 654 OFFCURVE",
"48 641 QCURVE SMOOTH",
"48 629 OFFCURVE",
"52 629 QCURVE SMOOTH",
"65 629 OFFCURVE",
"118 615 OFFCURVE",
"121 607 QCURVE",
"128 580 OFFCURVE",
"128 521 QCURVE SMOOTH",
"128 143 LINE SMOOTH",
"128 61 OFFCURVE",
"121 49 QCURVE SMOOTH",
"116 40 OFFCURVE",
"65 26 OFFCURVE",
"52 26 QCURVE SMOOTH",
"49 26 OFFCURVE",
"49 0 OFFCURVE",
"52 -3 QCURVE",
"173 0 LINE SMOOTH",
"204 0 OFFCURVE",
"437 -5 QCURVE",
"394 -35 OFFCURVE",
"333 -111 OFFCURVE",
"333 -147 QCURVE SMOOTH",
"333 -174 OFFCURVE",
"367 -224 OFFCURVE",
"404 -224 QCURVE SMOOTH",
"459 -224 OFFCURVE",
"509 -158 QCURVE SMOOTH",
"513 -153 OFFCURVE",
"513 -127 OFFCURVE",
"509 -127 QCURVE SMOOTH",
"508 -127 OFFCURVE",
"488 -146 OFFCURVE",
"450 -165 OFFCURVE",
"428 -165 QCURVE SMOOTH",
"405 -165 OFFCURVE",
"387 -138 OFFCURVE",
"387 -122 QCURVE SMOOTH",
"387 -88 OFFCURVE",
"472 -6 OFFCURVE",
"514 -6 QCURVE",
"517 14 OFFCURVE",
"533 65 OFFCURVE",
"564 147 OFFCURVE",
"568 158 QCURVE",
"562 164 OFFCURVE",
"543 164 QCURVE SMOOTH",
"530 164 OFFCURVE",
"529 158 QCURVE",
"518 120 OFFCURVE",
"481 65 OFFCURVE",
"466 57 QCURVE SMOOTH",
"433 40 OFFCURVE",
"340 40 QCURVE SMOOTH",
"292 40 LINE SMOOTH",
"227 40 OFFCURVE",
"224 50 QCURVE",
"215 76 OFFCURVE",
"215 141 QCURVE SMOOTH",
"215 296 LINE SMOOTH",
"215 305 OFFCURVE",
"287 305 QCURVE SMOOTH",
"380 305 OFFCURVE",
"393 297 QCURVE",
"399 293 OFFCURVE",
"404 288 OFFCURVE",
"414 261 OFFCURVE",
"421 234 QCURVE",
"424 226 OFFCURVE",
"437 226 QCURVE SMOOTH",
"449 226 OFFCURVE",
"453 230 QCURVE",
"453 419 LINE",
"448 424 OFFCURVE",
"436 424 QCURVE SMOOTH",
"422 424 OFFCURVE",
"421 417 QCURVE",
"415 394 OFFCURVE",
"413 383 OFFCURVE",
"400 359 OFFCURVE",
"392 357 OFFCURVE",
"364 349 OFFCURVE",
"339 349 OFFCURVE",
"311 349 QCURVE SMOOTH",
"258 349 LINE SMOOTH",
"215 349 OFFCURVE",
"215 355 QCURVE SMOOTH",
"215 515 LINE SMOOTH",
"215 575 OFFCURVE",
"220 599 QCURVE",
"222 612 OFFCURVE",
"308 612 QCURVE SMOOTH",
"375 612 LINE SMOOTH",
"422 612 OFFCURVE",
"476 581 OFFCURVE",
"491 526 QCURVE",
"492 519 OFFCURVE",
"518 519 OFFCURVE",
"523 524 QCURVE",
"521 536 OFFCURVE",
"498 631 OFFCURVE",
"494 660 QCURVE",
"438 660 OFFCURVE",
"216 656 OFFCURVE",
"171 656 QCURVE SMOOTH"
);
}
);
width = 612;
}
);
note = Eogonek;
unicode = 0118;
},
{
glyphname = eogonek;
layers = (
{
layerId = "0276F023-BC64-4582-8657-390FE5DB601E";
paths = (
{
closed = 1;
nodes = (
"257 399 OFFCURVE",
"311 316 OFFCURVE",
"311 284 QCURVE SMOOTH",
"311 274 OFFCURVE",
"306 274 QCURVE SMOOTH",
"111 274 LINE SMOOTH",
"105 274 OFFCURVE",
"105 281 QCURVE SMOOTH",
"105 310 OFFCURVE",
"160 399 OFFCURVE",
"212 399 QCURVE SMOOTH"
);
},
{
closed = 1;
nodes = (
"229 -6 OFFCURVE",
"240 -6 OFFCURVE",
"244 -6 QCURVE",
"248 -5 LINE",
"216 -37 OFFCURVE",
"169 -118 OFFCURVE",
"169 -147 QCURVE SMOOTH",
"169 -174 OFFCURVE",
"203 -224 OFFCURVE",
"240 -224 QCURVE SMOOTH",
"295 -224 OFFCURVE",
"345 -158 QCURVE SMOOTH",
"349 -153 OFFCURVE",
"349 -127 OFFCURVE",
"345 -127 QCURVE SMOOTH",
"344 -127 OFFCURVE",
"324 -146 OFFCURVE",
"286 -165 OFFCURVE",
"264 -165 QCURVE SMOOTH",
"241 -165 OFFCURVE",
"223 -138 OFFCURVE",
"223 -122 QCURVE SMOOTH",
"223 -80 OFFCURVE",
"274 -13 OFFCURVE",
"327 26 QCURVE",
"355 45 OFFCURVE",
"370 67 QCURVE",
"376 77 OFFCURVE",
"376 85 QCURVE SMOOTH",
"376 98 OFFCURVE",
"370 98 QCURVE",
"363 93 LINE SMOOTH",
"356 88 OFFCURVE",
"337 77 OFFCURVE",
"310 66 OFFCURVE",
"272 58 OFFCURVE",
"251 58 QCURVE SMOOTH",
"179 58 OFFCURVE",
"103 164 OFFCURVE",
"103 227 QCURVE SMOOTH",
"103 232 OFFCURVE",
"111 232 QCURVE SMOOTH",
"363 232 LINE SMOOTH",
"380 232 OFFCURVE",
"392 241 OFFCURVE",
"392 261 QCURVE SMOOTH",
"392 289 OFFCURVE",
"375 346 OFFCURVE",
"338 401 OFFCURVE",
"268 436 OFFCURVE",
"222 436 QCURVE SMOOTH",
"137 436 OFFCURVE",
"24 314 OFFCURVE",
"24 209 QCURVE SMOOTH",
"24 119 OFFCURVE",
"143 -6 OFFCURVE",
"226 -6 QCURVE SMOOTH"
);
}
);
width = 411;
}
);
note = eogonek;
unicode = 0119;
},
{
glyphname = Hbar;
layers = (
{
layerId = "0276F023-BC64-4582-8657-390FE5DB601E";
paths = (
{
closed = 1;
nodes = (
"147 656 OFFCURVE",
"67 661 OFFCURVE",
"54 662 QCURVE",
"50 658 OFFCURVE",
"50 646 QCURVE SMOOTH",
"50 633 OFFCURVE",
"54 633 QCURVE SMOOTH",
"67 633 OFFCURVE",
"118 620 OFFCURVE",
"121 612 QCURVE",
"128 585 OFFCURVE",
"128 508 QCURVE",
"95 508 LINE",
"89 499 OFFCURVE",
"89 483 QCURVE SMOOTH",
"89 470 OFFCURVE",
"94 470 QCURVE SMOOTH",
"128 470 LINE",
"128 135 LINE SMOOTH",
"128 73 OFFCURVE",
"121 46 QCURVE",
"118 38 OFFCURVE",
"67 26 OFFCURVE",
"54 26 QCURVE SMOOTH",
"50 26 OFFCURVE",
"50 12 QCURVE SMOOTH",
"50 1 OFFCURVE",
"54 -3 QCURVE",
"169 2 OFFCURVE",
"174 2 QCURVE SMOOTH",
"190 2 OFFCURVE",
"290 -3 QCURVE",
"292 2 OFFCURVE",
"291 26 OFFCURVE",
"288 26 QCURVE SMOOTH",
"278 26 OFFCURVE",
"226 39 OFFCURVE",
"224 46 QCURVE SMOOTH",
"215 81 OFFCURVE",
"215 139 QCURVE SMOOTH",
"215 294 LINE SMOOTH",
"215 299 OFFCURVE",
"369 299 QCURVE SMOOTH",
"423 299 OFFCURVE",
"517 297 QCURVE",
"519 293 LINE",
"519 135 LINE SMOOTH",
"519 73 OFFCURVE",
"512 46 QCURVE",
"509 38 OFFCURVE",
"458 26 OFFCURVE",
"445 26 QCURVE SMOOTH",
"441 26 OFFCURVE",
"441 1 OFFCURVE",
"445 -3 QCURVE",
"560 2 OFFCURVE",
"566 2 QCURVE SMOOTH",
"580 2 OFFCURVE",
"680 -3 QCURVE",
"682 3 OFFCURVE",
"682 11 QCURVE SMOOTH",
"682 26 OFFCURVE",
"678 26 QCURVE SMOOTH",
"668 26 OFFCURVE",
"616 39 OFFCURVE",
"614 46 QCURVE SMOOTH",
"606 77 OFFCURVE",
"606 139 QCURVE SMOOTH",
"606 470 LINE",
"646 470 LINE",
"652 479 OFFCURVE",
"652 495 QCURVE SMOOTH",
"652 508 OFFCURVE",
"647 508 QCURVE SMOOTH",
"606 508 LINE",
"606 581 OFFCURVE",
"614 612 QCURVE SMOOTH",
"616 619 OFFCURVE",
"668 633 OFFCURVE",
"678 633 QCURVE SMOOTH",
"682 633 OFFCURVE",
"682 647 QCURVE SMOOTH",
"682 656 OFFCURVE",
"680 662 QCURVE",
"666 661 OFFCURVE",
"623 658 OFFCURVE",
"585 656 OFFCURVE",
"566 656 QCURVE SMOOTH",
"539 656 OFFCURVE",
"457 661 OFFCURVE",
"445 662 QCURVE",
"441 658 OFFCURVE",
"441 633 OFFCURVE",
"445 633 QCURVE SMOOTH",
"458 633 OFFCURVE",
"509 620 OFFCURVE",
"512 612 QCURVE",
"519 585 OFFCURVE",
"519 508 QCURVE",
"479 507 OFFCURVE",
"369 507 QCURVE SMOOTH",
"227 507 OFFCURVE",
"215 508 QCURVE",
"215 577 OFFCURVE",
"224 612 QCURVE SMOOTH",
"226 619 OFFCURVE",
"278 633 OFFCURVE",
"288 633 QCURVE SMOOTH",
"291 633 OFFCURVE",
"292 658 OFFCURVE",
"290 662 QCURVE",
"276 661 OFFCURVE",
"232 658 OFFCURVE",
"194 656 OFFCURVE",
"174 656 QCURVE SMOOTH"
);
},
{
closed = 1;
nodes = (
"519 353 LINE SMOOTH",
"519 351 OFFCURVE",
"517 349 QCURVE",
"427 347 OFFCURVE",
"369 347 QCURVE SMOOTH",
"315 347 OFFCURVE",
"217 349 QCURVE SMOOTH",
"215 349 OFFCURVE",
"215 352 QCURVE SMOOTH",
"215 470 LINE",
"260 471 OFFCURVE",
"478 471 OFFCURVE",
"519 470 QCURVE"
);
}
);
width = 738;
}
);
note = Hbar;
unicode = 0126;
},
{
glyphname = hbar;
layers = (
{
layerId = "0276F023-BC64-4582-8657-390FE5DB601E";
paths = (
{
closed = 1;
nodes = (
"37 560 OFFCURVE",
"37 542 QCURVE SMOOTH",
"37 529 OFFCURVE",
"42 529 QCURVE SMOOTH",
"308 529 OFFCURVE",
"308 529 QCURVE",
"314 542 OFFCURVE",
"314 559 QCURVE SMOOTH",
"314 569 OFFCURVE",
"308 569 QCURVE SMOOTH",
"43 569 OFFCURVE",
"43 569 QCURVE"
);
},
{
closed = 1;
nodes = (
"275 438 OFFCURVE",
"194 394 OFFCURVE",
"172 370 QCURVE",
"170 368 OFFCURVE",
"169 368 QCURVE SMOOTH",
"167 368 OFFCURVE",
"167 372 QCURVE SMOOTH",
"167 591 LINE SMOOTH",
"167 646 OFFCURVE",
"178 678 QCURVE",
"177 683 OFFCURVE",
"169 694 OFFCURVE",
"165 694 QCURVE SMOOTH",
"163 694 LINE",
"158 691 LINE",
"154 688 OFFCURVE",
"134 679 OFFCURVE",
"105 669 OFFCURVE",
"54 659 OFFCURVE",
"24 656 QCURVE",
"18 656 OFFCURVE",
"18 640 QCURVE SMOOTH",
"18 629 OFFCURVE",
"24 629 QCURVE SMOOTH",
"33 629 LINE SMOOTH",
"79 629 OFFCURVE",
"84 613 QCURVE",
"90 583 OFFCURVE",
"90 549 QCURVE SMOOTH",
"90 115 LINE SMOOTH",
"90 75 OFFCURVE",
"83 46 QCURVE",
"81 39 OFFCURVE",
"34 26 OFFCURVE",
"22 26 QCURVE SMOOTH",
"18 26 OFFCURVE",
"18 1 OFFCURVE",
"22 -3 QCURVE",
"125 2 OFFCURVE",
"131 2 QCURVE SMOOTH",
"138 2 OFFCURVE",
"238 -3 QCURVE",
"240 2 OFFCURVE",
"238 26 OFFCURVE",
"235 26 QCURVE SMOOTH",
"225 26 OFFCURVE",
"177 39 OFFCURVE",
"175 46 QCURVE SMOOTH",
"167 77 OFFCURVE",
"167 135 QCURVE SMOOTH",
"167 312 LINE SMOOTH",
"167 330 OFFCURVE",
"226 377 OFFCURVE",
"256 377 QCURVE SMOOTH",
"309 377 OFFCURVE",
"360 314 OFFCURVE",
"360 222 QCURVE SMOOTH",
"360 116 LINE SMOOTH",
"360 75 OFFCURVE",
"353 46 QCURVE",
"351 39 OFFCURVE",
"308 26 OFFCURVE",
"296 26 QCURVE SMOOTH",
"292 26 OFFCURVE",
"292 1 OFFCURVE",
"296 -3 QCURVE",
"398 2 OFFCURVE",
"401 2 QCURVE SMOOTH",
"408 2 OFFCURVE",
"508 -3 QCURVE",
"510 2 OFFCURVE",
"508 26 OFFCURVE",
"505 26 QCURVE SMOOTH",
"495 26 OFFCURVE",
"447 39 OFFCURVE",
"445 46 QCURVE SMOOTH",
"437 77 OFFCURVE",
"437 134 QCURVE SMOOTH",
"437 242 LINE SMOOTH",
"437 342 OFFCURVE",
"379 438 OFFCURVE",
"312 438 QCURVE SMOOTH"
);
}
);
width = 535;
}
);
note = hbar;
unicode = 0127;
},
{
glyphname = Iogonek;
layers = (
{
layerId = "0276F023-BC64-4582-8657-390FE5DB601E";
paths = (
{
closed = 1;
nodes = (
"168 657 OFFCURVE",
"53 662 QCURVE",
"49 658 OFFCURVE",
"49 646 QCURVE SMOOTH",
"49 633 OFFCURVE",
"53 633 QCURVE SMOOTH",
"66 633 OFFCURVE",
"117 620 OFFCURVE",
"120 612 QCURVE",
"127 585 OFFCURVE",
"127 523 QCURVE SMOOTH",
"127 135 LINE SMOOTH",
"127 73 OFFCURVE",
"120 46 QCURVE",
"117 38 OFFCURVE",
"66 26 OFFCURVE",
"53 26 QCURVE SMOOTH",
"49 26 OFFCURVE",
"49 12 QCURVE SMOOTH",
"49 1 OFFCURVE",
"53 -3 QCURVE",
"168 2 OFFCURVE",
"173 2 QCURVE SMOOTH",
"191 2 LINE",
"145 -29 OFFCURVE",
"75 -110 OFFCURVE",
"75 -147 QCURVE SMOOTH",
"75 -174 OFFCURVE",
"109 -224 OFFCURVE",
"146 -224 QCURVE SMOOTH",
"201 -224 OFFCURVE",
"251 -158 QCURVE SMOOTH",
"255 -153 OFFCURVE",
"255 -127 OFFCURVE",
"251 -127 QCURVE SMOOTH",
"250 -127 OFFCURVE",
"230 -146 OFFCURVE",
"192 -165 OFFCURVE",
"170 -165 QCURVE SMOOTH",
"147 -165 OFFCURVE",
"129 -138 OFFCURVE",
"129 -122 QCURVE SMOOTH",
"129 -92 OFFCURVE",
"196 -24 OFFCURVE",
"236 0 QCURVE",
"244 0 OFFCURVE",
"289 -3 QCURVE",
"291 3 OFFCURVE",
"291 11 QCURVE SMOOTH",
"291 26 OFFCURVE",
"287 26 QCURVE SMOOTH",
"277 26 OFFCURVE",
"225 39 OFFCURVE",
"223 46 QCURVE SMOOTH",
"214 81 OFFCURVE",
"214 139 QCURVE SMOOTH",
"214 519 LINE SMOOTH",
"214 577 OFFCURVE",
"223 612 QCURVE SMOOTH",
"225 619 OFFCURVE",
"277 633 OFFCURVE",
"287 633 QCURVE SMOOTH",
"291 633 OFFCURVE",
"291 647 QCURVE SMOOTH",
"291 656 OFFCURVE",
"289 662 QCURVE",
"189 657 OFFCURVE",
"173 657 QCURVE SMOOTH"
);
}
);
width = 347;
}
);
note = Iogonek;
unicode = 012E;
},
{
glyphname = dotlessi;
layers = (
{
layerId = "0276F023-BC64-4582-8657-390FE5DB601E";
paths = (
{
closed = 1;
nodes = (
"178 341 LINE SMOOTH",
"178 373 OFFCURVE",
"183 413 QCURVE",
"184 417 OFFCURVE",
"182 434 OFFCURVE",
"178 434 QCURVE SMOOTH",
"178 434 OFFCURVE",
"174 433 OFFCURVE",
"173 433 QCURVE",
"141 423 OFFCURVE",
"35 407 QCURVE SMOOTH",
"29 406 OFFCURVE",
"29 382 QCURVE SMOOTH",
"29 380 OFFCURVE",
"48 380 OFFCURVE",
"77 371 OFFCURVE",
"87 359 QCURVE",
"101 344 OFFCURVE",
"101 305 QCURVE SMOOTH",
"101 116 LINE SMOOTH",
"101 75 OFFCURVE",
"94 46 QCURVE",
"92 39 OFFCURVE",
"45 26 OFFCURVE",
"33 26 QCURVE SMOOTH",
"29 26 OFFCURVE",
"29 1 OFFCURVE",
"33 -3 QCURVE",
"136 2 OFFCURVE",
"142 2 QCURVE SMOOTH",
"149 2 OFFCURVE",
"249 -3 QCURVE",
"251 2 OFFCURVE",
"249 26 OFFCURVE",
"246 26 QCURVE SMOOTH",
"236 26 OFFCURVE",
"188 39 OFFCURVE",
"186 46 QCURVE SMOOTH",
"178 77 OFFCURVE",
"178 135 QCURVE SMOOTH"
);
}
);
width = 282;
}
);
note = dotlessi;
unicode = 0131;
},
{
glyphname = kgreenlandic;
layers = (
{
layerId = "0276F023-BC64-4582-8657-390FE5DB601E";
paths = (
{
closed = 1;
nodes = (
"220 246 OFFCURVE",
"199 241 QCURVE",
"199 331 LINE SMOOTH",
"199 386 OFFCURVE",
"210 418 QCURVE",
"209 423 OFFCURVE",
"201 434 OFFCURVE",
"197 434 QCURVE SMOOTH",
"195 434 LINE",
"190 431 LINE",
"186 428 OFFCURVE",
"166 419 OFFCURVE",
"137 409 OFFCURVE",
"86 399 OFFCURVE",
"56 396 QCURVE",
"50 396 OFFCURVE",
"50 380 QCURVE SMOOTH",
"50 369 OFFCURVE",
"56 369 QCURVE SMOOTH",
"65 369 LINE SMOOTH",
"111 369 OFFCURVE",
"116 353 QCURVE",
"122 323 OFFCURVE",
"122 289 QCURVE SMOOTH",
"122 116 LINE SMOOTH",
"122 75 OFFCURVE",
"115 46 QCURVE",
"113 39 OFFCURVE",
"66 26 OFFCURVE",
"54 26 QCURVE SMOOTH",
"50 26 OFFCURVE",
"50 1 OFFCURVE",
"54 -3 QCURVE",
"156 2 OFFCURVE",
"170 2 OFFCURVE",
"270 -3 QCURVE",
"272 2 OFFCURVE",
"270 26 OFFCURVE",
"267 26 QCURVE SMOOTH",
"257 26 OFFCURVE",
"209 39 OFFCURVE",
"207 46 QCURVE SMOOTH",
"197 83 OFFCURVE",
"199 135 QCURVE",
"199 195 LINE",
"211 198 LINE",
"354 40 LINE",
"355 39 OFFCURVE",
"355 37 QCURVE SMOOTH",
"355 32 OFFCURVE",
"329 24 OFFCURVE",
"319 24 QCURVE SMOOTH",
"315 24 OFFCURVE",
"315 1 OFFCURVE",
"319 -3 QCURVE",
"422 2 OFFCURVE",
"423 2 QCURVE SMOOTH",
"432 2 OFFCURVE",
"532 -3 QCURVE",
"533 -1 OFFCURVE",
"533 8 QCURVE SMOOTH",
"533 24 OFFCURVE",
"529 24 QCURVE SMOOTH",
"517 24 OFFCURVE",
"465 39 OFFCURVE",
"449 53 QCURVE SMOOTH",
"440 61 OFFCURVE",
"391 119 OFFCURVE",
"313 213 OFFCURVE",
"283 248 QCURVE",
"320 282 OFFCURVE",
"442 383 OFFCURVE",
"452 390 QCURVE",
"473 403 OFFCURVE",
"510 406 QCURVE",
"524 406 OFFCURVE",
"525 408 QCURVE",
"532 429 OFFCURVE",
"522 435 QCURVE",
"506 434 OFFCURVE",
"461 432 OFFCURVE",
"429 430 OFFCURVE",
"413 430 QCURVE SMOOTH",
"334 430 LINE",
"326 427 OFFCURVE",
"333 407 QCURVE",
"334 405 OFFCURVE",
"378 401 OFFCURVE",
"378 389 QCURVE SMOOTH",
"378 386 OFFCURVE",
"371 376 OFFCURVE",
"354 360 OFFCURVE",
"336 344 OFFCURVE",
"305 318 OFFCURVE",
"281 297 OFFCURVE",
"238 262 OFFCURVE",
"224 250 QCURVE"
);
}
);
width = 590;
}
);
note = kgreenlandic;
unicode = 0138;
},
{
glyphname = Lslash;
layers = (
{
layerId = "0276F023-BC64-4582-8657-390FE5DB601E";
paths = (
{
closed = 1;
nodes = (
"150 656 OFFCURVE",
"70 661 OFFCURVE",
"57 662 QCURVE",
"53 658 OFFCURVE",
"53 646 QCURVE SMOOTH",
"53 633 OFFCURVE",
"57 633 QCURVE SMOOTH",
"70 633 OFFCURVE",
"121 620 OFFCURVE",
"124 612 QCURVE",
"131 585 OFFCURVE",
"131 521 QCURVE SMOOTH",
"131 260 LINE",
"55 207 LINE SMOOTH",
"52 205 OFFCURVE",
"66 184 OFFCURVE",
"72 178 QCURVE",
"131 220 LINE",
"131 143 LINE SMOOTH",
"131 61 OFFCURVE",
"124 49 QCURVE SMOOTH",
"119 40 OFFCURVE",
"69 28 OFFCURVE",
"55 28 QCURVE SMOOTH",
"52 28 OFFCURVE",
"52 2 OFFCURVE",
"55 -1 QCURVE",
"176 2 LINE SMOOTH",
"244 2 OFFCURVE",
"465 -4 OFFCURVE",
"517 -4 QCURVE",
"519 11 OFFCURVE",
"533 57 OFFCURVE",
"545 92 OFFCURVE",
"566 149 OFFCURVE",
"571 162 QCURVE",
"565 168 OFFCURVE",
"546 168 QCURVE SMOOTH",
"534 168 OFFCURVE",
"532 162 QCURVE",
"521 124 OFFCURVE",
"484 69 OFFCURVE",
"469 61 QCURVE SMOOTH",
"436 44 OFFCURVE",
"343 44 QCURVE SMOOTH",
"295 44 LINE SMOOTH",
"230 44 OFFCURVE",
"227 54 QCURVE",
"218 89 OFFCURVE",
"218 142 QCURVE SMOOTH",
"218 280 LINE",
"423 416 LINE SMOOTH",
"426 418 OFFCURVE",
"410 442 OFFCURVE",
"405 447 QCURVE",
"218 320 LINE",
"218 519 LINE SMOOTH",
"218 577 OFFCURVE",
"227 612 QCURVE SMOOTH",
"229 619 OFFCURVE",
"281 633 OFFCURVE",
"291 633 QCURVE SMOOTH",
"295 633 OFFCURVE",
"295 647 QCURVE SMOOTH",
"295 656 OFFCURVE",
"293 662 QCURVE",
"279 661 OFFCURVE",
"235 658 OFFCURVE",
"197 656 OFFCURVE",
"177 656 QCURVE SMOOTH"
);
}
);
width = 616;
}
);
note = Lslash;
unicode = 0141;
},
